{"glyphs":{"0":{"ha":1250,"x_min":83,"x_max":1167,"o":"m 421 1033 l 631 1033 l 926 1033 l 942 1031 q 1063 978 1006 1018 q 1085 957 1078 963 q 1107 932 1100 942 q 1160 826 1146 885 q 1161 822 1161 824 q 1163 815 1161 818 q 1164 807 1163 808 q 1165 803 1165 806 q 1167 797 1167 799 l 1167 788 l 1167 749 l 1167 676 l 1167 651 l 1167 564 l 1167 514 q 1165 489 1167 493 q 1164 481 1164 488 q 1163 472 1164 474 q 1085 332 1146 390 q 940 258 1025 272 l 924 256 l 632 256 q 486 254 592 254 q 397 256 411 254 l 347 256 q 324 257 326 256 q 307 258 311 257 l 307 260 q 147 351 211 276 q 86 482 100 407 l 83 499 l 83 643 l 83 788 l 86 803 q 163 954 101 894 q 328 1032 229 1021 q 421 1033 383 1032 m 699 774 q 664 772 685 779 q 638 747 647 765 q 636 742 636 744 q 635 736 635 739 l 635 726 l 635 718 q 636 713 635 714 l 638 707 q 660 685 647 690 q 690 679 674 676 q 725 703 714 683 q 729 744 736 722 q 717 763 725 754 q 699 774 706 771 m 854 728 l 854 776 l 842 776 l 829 776 l 829 754 l 828 733 l 815 754 l 801 775 l 789 775 l 775 775 l 775 726 l 775 679 l 789 679 l 803 679 l 803 700 l 803 722 l 817 701 l 831 679 l 843 679 l 854 679 l 854 728 m 222 775 l 215 775 l 200 775 l 179 775 l 179 726 l 179 679 l 192 679 l 206 679 l 206 694 l 206 710 l 215 711 q 225 713 224 711 l 231 714 q 249 744 251 724 q 228 774 247 765 l 222 775 m 353 763 l 353 775 l 322 775 l 290 775 l 290 726 l 290 679 l 322 679 l 353 679 l 353 692 l 353 704 l 335 704 l 318 704 l 318 708 l 318 714 l 333 714 l 349 714 l 349 726 l 349 739 l 333 739 l 318 739 l 318 744 l 318 749 l 335 749 l 353 749 l 353 763 m 449 775 l 424 775 l 400 775 l 400 728 l 400 679 l 413 679 l 426 679 l 426 694 l 426 707 l 428 710 l 432 706 l 433 701 q 439 694 436 697 l 449 679 l 464 679 l 475 679 l 479 679 l 476 685 l 468 697 l 457 714 l 461 718 q 465 724 464 721 l 468 728 q 471 733 471 731 l 471 742 l 471 751 q 469 756 471 754 q 454 771 464 765 l 449 775 m 567 774 q 553 775 564 775 q 538 772 549 775 q 515 749 517 765 q 517 738 515 739 q 521 729 517 733 q 549 717 528 721 l 554 717 l 558 715 l 561 714 l 565 710 l 565 708 l 564 706 q 553 704 556 703 q 543 708 544 704 l 540 711 l 533 710 l 532 710 q 526 708 529 708 q 521 707 525 707 l 515 704 l 517 697 q 542 679 522 683 q 576 683 558 675 q 592 711 594 692 q 558 739 592 733 q 551 740 556 740 q 544 749 540 744 q 553 751 547 751 q 561 747 558 751 l 564 744 l 578 747 q 585 749 579 749 q 589 750 588 749 l 590 751 l 589 753 q 582 765 588 760 q 567 774 575 772 m 954 775 l 939 775 l 925 775 l 910 728 q 900 694 910 726 q 894 679 897 688 l 899 679 l 908 679 l 922 679 l 924 685 l 925 690 l 940 689 l 954 689 l 956 683 l 957 679 l 971 679 l 982 679 l 985 681 l 982 688 q 971 722 976 706 q 963 749 969 731 q 960 754 961 750 q 960 760 960 758 l 957 767 l 957 768 l 954 775 m 1050 740 l 1050 775 l 1038 775 l 1024 775 l 1024 726 l 1024 679 l 1051 679 l 1079 679 l 1079 692 l 1079 704 l 1065 704 l 1050 704 l 1050 740 m 685 607 q 643 596 663 611 q 628 553 624 576 q 654 515 631 529 q 657 514 656 514 q 661 513 660 513 l 667 511 l 676 511 l 686 511 q 692 513 689 511 l 697 515 q 711 525 703 517 q 721 538 718 532 q 725 568 728 553 q 710 594 721 583 q 685 607 700 606 m 849 560 l 849 608 l 835 608 q 822 607 824 608 l 821 600 l 821 586 l 821 567 l 808 586 l 794 607 l 782 607 l 769 607 l 769 558 l 769 511 l 783 511 l 796 511 l 796 532 l 797 554 l 811 532 l 824 511 l 836 511 l 849 511 l 849 560 m 231 607 l 217 607 l 204 607 l 204 572 l 204 538 l 208 532 q 217 521 211 525 q 229 513 222 514 q 243 511 232 511 q 258 513 256 511 q 272 522 264 514 q 279 535 278 528 l 282 539 l 282 542 l 282 551 l 282 574 l 282 607 l 269 607 l 256 607 l 256 578 l 256 554 l 254 543 l 251 540 l 250 538 q 243 536 249 536 l 235 539 l 232 544 q 231 554 231 549 l 231 578 l 231 607 m 381 606 q 367 607 378 607 q 350 606 353 607 q 340 600 343 603 q 332 592 333 596 l 329 588 q 328 581 328 585 l 329 569 q 335 561 331 565 q 346 554 338 557 q 350 553 349 554 q 353 551 351 551 q 357 550 356 550 q 363 549 358 549 q 378 542 378 546 q 374 536 378 539 q 364 536 368 535 q 356 540 358 536 l 353 543 l 340 540 q 332 539 338 539 q 326 538 331 538 l 328 535 l 331 529 q 332 525 331 526 l 333 522 q 363 511 344 511 q 400 525 389 510 l 401 528 l 404 531 l 404 536 q 375 571 407 564 q 358 576 361 574 q 357 582 356 579 l 361 583 l 365 583 l 371 583 l 374 579 l 376 576 l 389 579 q 394 581 392 579 l 399 582 l 401 582 l 403 585 l 400 589 q 381 606 393 601 m 511 594 l 511 607 l 481 607 l 449 607 l 449 558 l 449 511 l 481 511 l 511 511 l 511 524 l 511 536 l 493 536 l 476 536 l 476 542 l 476 546 l 492 546 l 507 546 l 507 558 l 507 571 l 492 571 l 476 571 l 476 576 l 476 582 l 493 582 l 511 582 l 511 594 m 922 572 l 922 607 l 910 607 l 896 607 l 896 558 l 896 511 l 924 511 l 951 511 l 951 524 l 951 536 l 936 536 l 922 536 l 922 572 m 994 607 l 979 607 l 963 607 l 965 604 l 967 603 l 969 599 l 971 594 q 974 590 972 593 q 976 586 975 588 q 979 581 978 583 q 982 576 981 578 l 996 551 l 996 531 l 996 511 l 1008 511 l 1022 511 l 1022 531 l 1022 551 l 1036 576 q 1049 596 1039 582 l 1053 604 l 1054 607 l 1039 607 l 1024 607 l 1017 594 q 1013 586 1014 589 l 1008 582 l 1007 586 q 1001 594 1004 589 l 994 607 m 674 749 q 699 743 688 754 q 703 717 710 732 q 681 704 694 703 q 661 721 667 707 q 664 738 660 726 q 674 749 665 743 m 206 742 l 206 749 l 213 749 l 219 749 l 221 743 q 219 738 221 739 l 213 735 l 206 735 l 206 742 m 426 742 l 426 749 l 435 749 l 443 749 l 444 742 q 433 735 444 735 l 426 735 l 426 742 m 939 736 l 940 738 l 942 732 q 943 726 943 729 l 947 714 l 940 714 l 933 714 l 933 718 l 935 721 q 936 728 935 726 l 938 729 l 939 736 m 656 567 q 667 581 657 576 q 686 581 676 585 q 697 565 694 575 q 693 544 700 553 q 675 536 686 536 q 657 547 664 536 q 656 567 651 557 m 194 169 q 213 171 208 172 q 220 167 215 169 q 226 165 225 165 l 232 161 l 233 158 l 235 156 q 236 151 236 153 l 232 150 l 229 151 l 226 154 q 210 164 218 163 q 190 156 197 164 q 183 135 182 149 q 193 115 185 121 q 214 113 199 110 q 225 121 221 115 q 229 129 229 125 l 229 132 l 219 132 l 210 132 l 210 136 l 210 140 l 224 140 l 236 140 l 236 122 l 236 106 l 233 106 l 229 107 l 232 114 q 233 118 233 117 l 232 118 l 231 117 l 228 114 q 207 104 222 104 q 179 121 189 104 q 178 125 178 124 l 176 129 l 176 138 l 176 146 q 178 150 176 149 l 179 154 q 194 169 186 167 m 461 171 l 468 171 l 468 167 l 468 163 l 463 163 l 457 163 l 454 160 l 454 157 l 453 153 l 453 150 l 458 150 l 464 150 l 464 146 l 464 142 l 457 142 l 451 142 l 447 140 l 449 140 l 450 138 l 453 135 l 453 131 l 453 119 l 453 106 l 449 106 l 444 106 l 444 124 l 444 142 l 442 142 l 440 143 l 439 146 q 440 150 439 149 l 442 150 l 444 151 l 444 154 q 451 168 444 161 q 461 171 454 171 m 565 138 l 565 171 l 569 171 l 574 171 l 574 138 l 574 106 l 569 106 l 565 106 l 565 138 m 604 138 l 604 171 l 608 171 l 613 171 l 613 138 l 613 106 l 608 106 l 604 106 l 604 138 m 713 171 l 719 171 l 719 167 l 719 163 l 714 163 l 710 163 l 707 160 l 706 157 l 704 153 l 704 150 l 710 150 l 717 150 l 717 146 l 717 142 l 708 142 l 703 142 l 700 140 l 701 138 l 704 135 l 704 131 l 704 119 l 704 106 l 700 106 l 696 106 l 696 124 l 696 142 l 694 142 l 692 143 l 692 146 l 692 150 l 694 150 l 696 151 l 696 154 q 704 168 696 161 q 713 171 707 171 m 342 161 l 346 161 l 350 161 l 350 156 l 350 150 l 356 150 l 360 150 l 360 146 l 360 142 l 353 142 q 347 138 342 142 l 349 136 l 350 133 l 350 125 l 350 114 l 356 113 l 361 113 l 361 108 l 361 106 l 354 106 l 349 106 l 344 108 l 342 111 l 342 126 l 342 142 l 339 142 l 336 143 l 335 146 q 336 150 335 149 l 339 150 l 342 150 l 342 151 l 342 156 l 342 161 m 883 161 l 888 161 l 890 161 l 890 156 l 890 150 l 896 150 l 901 150 l 901 146 l 901 142 l 894 142 l 888 142 l 886 140 l 888 140 l 889 138 l 890 138 l 890 135 l 890 128 l 892 115 q 897 113 894 113 l 901 113 l 903 113 l 903 108 l 903 106 l 897 106 l 892 106 l 888 108 l 883 111 l 883 126 l 883 142 l 881 142 l 879 143 l 878 146 q 879 150 878 149 l 881 150 l 883 150 l 883 151 l 883 156 l 883 161 m 1050 161 l 1054 161 l 1058 161 l 1058 156 l 1058 150 l 1063 150 l 1068 150 l 1068 146 l 1068 142 l 1061 142 l 1056 142 l 1053 140 l 1054 140 l 1056 138 l 1057 138 l 1058 135 l 1058 128 l 1060 115 q 1065 113 1060 113 l 1068 113 l 1069 113 l 1069 108 l 1069 106 l 1064 106 l 1058 106 l 1054 108 l 1050 111 l 1050 126 l 1050 142 l 1047 142 l 1046 143 l 1044 146 q 1046 150 1044 149 l 1047 150 l 1050 150 l 1050 151 l 1050 156 l 1050 161 m 282 149 q 301 147 293 153 q 311 129 310 139 l 311 125 l 293 125 l 281 125 l 276 122 l 278 118 q 288 113 279 113 q 299 115 292 111 q 304 119 301 118 l 308 119 l 310 118 l 307 114 l 301 108 q 297 106 299 107 q 286 106 292 104 q 276 107 278 106 q 268 129 267 115 q 282 149 269 143 m 297 140 l 288 143 q 278 136 281 140 l 278 133 l 276 132 l 281 132 q 289 131 285 131 q 297 132 296 131 l 301 132 l 303 135 l 300 138 l 297 140 m 754 149 q 763 150 756 150 q 771 149 769 150 q 783 126 783 142 q 781 114 783 125 q 769 106 776 108 q 758 104 760 103 q 747 110 751 106 q 742 121 743 114 q 740 135 739 131 q 746 143 742 139 q 754 149 750 147 m 769 140 q 751 139 758 147 q 750 118 744 128 q 760 113 751 113 q 771 114 763 111 q 775 128 775 121 q 769 140 775 136 m 828 149 q 840 150 838 151 q 849 142 847 147 l 850 136 l 850 122 l 850 106 l 847 106 l 843 106 l 843 121 l 843 132 l 843 138 l 840 140 l 836 143 l 828 140 q 824 135 824 139 l 824 132 q 822 126 822 128 q 821 119 821 124 l 821 106 l 817 106 l 814 106 l 814 128 l 814 150 l 818 150 l 821 149 l 819 144 l 818 142 l 817 139 l 817 136 l 818 139 l 819 142 q 824 146 822 144 l 828 149 m 997 150 l 1001 150 q 1015 144 1011 150 q 1018 126 1018 133 l 1018 119 l 1018 115 l 1019 114 l 1022 111 l 1022 107 l 1019 106 q 1013 113 1015 106 l 1010 117 l 1010 114 q 1006 107 1007 108 q 996 104 1003 104 q 985 108 989 104 q 982 118 981 113 q 989 128 982 124 l 994 131 q 1001 132 1000 131 l 1007 133 l 1010 133 l 1010 135 l 1008 138 l 1004 142 q 996 143 1003 143 q 990 138 992 142 l 989 136 l 985 136 l 982 138 l 983 142 l 988 146 l 992 149 q 997 150 994 150 m 1008 126 l 1003 125 l 1001 125 q 997 124 999 125 l 994 122 l 992 121 l 990 119 l 989 117 q 997 111 989 111 q 1006 115 1001 111 q 1010 124 1010 119 l 1008 126 m 493 150 l 497 150 l 501 150 l 501 133 l 501 122 q 503 117 501 118 l 503 114 q 513 113 510 111 q 521 118 517 114 q 522 125 522 121 l 522 136 l 524 150 l 526 150 l 531 150 l 531 132 l 531 124 l 531 118 l 532 115 l 533 114 l 535 111 l 535 107 l 533 106 q 528 108 531 106 l 526 111 q 524 114 525 114 l 522 115 l 521 111 l 518 106 l 510 104 q 494 111 501 104 l 494 118 q 493 132 493 119 l 493 150 m 200 50 l 204 50 l 210 49 l 210 44 l 210 40 l 204 40 l 199 40 l 194 38 q 193 33 193 35 l 192 29 l 192 25 l 197 25 l 204 25 l 204 19 l 204 15 l 194 15 l 188 15 l 185 14 l 186 14 l 188 11 l 192 8 l 192 -10 l 192 -28 l 186 -28 l 182 -28 l 182 -7 l 182 15 l 178 15 l 176 15 l 175 17 l 175 19 q 176 24 175 22 l 178 25 l 181 25 l 182 26 l 182 31 q 196 49 183 46 l 200 50 m 575 50 l 579 50 l 585 50 l 585 17 l 585 1 l 585 -10 q 586 -15 585 -14 l 586 -17 l 589 -18 l 590 -19 l 590 -24 l 590 -26 l 589 -28 l 585 -26 q 582 -24 583 -25 q 579 -22 581 -22 l 576 -19 l 572 -24 q 549 -28 561 -32 q 536 -11 539 -22 q 538 10 533 0 q 550 24 539 19 l 554 26 l 557 26 q 567 24 561 25 q 575 17 574 21 l 581 13 q 578 18 579 14 l 576 22 l 576 28 q 575 36 575 32 l 575 50 m 568 13 q 561 17 565 15 q 551 14 560 17 q 544 -4 544 7 l 546 -7 l 547 -10 l 547 -14 q 557 -19 550 -17 q 568 -17 561 -21 q 575 -1 575 -10 q 568 13 575 6 m 626 44 l 626 50 l 631 50 l 635 49 l 636 44 l 636 39 l 631 39 l 626 39 l 626 44 m 397 32 l 397 39 l 401 39 l 407 39 l 407 32 l 407 25 l 413 25 l 419 25 l 419 19 l 419 15 l 410 15 l 404 15 l 401 14 l 403 13 l 403 11 l 404 11 l 406 10 l 407 7 l 407 -4 q 408 -17 407 -12 l 411 -18 l 415 -18 l 419 -18 l 419 -24 l 419 -28 l 414 -28 l 404 -26 l 400 -22 q 399 -14 399 -18 q 397 -1 397 -12 l 397 15 l 394 15 l 393 15 l 392 17 l 390 19 q 392 24 390 22 l 393 25 l 394 25 l 397 25 l 397 32 m 1051 32 l 1051 39 l 1056 39 l 1061 39 l 1061 32 l 1061 25 l 1067 25 l 1072 25 l 1072 19 l 1072 15 l 1064 15 l 1056 15 l 1058 11 l 1060 8 l 1061 4 l 1061 -4 l 1061 -18 l 1068 -18 l 1074 -18 l 1074 -24 l 1074 -29 l 1067 -28 q 1060 -26 1061 -28 l 1056 -24 l 1051 -21 l 1051 -3 l 1051 15 l 1047 15 l 1046 15 l 1044 17 l 1044 19 l 1044 24 l 1046 25 l 1047 25 l 1051 25 l 1051 32 m 249 25 q 261 25 256 28 q 267 22 264 24 q 271 19 269 19 l 274 17 l 274 21 q 275 25 274 24 l 278 25 l 282 25 l 282 -7 l 282 -25 l 282 -35 l 282 -40 l 279 -43 l 278 -46 l 274 -49 l 271 -50 l 265 -51 l 254 -51 l 239 -51 l 239 -47 l 239 -43 l 251 -43 q 261 -42 260 -43 l 267 -42 q 274 -29 274 -37 l 275 -25 l 276 -22 l 278 -17 q 274 -19 275 -18 q 261 -28 267 -25 q 247 -28 254 -31 q 240 -21 243 -26 q 235 -12 236 -17 q 233 -1 233 -11 q 235 8 233 7 q 240 18 236 14 q 249 25 242 22 m 265 14 l 260 17 l 251 15 q 243 4 244 13 q 246 -14 242 -3 q 258 -19 253 -21 q 271 -11 264 -19 q 272 1 274 -1 q 265 14 271 8 m 336 25 l 342 25 q 358 15 354 25 l 361 10 l 356 8 l 350 10 q 347 15 350 13 q 340 17 346 17 q 331 13 333 17 q 332 7 329 10 l 338 6 l 342 4 l 344 3 l 358 -3 q 361 -12 361 -11 l 361 -17 l 358 -22 q 338 -29 350 -31 q 319 -18 326 -28 q 318 -11 318 -15 l 322 -10 l 328 -10 l 328 -12 l 329 -14 l 332 -17 l 335 -18 l 338 -19 l 342 -19 q 349 -18 346 -19 l 350 -17 l 353 -14 l 353 -12 q 338 -6 353 -10 q 333 -4 335 -6 l 331 -3 l 325 0 q 321 6 324 1 q 319 13 319 8 q 325 21 321 17 l 331 25 l 336 25 m 681 19 q 689 25 685 24 q 706 24 693 26 q 718 14 711 21 q 719 10 718 11 l 721 7 l 721 0 q 713 -24 724 -15 q 689 -28 701 -32 q 672 -10 676 -24 q 671 1 671 -7 q 674 11 671 3 l 675 14 q 681 19 678 17 m 703 15 q 693 15 697 17 q 683 10 685 13 q 682 6 683 8 q 681 1 681 3 l 681 -8 q 694 -19 685 -18 q 710 -12 703 -22 q 713 3 714 -6 q 703 15 710 10 m 768 24 q 786 24 778 28 l 793 19 l 796 14 l 797 13 l 797 10 l 793 8 q 789 10 790 8 l 788 11 q 781 15 786 13 q 771 15 775 17 q 765 10 765 14 l 767 8 l 772 6 q 783 1 776 3 q 789 0 786 1 l 793 -1 q 797 -8 796 -4 q 794 -24 800 -21 q 776 -29 789 -29 q 763 -24 768 -29 q 756 -12 756 -19 l 757 -10 l 760 -10 l 764 -10 l 765 -12 q 778 -19 768 -19 q 789 -14 788 -19 q 788 -10 789 -11 l 779 -7 q 776 -6 778 -7 q 772 -4 775 -6 q 765 -1 768 -3 l 758 3 l 757 7 l 757 11 q 768 24 757 21 m 907 25 l 910 26 q 921 22 914 26 q 928 13 925 19 l 929 6 l 929 -10 l 929 -28 l 924 -28 l 919 -28 l 919 -12 l 919 7 q 915 14 917 13 q 906 15 908 17 q 897 8 900 14 l 896 6 l 894 0 l 894 -11 l 893 -28 l 889 -28 l 885 -28 l 885 -1 l 885 25 l 889 25 l 893 25 l 894 22 l 893 21 l 892 18 q 889 13 889 15 l 889 11 l 892 15 q 901 22 896 19 l 907 25 m 983 25 q 996 25 989 28 q 1007 18 1004 22 q 1013 11 1011 14 q 1015 7 1014 8 l 1015 1 l 1015 -6 l 994 -6 l 983 -6 l 978 -6 l 975 -6 l 974 -7 q 976 -12 974 -10 l 982 -18 q 993 -19 989 -21 q 1003 -14 1000 -17 l 1004 -11 l 1008 -11 q 1014 -12 1013 -11 l 1011 -18 q 997 -28 1003 -25 q 981 -28 989 -31 q 964 -1 964 -22 q 983 25 965 19 m 994 17 l 990 17 l 983 15 l 981 13 l 978 11 q 975 6 975 8 l 974 3 l 989 3 l 1000 3 q 1004 4 1003 3 l 1004 6 l 1003 10 l 997 14 l 994 17 m 454 25 l 458 25 l 463 25 l 463 6 l 463 -6 q 464 -11 463 -10 l 464 -14 l 465 -17 q 476 -19 469 -22 q 485 -12 482 -18 l 488 -8 l 488 -3 l 488 8 l 489 25 l 493 25 l 497 25 l 497 6 l 497 -15 l 500 -17 l 503 -19 l 503 -24 l 501 -28 q 496 -25 499 -28 q 490 -19 492 -24 l 488 -17 l 486 -24 q 481 -28 485 -25 q 471 -29 479 -29 q 461 -26 469 -29 l 458 -24 l 456 -19 l 456 -15 q 454 -8 454 -12 l 454 6 l 454 25 m 626 -1 l 626 25 l 631 25 l 635 24 l 636 -1 l 636 -28 l 631 -28 l 626 -28 l 626 -1 m 839 -15 l 842 -15 l 847 -15 l 847 -22 l 847 -28 l 842 -28 l 835 -28 l 835 -22 q 836 -18 835 -19 l 836 -17 l 839 -15 z "},"1":{"ha":1250,"x_min":83,"x_max":1167,"o":"m 421 1033 l 631 1033 l 926 1033 l 942 1031 q 1063 978 1006 1018 q 1085 957 1078 963 q 1107 932 1100 942 q 1160 826 1146 885 q 1161 822 1161 824 q 1163 815 1161 818 q 1164 807 1163 808 q 1165 803 1165 806 q 1167 797 1167 799 l 1167 788 l 1167 749 l 1167 676 l 1167 651 l 1167 564 l 1167 514 q 1165 489 1167 493 q 1164 481 1164 488 q 1163 472 1164 474 q 1085 332 1146 390 q 940 258 1025 272 l 924 256 l 632 256 q 486 254 592 254 q 397 256 411 254 l 347 256 q 324 257 326 256 q 307 258 311 257 l 307 260 q 147 351 211 276 q 86 482 100 407 l 83 499 l 83 643 l 83 788 l 86 803 q 163 954 101 894 q 328 1032 229 1021 q 421 1033 383 1032 m 699 774 q 664 772 685 779 q 638 747 647 765 q 636 742 636 744 q 635 736 635 739 l 635 726 l 635 718 q 636 713 635 714 l 638 707 q 660 685 647 690 q 690 679 674 676 q 725 703 714 683 q 729 744 736 722 q 717 763 725 754 q 699 774 706 771 m 854 728 l 854 776 l 842 776 l 829 776 l 829 754 l 828 733 l 815 754 l 801 775 l 789 775 l 775 775 l 775 726 l 775 679 l 789 679 l 803 679 l 803 700 l 803 722 l 817 701 l 831 679 l 843 679 l 854 679 l 854 728 m 222 775 l 215 775 l 200 775 l 179 775 l 179 726 l 179 679 l 192 679 l 206 679 l 206 694 l 206 710 l 215 711 q 225 713 224 711 l 231 714 q 249 744 251 724 q 228 774 247 765 l 222 775 m 353 763 l 353 775 l 322 775 l 290 775 l 290 726 l 290 679 l 322 679 l 353 679 l 353 692 l 353 704 l 335 704 l 318 704 l 318 708 l 318 714 l 333 714 l 349 714 l 349 726 l 349 739 l 333 739 l 318 739 l 318 744 l 318 749 l 335 749 l 353 749 l 353 763 m 449 775 l 424 775 l 400 775 l 400 728 l 400 679 l 413 679 l 426 679 l 426 694 l 426 707 l 428 710 l 432 706 l 433 701 q 439 694 436 697 l 449 679 l 464 679 l 475 679 l 479 679 l 476 685 l 468 697 l 457 714 l 461 718 q 465 724 464 721 l 468 728 q 471 733 471 731 l 471 742 l 471 751 q 469 756 471 754 q 454 771 464 765 l 449 775 m 567 774 q 553 775 564 775 q 538 772 549 775 q 515 749 517 765 q 517 738 515 739 q 521 729 517 733 q 549 717 528 721 l 554 717 l 558 715 l 561 714 l 565 710 l 565 708 l 564 706 q 553 704 556 703 q 543 708 544 704 l 540 711 l 533 710 l 532 710 q 526 708 529 708 q 521 707 525 707 l 515 704 l 517 697 q 542 679 522 683 q 576 683 558 675 q 592 711 594 692 q 558 739 592 733 q 551 740 556 740 q 544 749 540 744 q 553 751 547 751 q 561 747 558 751 l 564 744 l 578 747 q 585 749 579 749 q 589 750 588 749 l 590 751 l 589 753 q 582 765 588 760 q 567 774 575 772 m 954 775 l 939 775 l 925 775 l 910 728 q 900 694 910 726 q 894 679 897 688 l 899 679 l 908 679 l 922 679 l 924 685 l 925 690 l 940 689 l 954 689 l 956 683 l 957 679 l 971 679 l 982 679 l 985 681 l 982 688 q 971 722 976 706 q 963 749 969 731 q 960 754 961 750 q 960 760 960 758 l 957 767 l 957 768 l 954 775 m 1050 740 l 1050 775 l 1038 775 l 1024 775 l 1024 726 l 1024 679 l 1051 679 l 1079 679 l 1079 692 l 1079 704 l 1065 704 l 1050 704 l 1050 740 m 685 607 q 643 596 663 611 q 628 553 624 576 q 654 515 631 529 q 657 514 656 514 q 661 513 660 513 l 667 511 l 676 511 l 686 511 q 692 513 689 511 l 697 515 q 711 525 703 517 q 721 538 718 532 q 725 568 728 553 q 710 594 721 583 q 685 607 700 606 m 849 560 l 849 608 l 835 608 q 822 607 824 608 l 821 600 l 821 586 l 821 567 l 808 586 l 794 607 l 782 607 l 769 607 l 769 558 l 769 511 l 783 511 l 796 511 l 796 532 l 797 554 l 811 532 l 824 511 l 836 511 l 849 511 l 849 560 m 231 607 l 217 607 l 204 607 l 204 572 l 204 538 l 208 532 q 217 521 211 525 q 229 513 222 514 q 243 511 232 511 q 258 513 256 511 q 272 522 264 514 q 279 535 278 528 l 282 539 l 282 542 l 282 551 l 282 574 l 282 607 l 269 607 l 256 607 l 256 578 l 256 554 l 254 543 l 251 540 l 250 538 q 243 536 249 536 l 235 539 l 232 544 q 231 554 231 549 l 231 578 l 231 607 m 381 606 q 367 607 378 607 q 350 606 353 607 q 340 600 343 603 q 332 592 333 596 l 329 588 q 328 581 328 585 l 329 569 q 335 561 331 565 q 346 554 338 557 q 350 553 349 554 q 353 551 351 551 q 357 550 356 550 q 363 549 358 549 q 378 542 378 546 q 374 536 378 539 q 364 536 368 535 q 356 540 358 536 l 353 543 l 340 540 q 332 539 338 539 q 326 538 331 538 l 328 535 l 331 529 q 332 525 331 526 l 333 522 q 363 511 344 511 q 400 525 389 510 l 401 528 l 404 531 l 404 536 q 375 571 407 564 q 358 576 361 574 q 357 582 356 579 l 361 583 l 365 583 l 371 583 l 374 579 l 376 576 l 389 579 q 394 581 392 579 l 399 582 l 401 582 l 403 585 l 400 589 q 381 606 393 601 m 511 594 l 511 607 l 481 607 l 449 607 l 449 558 l 449 511 l 481 511 l 511 511 l 511 524 l 511 536 l 493 536 l 476 536 l 476 542 l 476 546 l 492 546 l 507 546 l 507 558 l 507 571 l 492 571 l 476 571 l 476 576 l 476 582 l 493 582 l 511 582 l 511 594 m 922 572 l 922 607 l 910 607 l 896 607 l 896 558 l 896 511 l 924 511 l 951 511 l 951 524 l 951 536 l 936 536 l 922 536 l 922 572 m 994 607 l 979 607 l 963 607 l 965 604 l 967 603 l 969 599 l 971 594 q 974 590 972 593 q 976 586 975 588 q 979 581 978 583 q 982 576 981 578 l 996 551 l 996 531 l 996 511 l 1008 511 l 1022 511 l 1022 531 l 1022 551 l 1036 576 q 1049 596 1039 582 l 1053 604 l 1054 607 l 1039 607 l 1024 607 l 1017 594 q 1013 586 1014 589 l 1008 582 l 1007 586 q 1001 594 1004 589 l 994 607 m 674 749 q 699 743 688 754 q 703 717 710 732 q 681 704 694 703 q 661 721 667 707 q 664 738 660 726 q 674 749 665 743 m 206 742 l 206 749 l 213 749 l 219 749 l 221 743 q 219 738 221 739 l 213 735 l 206 735 l 206 742 m 426 742 l 426 749 l 435 749 l 443 749 l 444 742 q 433 735 444 735 l 426 735 l 426 742 m 939 736 l 940 738 l 942 732 q 943 726 943 729 l 947 714 l 940 714 l 933 714 l 933 718 l 935 721 q 936 728 935 726 l 938 729 l 939 736 m 656 567 q 667 581 657 576 q 686 581 676 585 q 697 565 694 575 q 693 544 700 553 q 675 536 686 536 q 657 547 664 536 q 656 567 651 557 m 194 169 q 213 171 208 172 q 220 167 215 169 q 226 165 225 165 l 232 161 l 233 158 l 235 156 q 236 151 236 153 l 232 150 l 229 151 l 226 154 q 210 164 218 163 q 190 156 197 164 q 183 135 182 149 q 193 115 185 121 q 214 113 199 110 q 225 121 221 115 q 229 129 229 125 l 229 132 l 219 132 l 210 132 l 210 136 l 210 140 l 224 140 l 236 140 l 236 122 l 236 106 l 233 106 l 229 107 l 232 114 q 233 118 233 117 l 232 118 l 231 117 l 228 114 q 207 104 222 104 q 179 121 189 104 q 178 125 178 124 l 176 129 l 176 138 l 176 146 q 178 150 176 149 l 179 154 q 194 169 186 167 m 461 171 l 468 171 l 468 167 l 468 163 l 463 163 l 457 163 l 454 160 l 454 157 l 453 153 l 453 150 l 458 150 l 464 150 l 464 146 l 464 142 l 457 142 l 451 142 l 447 140 l 449 140 l 450 138 l 453 135 l 453 131 l 453 119 l 453 106 l 449 106 l 444 106 l 444 124 l 444 142 l 442 142 l 440 143 l 439 146 q 440 150 439 149 l 442 150 l 444 151 l 444 154 q 451 168 444 161 q 461 171 454 171 m 565 138 l 565 171 l 569 171 l 574 171 l 574 138 l 574 106 l 569 106 l 565 106 l 565 138 m 604 138 l 604 171 l 608 171 l 613 171 l 613 138 l 613 106 l 608 106 l 604 106 l 604 138 m 713 171 l 719 171 l 719 167 l 719 163 l 714 163 l 710 163 l 707 160 l 706 157 l 704 153 l 704 150 l 710 150 l 717 150 l 717 146 l 717 142 l 708 142 l 703 142 l 700 140 l 701 138 l 704 135 l 704 131 l 704 119 l 704 106 l 700 106 l 696 106 l 696 124 l 696 142 l 694 142 l 692 143 l 692 146 l 692 150 l 694 150 l 696 151 l 696 154 q 704 168 696 161 q 713 171 707 171 m 342 161 l 346 161 l 350 161 l 350 156 l 350 150 l 356 150 l 360 150 l 360 146 l 360 142 l 353 142 q 347 138 342 142 l 349 136 l 350 133 l 350 125 l 350 114 l 356 113 l 361 113 l 361 108 l 361 106 l 354 106 l 349 106 l 344 108 l 342 111 l 342 126 l 342 142 l 339 142 l 336 143 l 335 146 q 336 150 335 149 l 339 150 l 342 150 l 342 151 l 342 156 l 342 161 m 883 161 l 888 161 l 890 161 l 890 156 l 890 150 l 896 150 l 901 150 l 901 146 l 901 142 l 894 142 l 888 142 l 886 140 l 888 140 l 889 138 l 890 138 l 890 135 l 890 128 l 892 115 q 897 113 894 113 l 901 113 l 903 113 l 903 108 l 903 106 l 897 106 l 892 106 l 888 108 l 883 111 l 883 126 l 883 142 l 881 142 l 879 143 l 878 146 q 879 150 878 149 l 881 150 l 883 150 l 883 151 l 883 156 l 883 161 m 1050 161 l 1054 161 l 1058 161 l 1058 156 l 1058 150 l 1063 150 l 1068 150 l 1068 146 l 1068 142 l 1061 142 l 1056 142 l 1053 140 l 1054 140 l 1056 138 l 1057 138 l 1058 135 l 1058 128 l 1060 115 q 1065 113 1060 113 l 1068 113 l 1069 113 l 1069 108 l 1069 106 l 1064 106 l 1058 106 l 1054 108 l 1050 111 l 1050 126 l 1050 142 l 1047 142 l 1046 143 l 1044 146 q 1046 150 1044 149 l 1047 150 l 1050 150 l 1050 151 l 1050 156 l 1050 161 m 282 149 q 301 147 293 153 q 311 129 310 139 l 311 125 l 293 125 l 281 125 l 276 122 l 278 118 q 288 113 279 113 q 299 115 292 111 q 304 119 301 118 l 308 119 l 310 118 l 307 114 l 301 108 q 297 106 299 107 q 286 106 292 104 q 276 107 278 106 q 268 129 267 115 q 282 149 269 143 m 297 140 l 288 143 q 278 136 281 140 l 278 133 l 276 132 l 281 132 q 289 131 285 131 q 297 132 296 131 l 301 132 l 303 135 l 300 138 l 297 140 m 754 149 q 763 150 756 150 q 771 149 769 150 q 783 126 783 142 q 781 114 783 125 q 769 106 776 108 q 758 104 760 103 q 747 110 751 106 q 742 121 743 114 q 740 135 739 131 q 746 143 742 139 q 754 149 750 147 m 769 140 q 751 139 758 147 q 750 118 744 128 q 760 113 751 113 q 771 114 763 111 q 775 128 775 121 q 769 140 775 136 m 828 149 q 840 150 838 151 q 849 142 847 147 l 850 136 l 850 122 l 850 106 l 847 106 l 843 106 l 843 121 l 843 132 l 843 138 l 840 140 l 836 143 l 828 140 q 824 135 824 139 l 824 132 q 822 126 822 128 q 821 119 821 124 l 821 106 l 817 106 l 814 106 l 814 128 l 814 150 l 818 150 l 821 149 l 819 144 l 818 142 l 817 139 l 817 136 l 818 139 l 819 142 q 824 146 822 144 l 828 149 m 997 150 l 1001 150 q 1015 144 1011 150 q 1018 126 1018 133 l 1018 119 l 1018 115 l 1019 114 l 1022 111 l 1022 107 l 1019 106 q 1013 113 1015 106 l 1010 117 l 1010 114 q 1006 107 1007 108 q 996 104 1003 104 q 985 108 989 104 q 982 118 981 113 q 989 128 982 124 l 994 131 q 1001 132 1000 131 l 1007 133 l 1010 133 l 1010 135 l 1008 138 l 1004 142 q 996 143 1003 143 q 990 138 992 142 l 989 136 l 985 136 l 982 138 l 983 142 l 988 146 l 992 149 q 997 150 994 150 m 1008 126 l 1003 125 l 1001 125 q 997 124 999 125 l 994 122 l 992 121 l 990 119 l 989 117 q 997 111 989 111 q 1006 115 1001 111 q 1010 124 1010 119 l 1008 126 m 493 150 l 497 150 l 501 150 l 501 133 l 501 122 q 503 117 501 118 l 503 114 q 513 113 510 111 q 521 118 517 114 q 522 125 522 121 l 522 136 l 524 150 l 526 150 l 531 150 l 531 132 l 531 124 l 531 118 l 532 115 l 533 114 l 535 111 l 535 107 l 533 106 q 528 108 531 106 l 526 111 q 524 114 525 114 l 522 115 l 521 111 l 518 106 l 510 104 q 494 111 501 104 l 494 118 q 493 132 493 119 l 493 150 m 200 50 l 204 50 l 210 49 l 210 44 l 210 40 l 204 40 l 199 40 l 194 38 q 193 33 193 35 l 192 29 l 192 25 l 197 25 l 204 25 l 204 19 l 204 15 l 194 15 l 188 15 l 185 14 l 186 14 l 188 11 l 192 8 l 192 -10 l 192 -28 l 186 -28 l 182 -28 l 182 -7 l 182 15 l 178 15 l 176 15 l 175 17 l 175 19 q 176 24 175 22 l 178 25 l 181 25 l 182 26 l 182 31 q 196 49 183 46 l 200 50 m 575 50 l 579 50 l 585 50 l 585 17 l 585 1 l 585 -10 q 586 -15 585 -14 l 586 -17 l 589 -18 l 590 -19 l 590 -24 l 590 -26 l 589 -28 l 585 -26 q 582 -24 583 -25 q 579 -22 581 -22 l 576 -19 l 572 -24 q 549 -28 561 -32 q 536 -11 539 -22 q 538 10 533 0 q 550 24 539 19 l 554 26 l 557 26 q 567 24 561 25 q 575 17 574 21 l 581 13 q 578 18 579 14 l 576 22 l 576 28 q 575 36 575 32 l 575 50 m 568 13 q 561 17 565 15 q 551 14 560 17 q 544 -4 544 7 l 546 -7 l 547 -10 l 547 -14 q 557 -19 550 -17 q 568 -17 561 -21 q 575 -1 575 -10 q 568 13 575 6 m 626 44 l 626 50 l 631 50 l 635 49 l 636 44 l 636 39 l 631 39 l 626 39 l 626 44 m 397 32 l 397 39 l 401 39 l 407 39 l 407 32 l 407 25 l 413 25 l 419 25 l 419 19 l 419 15 l 410 15 l 404 15 l 401 14 l 403 13 l 403 11 l 404 11 l 406 10 l 407 7 l 407 -4 q 408 -17 407 -12 l 411 -18 l 415 -18 l 419 -18 l 419 -24 l 419 -28 l 414 -28 l 404 -26 l 400 -22 q 399 -14 399 -18 q 397 -1 397 -12 l 397 15 l 394 15 l 393 15 l 392 17 l 390 19 q 392 24 390 22 l 393 25 l 394 25 l 397 25 l 397 32 m 1051 32 l 1051 39 l 1056 39 l 1061 39 l 1061 32 l 1061 25 l 1067 25 l 1072 25 l 1072 19 l 1072 15 l 1064 15 l 1056 15 l 1058 11 l 1060 8 l 1061 4 l 1061 -4 l 1061 -18 l 1068 -18 l 1074 -18 l 1074 -24 l 1074 -29 l 1067 -28 q 1060 -26 1061 -28 l 1056 -24 l 1051 -21 l 1051 -3 l 1051 15 l 1047 15 l 1046 15 l 1044 17 l 1044 19 l 1044 24 l 1046 25 l 1047 25 l 1051 25 l 1051 32 m 249 25 q 261 25 256 28 q 267 22 264 24 q 271 19 269 19 l 274 17 l 274 21 q 275 25 274 24 l 278 25 l 282 25 l 282 -7 l 282 -25 l 282 -35 l 282 -40 l 279 -43 l 278 -46 l 274 -49 l 271 -50 l 265 -51 l 254 -51 l 239 -51 l 239 -47 l 239 -43 l 251 -43 q 261 -42 260 -43 l 267 -42 q 274 -29 274 -37 l 275 -25 l 276 -22 l 278 -17 q 274 -19 275 -18 q 261 -28 267 -25 q 247 -28 254 -31 q 240 -21 243 -26 q 235 -12 236 -17 q 233 -1 233 -11 q 235 8 233 7 q 240 18 236 14 q 249 25 242 22 m 265 14 l 260 17 l 251 15 q 243 4 244 13 q 246 -14 242 -3 q 258 -19 253 -21 q 271 -11 264 -19 q 272 1 274 -1 q 265 14 271 8 m 336 25 l 342 25 q 358 15 354 25 l 361 10 l 356 8 l 350 10 q 347 15 350 13 q 340 17 346 17 q 331 13 333 17 q 332 7 329 10 l 338 6 l 342 4 l 344 3 l 358 -3 q 361 -12 361 -11 l 361 -17 l 358 -22 q 338 -29 350 -31 q 319 -18 326 -28 q 318 -11 318 -15 l 322 -10 l 328 -10 l 328 -12 l 329 -14 l 332 -17 l 335 -18 l 338 -19 l 342 -19 q 349 -18 346 -19 l 350 -17 l 353 -14 l 353 -12 q 338 -6 353 -10 q 333 -4 335 -6 l 331 -3 l 325 0 q 321 6 324 1 q 319 13 319 8 q 325 21 321 17 l 331 25 l 336 25 m 681 19 q 689 25 685 24 q 706 24 693 26 q 718 14 711 21 q 719 10 718 11 l 721 7 l 721 0 q 713 -24 724 -15 q 689 -28 701 -32 q 672 -10 676 -24 q 671 1 671 -7 q 674 11 671 3 l 675 14 q 681 19 678 17 m 703 15 q 693 15 697 17 q 683 10 685 13 q 682 6 683 8 q 681 1 681 3 l 681 -8 q 694 -19 685 -18 q 710 -12 703 -22 q 713 3 714 -6 q 703 15 710 10 m 768 24 q 786 24 778 28 l 793 19 l 796 14 l 797 13 l 797 10 l 793 8 q 789 10 790 8 l 788 11 q 781 15 786 13 q 771 15 775 17 q 765 10 765 14 l 767 8 l 772 6 q 783 1 776 3 q 789 0 786 1 l 793 -1 q 797 -8 796 -4 q 794 -24 800 -21 q 776 -29 789 -29 q 763 -24 768 -29 q 756 -12 756 -19 l 757 -10 l 760 -10 l 764 -10 l 765 -12 q 778 -19 768 -19 q 789 -14 788 -19 q 788 -10 789 -11 l 779 -7 q 776 -6 778 -7 q 772 -4 775 -6 q 765 -1 768 -3 l 758 3 l 757 7 l 757 11 q 768 24 757 21 m 907 25 l 910 26 q 921 22 914 26 q 928 13 925 19 l 929 6 l 929 -10 l 929 -28 l 924 -28 l 919 -28 l 919 -12 l 919 7 q 915 14 917 13 q 906 15 908 17 q 897 8 900 14 l 896 6 l 894 0 l 894 -11 l 893 -28 l 889 -28 l 885 -28 l 885 -1 l 885 25 l 889 25 l 893 25 l 894 22 l 893 21 l 892 18 q 889 13 889 15 l 889 11 l 892 15 q 901 22 896 19 l 907 25 m 983 25 q 996 25 989 28 q 1007 18 1004 22 q 1013 11 1011 14 q 1015 7 1014 8 l 1015 1 l 1015 -6 l 994 -6 l 983 -6 l 978 -6 l 975 -6 l 974 -7 q 976 -12 974 -10 l 982 -18 q 993 -19 989 -21 q 1003 -14 1000 -17 l 1004 -11 l 1008 -11 q 1014 -12 1013 -11 l 1011 -18 q 997 -28 1003 -25 q 981 -28 989 -31 q 964 -1 964 -22 q 983 25 965 19 m 994 17 l 990 17 l 983 15 l 981 13 l 978 11 q 975 6 975 8 l 974 3 l 989 3 l 1000 3 q 1004 4 1003 3 l 1004 6 l 1003 10 l 997 14 l 994 17 m 454 25 l 458 25 l 463 25 l 463 6 l 463 -6 q 464 -11 463 -10 l 464 -14 l 465 -17 q 476 -19 469 -22 q 485 -12 482 -18 l 488 -8 l 488 -3 l 488 8 l 489 25 l 493 25 l 497 25 l 497 6 l 497 -15 l 500 -17 l 503 -19 l 503 -24 l 501 -28 q 496 -25 499 -28 q 490 -19 492 -24 l 488 -17 l 486 -24 q 481 -28 485 -25 q 471 -29 479 -29 q 461 -26 469 -29 l 458 -24 l 456 -19 l 456 -15 q 454 -8 454 -12 l 454 6 l 454 25 m 626 -1 l 626 25 l 631 25 l 635 24 l 636 -1 l 636 -28 l 631 -28 l 626 -28 l 626 -1 m 839 -15 l 842 -15 l 847 -15 l 847 -22 l 847 -28 l 842 -28 l 835 -28 l 835 -22 q 836 -18 835 -19 l 836 -17 l 839 -15 z "},"2":{"ha":1250,"x_min":83,"x_max":1167,"o":"m 421 1033 l 631 1033 l 926 1033 l 942 1031 q 1063 978 1006 1018 q 1085 957 1078 963 q 1107 932 1100 942 q 1160 826 1146 885 q 1161 822 1161 824 q 1163 815 1161 818 q 1164 807 1163 808 q 1165 803 1165 806 q 1167 797 1167 799 l 1167 788 l 1167 749 l 1167 676 l 1167 651 l 1167 564 l 1167 514 q 1165 489 1167 493 q 1164 481 1164 488 q 1163 472 1164 474 q 1085 332 1146 390 q 940 258 1025 272 l 924 256 l 632 256 q 486 254 592 254 q 397 256 411 254 l 347 256 q 324 257 326 256 q 307 258 311 257 l 307 260 q 147 351 211 276 q 86 482 100 407 l 83 499 l 83 643 l 83 788 l 86 803 q 163 954 101 894 q 328 1032 229 1021 q 421 1033 383 1032 m 699 774 q 664 772 685 779 q 638 747 647 765 q 636 742 636 744 q 635 736 635 739 l 635 726 l 635 718 q 636 713 635 714 l 638 707 q 660 685 647 690 q 690 679 674 676 q 725 703 714 683 q 729 744 736 722 q 717 763 725 754 q 699 774 706 771 m 854 728 l 854 776 l 842 776 l 829 776 l 829 754 l 828 733 l 815 754 l 801 775 l 789 775 l 775 775 l 775 726 l 775 679 l 789 679 l 803 679 l 803 700 l 803 722 l 817 701 l 831 679 l 843 679 l 854 679 l 854 728 m 222 775 l 215 775 l 200 775 l 179 775 l 179 726 l 179 679 l 192 679 l 206 679 l 206 694 l 206 710 l 215 711 q 225 713 224 711 l 231 714 q 249 744 251 724 q 228 774 247 765 l 222 775 m 353 763 l 353 775 l 322 775 l 290 775 l 290 726 l 290 679 l 322 679 l 353 679 l 353 692 l 353 704 l 335 704 l 318 704 l 318 708 l 318 714 l 333 714 l 349 714 l 349 726 l 349 739 l 333 739 l 318 739 l 318 744 l 318 749 l 335 749 l 353 749 l 353 763 m 449 775 l 424 775 l 400 775 l 400 728 l 400 679 l 413 679 l 426 679 l 426 694 l 426 707 l 428 710 l 432 706 l 433 701 q 439 694 436 697 l 449 679 l 464 679 l 475 679 l 479 679 l 476 685 l 468 697 l 457 714 l 461 718 q 465 724 464 721 l 468 728 q 471 733 471 731 l 471 742 l 471 751 q 469 756 471 754 q 454 771 464 765 l 449 775 m 567 774 q 553 775 564 775 q 538 772 549 775 q 515 749 517 765 q 517 738 515 739 q 521 729 517 733 q 549 717 528 721 l 554 717 l 558 715 l 561 714 l 565 710 l 565 708 l 564 706 q 553 704 556 703 q 543 708 544 704 l 540 711 l 533 710 l 532 710 q 526 708 529 708 q 521 707 525 707 l 515 704 l 517 697 q 542 679 522 683 q 576 683 558 675 q 592 711 594 692 q 558 739 592 733 q 551 740 556 740 q 544 749 540 744 q 553 751 547 751 q 561 747 558 751 l 564 744 l 578 747 q 585 749 579 749 q 589 750 588 749 l 590 751 l 589 753 q 582 765 588 760 q 567 774 575 772 m 954 775 l 939 775 l 925 775 l 910 728 q 900 694 910 726 q 894 679 897 688 l 899 679 l 908 679 l 922 679 l 924 685 l 925 690 l 940 689 l 954 689 l 956 683 l 957 679 l 971 679 l 982 679 l 985 681 l 982 688 q 971 722 976 706 q 963 749 969 731 q 960 754 961 750 q 960 760 960 758 l 957 767 l 957 768 l 954 775 m 1050 740 l 1050 775 l 1038 775 l 1024 775 l 1024 726 l 1024 679 l 1051 679 l 1079 679 l 1079 692 l 1079 704 l 1065 704 l 1050 704 l 1050 740 m 685 607 q 643 596 663 611 q 628 553 624 576 q 654 515 631 529 q 657 514 656 514 q 661 513 660 513 l 667 511 l 676 511 l 686 511 q 692 513 689 511 l 697 515 q 711 525 703 517 q 721 538 718 532 q 725 568 728 553 q 710 594 721 583 q 685 607 700 606 m 849 560 l 849 608 l 835 608 q 822 607 824 608 l 821 600 l 821 586 l 821 567 l 808 586 l 794 607 l 782 607 l 769 607 l 769 558 l 769 511 l 783 511 l 796 511 l 796 532 l 797 554 l 811 532 l 824 511 l 836 511 l 849 511 l 849 560 m 231 607 l 217 607 l 204 607 l 204 572 l 204 538 l 208 532 q 217 521 211 525 q 229 513 222 514 q 243 511 232 511 q 258 513 256 511 q 272 522 264 514 q 279 535 278 528 l 282 539 l 282 542 l 282 551 l 282 574 l 282 607 l 269 607 l 256 607 l 256 578 l 256 554 l 254 543 l 251 540 l 250 538 q 243 536 249 536 l 235 539 l 232 544 q 231 554 231 549 l 231 578 l 231 607 m 381 606 q 367 607 378 607 q 350 606 353 607 q 340 600 343 603 q 332 592 333 596 l 329 588 q 328 581 328 585 l 329 569 q 335 561 331 565 q 346 554 338 557 q 350 553 349 554 q 353 551 351 551 q 357 550 356 550 q 363 549 358 549 q 378 542 378 546 q 374 536 378 539 q 364 536 368 535 q 356 540 358 536 l 353 543 l 340 540 q 332 539 338 539 q 326 538 331 538 l 328 535 l 331 529 q 332 525 331 526 l 333 522 q 363 511 344 511 q 400 525 389 510 l 401 528 l 404 531 l 404 536 q 375 571 407 564 q 358 576 361 574 q 357 582 356 579 l 361 583 l 365 583 l 371 583 l 374 579 l 376 576 l 389 579 q 394 581 392 579 l 399 582 l 401 582 l 403 585 l 400 589 q 381 606 393 601 m 511 594 l 511 607 l 481 607 l 449 607 l 449 558 l 449 511 l 481 511 l 511 511 l 511 524 l 511 536 l 493 536 l 476 536 l 476 542 l 476 546 l 492 546 l 507 546 l 507 558 l 507 571 l 492 571 l 476 571 l 476 576 l 476 582 l 493 582 l 511 582 l 511 594 m 922 572 l 922 607 l 910 607 l 896 607 l 896 558 l 896 511 l 924 511 l 951 511 l 951 524 l 951 536 l 936 536 l 922 536 l 922 572 m 994 607 l 979 607 l 963 607 l 965 604 l 967 603 l 969 599 l 971 594 q 974 590 972 593 q 976 586 975 588 q 979 581 978 583 q 982 576 981 578 l 996 551 l 996 531 l 996 511 l 1008 511 l 1022 511 l 1022 531 l 1022 551 l 1036 576 q 1049 596 1039 582 l 1053 604 l 1054 607 l 1039 607 l 1024 607 l 1017 594 q 1013 586 1014 589 l 1008 582 l 1007 586 q 1001 594 1004 589 l 994 607 m 674 749 q 699 743 688 754 q 703 717 710 732 q 681 704 694 703 q 661 721 667 707 q 664 738 660 726 q 674 749 665 743 m 206 742 l 206 749 l 213 749 l 219 749 l 221 743 q 219 738 221 739 l 213 735 l 206 735 l 206 742 m 426 742 l 426 749 l 435 749 l 443 749 l 444 742 q 433 735 444 735 l 426 735 l 426 742 m 939 736 l 940 738 l 942 732 q 943 726 943 729 l 947 714 l 940 714 l 933 714 l 933 718 l 935 721 q 936 728 935 726 l 938 729 l 939 736 m 656 567 q 667 581 657 576 q 686 581 676 585 q 697 565 694 575 q 693 544 700 553 q 675 536 686 536 q 657 547 664 536 q 656 567 651 557 m 194 169 q 213 171 208 172 q 220 167 215 169 q 226 165 225 165 l 232 161 l 233 158 l 235 156 q 236 151 236 153 l 232 150 l 229 151 l 226 154 q 210 164 218 163 q 190 156 197 164 q 183 135 182 149 q 193 115 185 121 q 214 113 199 110 q 225 121 221 115 q 229 129 229 125 l 229 132 l 219 132 l 210 132 l 210 136 l 210 140 l 224 140 l 236 140 l 236 122 l 236 106 l 233 106 l 229 107 l 232 114 q 233 118 233 117 l 232 118 l 231 117 l 228 114 q 207 104 222 104 q 179 121 189 104 q 178 125 178 124 l 176 129 l 176 138 l 176 146 q 178 150 176 149 l 179 154 q 194 169 186 167 m 461 171 l 468 171 l 468 167 l 468 163 l 463 163 l 457 163 l 454 160 l 454 157 l 453 153 l 453 150 l 458 150 l 464 150 l 464 146 l 464 142 l 457 142 l 451 142 l 447 140 l 449 140 l 450 138 l 453 135 l 453 131 l 453 119 l 453 106 l 449 106 l 444 106 l 444 124 l 444 142 l 442 142 l 440 143 l 439 146 q 440 150 439 149 l 442 150 l 444 151 l 444 154 q 451 168 444 161 q 461 171 454 171 m 565 138 l 565 171 l 569 171 l 574 171 l 574 138 l 574 106 l 569 106 l 565 106 l 565 138 m 604 138 l 604 171 l 608 171 l 613 171 l 613 138 l 613 106 l 608 106 l 604 106 l 604 138 m 713 171 l 719 171 l 719 167 l 719 163 l 714 163 l 710 163 l 707 160 l 706 157 l 704 153 l 704 150 l 710 150 l 717 150 l 717 146 l 717 142 l 708 142 l 703 142 l 700 140 l 701 138 l 704 135 l 704 131 l 704 119 l 704 106 l 700 106 l 696 106 l 696 124 l 696 142 l 694 142 l 692 143 l 692 146 l 692 150 l 694 150 l 696 151 l 696 154 q 704 168 696 161 q 713 171 707 171 m 342 161 l 346 161 l 350 161 l 350 156 l 350 150 l 356 150 l 360 150 l 360 146 l 360 142 l 353 142 q 347 138 342 142 l 349 136 l 350 133 l 350 125 l 350 114 l 356 113 l 361 113 l 361 108 l 361 106 l 354 106 l 349 106 l 344 108 l 342 111 l 342 126 l 342 142 l 339 142 l 336 143 l 335 146 q 336 150 335 149 l 339 150 l 342 150 l 342 151 l 342 156 l 342 161 m 883 161 l 888 161 l 890 161 l 890 156 l 890 150 l 896 150 l 901 150 l 901 146 l 901 142 l 894 142 l 888 142 l 886 140 l 888 140 l 889 138 l 890 138 l 890 135 l 890 128 l 892 115 q 897 113 894 113 l 901 113 l 903 113 l 903 108 l 903 106 l 897 106 l 892 106 l 888 108 l 883 111 l 883 126 l 883 142 l 881 142 l 879 143 l 878 146 q 879 150 878 149 l 881 150 l 883 150 l 883 151 l 883 156 l 883 161 m 1050 161 l 1054 161 l 1058 161 l 1058 156 l 1058 150 l 1063 150 l 1068 150 l 1068 146 l 1068 142 l 1061 142 l 1056 142 l 1053 140 l 1054 140 l 1056 138 l 1057 138 l 1058 135 l 1058 128 l 1060 115 q 1065 113 1060 113 l 1068 113 l 1069 113 l 1069 108 l 1069 106 l 1064 106 l 1058 106 l 1054 108 l 1050 111 l 1050 126 l 1050 142 l 1047 142 l 1046 143 l 1044 146 q 1046 150 1044 149 l 1047 150 l 1050 150 l 1050 151 l 1050 156 l 1050 161 m 282 149 q 301 147 293 153 q 311 129 310 139 l 311 125 l 293 125 l 281 125 l 276 122 l 278 118 q 288 113 279 113 q 299 115 292 111 q 304 119 301 118 l 308 119 l 310 118 l 307 114 l 301 108 q 297 106 299 107 q 286 106 292 104 q 276 107 278 106 q 268 129 267 115 q 282 149 269 143 m 297 140 l 288 143 q 278 136 281 140 l 278 133 l 276 132 l 281 132 q 289 131 285 131 q 297 132 296 131 l 301 132 l 303 135 l 300 138 l 297 140 m 754 149 q 763 150 756 150 q 771 149 769 150 q 783 126 783 142 q 781 114 783 125 q 769 106 776 108 q 758 104 760 103 q 747 110 751 106 q 742 121 743 114 q 740 135 739 131 q 746 143 742 139 q 754 149 750 147 m 769 140 q 751 139 758 147 q 750 118 744 128 q 760 113 751 113 q 771 114 763 111 q 775 128 775 121 q 769 140 775 136 m 828 149 q 840 150 838 151 q 849 142 847 147 l 850 136 l 850 122 l 850 106 l 847 106 l 843 106 l 843 121 l 843 132 l 843 138 l 840 140 l 836 143 l 828 140 q 824 135 824 139 l 824 132 q 822 126 822 128 q 821 119 821 124 l 821 106 l 817 106 l 814 106 l 814 128 l 814 150 l 818 150 l 821 149 l 819 144 l 818 142 l 817 139 l 817 136 l 818 139 l 819 142 q 824 146 822 144 l 828 149 m 997 150 l 1001 150 q 1015 144 1011 150 q 1018 126 1018 133 l 1018 119 l 1018 115 l 1019 114 l 1022 111 l 1022 107 l 1019 106 q 1013 113 1015 106 l 1010 117 l 1010 114 q 1006 107 1007 108 q 996 104 1003 104 q 985 108 989 104 q 982 118 981 113 q 989 128 982 124 l 994 131 q 1001 132 1000 131 l 1007 133 l 1010 133 l 1010 135 l 1008 138 l 1004 142 q 996 143 1003 143 q 990 138 992 142 l 989 136 l 985 136 l 982 138 l 983 142 l 988 146 l 992 149 q 997 150 994 150 m 1008 126 l 1003 125 l 1001 125 q 997 124 999 125 l 994 122 l 992 121 l 990 119 l 989 117 q 997 111 989 111 q 1006 115 1001 111 q 1010 124 1010 119 l 1008 126 m 493 150 l 497 150 l 501 150 l 501 133 l 501 122 q 503 117 501 118 l 503 114 q 513 113 510 111 q 521 118 517 114 q 522 125 522 121 l 522 136 l 524 150 l 526 150 l 531 150 l 531 132 l 531 124 l 531 118 l 532 115 l 533 114 l 535 111 l 535 107 l 533 106 q 528 108 531 106 l 526 111 q 524 114 525 114 l 522 115 l 521 111 l 518 106 l 510 104 q 494 111 501 104 l 494 118 q 493 132 493 119 l 493 150 m 200 50 l 204 50 l 210 49 l 210 44 l 210 40 l 204 40 l 199 40 l 194 38 q 193 33 193 35 l 192 29 l 192 25 l 197 25 l 204 25 l 204 19 l 204 15 l 194 15 l 188 15 l 185 14 l 186 14 l 188 11 l 192 8 l 192 -10 l 192 -28 l 186 -28 l 182 -28 l 182 -7 l 182 15 l 178 15 l 176 15 l 175 17 l 175 19 q 176 24 175 22 l 178 25 l 181 25 l 182 26 l 182 31 q 196 49 183 46 l 200 50 m 575 50 l 579 50 l 585 50 l 585 17 l 585 1 l 585 -10 q 586 -15 585 -14 l 586 -17 l 589 -18 l 590 -19 l 590 -24 l 590 -26 l 589 -28 l 585 -26 q 582 -24 583 -25 q 579 -22 581 -22 l 576 -19 l 572 -24 q 549 -28 561 -32 q 536 -11 539 -22 q 538 10 533 0 q 550 24 539 19 l 554 26 l 557 26 q 567 24 561 25 q 575 17 574 21 l 581 13 q 578 18 579 14 l 576 22 l 576 28 q 575 36 575 32 l 575 50 m 568 13 q 561 17 565 15 q 551 14 560 17 q 544 -4 544 7 l 546 -7 l 547 -10 l 547 -14 q 557 -19 550 -17 q 568 -17 561 -21 q 575 -1 575 -10 q 568 13 575 6 m 626 44 l 626 50 l 631 50 l 635 49 l 636 44 l 636 39 l 631 39 l 626 39 l 626 44 m 397 32 l 397 39 l 401 39 l 407 39 l 407 32 l 407 25 l 413 25 l 419 25 l 419 19 l 419 15 l 410 15 l 404 15 l 401 14 l 403 13 l 403 11 l 404 11 l 406 10 l 407 7 l 407 -4 q 408 -17 407 -12 l 411 -18 l 415 -18 l 419 -18 l 419 -24 l 419 -28 l 414 -28 l 404 -26 l 400 -22 q 399 -14 399 -18 q 397 -1 397 -12 l 397 15 l 394 15 l 393 15 l 392 17 l 390 19 q 392 24 390 22 l 393 25 l 394 25 l 397 25 l 397 32 m 1051 32 l 1051 39 l 1056 39 l 1061 39 l 1061 32 l 1061 25 l 1067 25 l 1072 25 l 1072 19 l 1072 15 l 1064 15 l 1056 15 l 1058 11 l 1060 8 l 1061 4 l 1061 -4 l 1061 -18 l 1068 -18 l 1074 -18 l 1074 -24 l 1074 -29 l 1067 -28 q 1060 -26 1061 -28 l 1056 -24 l 1051 -21 l 1051 -3 l 1051 15 l 1047 15 l 1046 15 l 1044 17 l 1044 19 l 1044 24 l 1046 25 l 1047 25 l 1051 25 l 1051 32 m 249 25 q 261 25 256 28 q 267 22 264 24 q 271 19 269 19 l 274 17 l 274 21 q 275 25 274 24 l 278 25 l 282 25 l 282 -7 l 282 -25 l 282 -35 l 282 -40 l 279 -43 l 278 -46 l 274 -49 l 271 -50 l 265 -51 l 254 -51 l 239 -51 l 239 -47 l 239 -43 l 251 -43 q 261 -42 260 -43 l 267 -42 q 274 -29 274 -37 l 275 -25 l 276 -22 l 278 -17 q 274 -19 275 -18 q 261 -28 267 -25 q 247 -28 254 -31 q 240 -21 243 -26 q 235 -12 236 -17 q 233 -1 233 -11 q 235 8 233 7 q 240 18 236 14 q 249 25 242 22 m 265 14 l 260 17 l 251 15 q 243 4 244 13 q 246 -14 242 -3 q 258 -19 253 -21 q 271 -11 264 -19 q 272 1 274 -1 q 265 14 271 8 m 336 25 l 342 25 q 358 15 354 25 l 361 10 l 356 8 l 350 10 q 347 15 350 13 q 340 17 346 17 q 331 13 333 17 q 332 7 329 10 l 338 6 l 342 4 l 344 3 l 358 -3 q 361 -12 361 -11 l 361 -17 l 358 -22 q 338 -29 350 -31 q 319 -18 326 -28 q 318 -11 318 -15 l 322 -10 l 328 -10 l 328 -12 l 329 -14 l 332 -17 l 335 -18 l 338 -19 l 342 -19 q 349 -18 346 -19 l 350 -17 l 353 -14 l 353 -12 q 338 -6 353 -10 q 333 -4 335 -6 l 331 -3 l 325 0 q 321 6 324 1 q 319 13 319 8 q 325 21 321 17 l 331 25 l 336 25 m 681 19 q 689 25 685 24 q 706 24 693 26 q 718 14 711 21 q 719 10 718 11 l 721 7 l 721 0 q 713 -24 724 -15 q 689 -28 701 -32 q 672 -10 676 -24 q 671 1 671 -7 q 674 11 671 3 l 675 14 q 681 19 678 17 m 703 15 q 693 15 697 17 q 683 10 685 13 q 682 6 683 8 q 681 1 681 3 l 681 -8 q 694 -19 685 -18 q 710 -12 703 -22 q 713 3 714 -6 q 703 15 710 10 m 768 24 q 786 24 778 28 l 793 19 l 796 14 l 797 13 l 797 10 l 793 8 q 789 10 790 8 l 788 11 q 781 15 786 13 q 771 15 775 17 q 765 10 765 14 l 767 8 l 772 6 q 783 1 776 3 q 789 0 786 1 l 793 -1 q 797 -8 796 -4 q 794 -24 800 -21 q 776 -29 789 -29 q 763 -24 768 -29 q 756 -12 756 -19 l 757 -10 l 760 -10 l 764 -10 l 765 -12 q 778 -19 768 -19 q 789 -14 788 -19 q 788 -10 789 -11 l 779 -7 q 776 -6 778 -7 q 772 -4 775 -6 q 765 -1 768 -3 l 758 3 l 757 7 l 757 11 q 768 24 757 21 m 907 25 l 910 26 q 921 22 914 26 q 928 13 925 19 l 929 6 l 929 -10 l 929 -28 l 924 -28 l 919 -28 l 919 -12 l 919 7 q 915 14 917 13 q 906 15 908 17 q 897 8 900 14 l 896 6 l 894 0 l 894 -11 l 893 -28 l 889 -28 l 885 -28 l 885 -1 l 885 25 l 889 25 l 893 25 l 894 22 l 893 21 l 892 18 q 889 13 889 15 l 889 11 l 892 15 q 901 22 896 19 l 907 25 m 983 25 q 996 25 989 28 q 1007 18 1004 22 q 1013 11 1011 14 q 1015 7 1014 8 l 1015 1 l 1015 -6 l 994 -6 l 983 -6 l 978 -6 l 975 -6 l 974 -7 q 976 -12 974 -10 l 982 -18 q 993 -19 989 -21 q 1003 -14 1000 -17 l 1004 -11 l 1008 -11 q 1014 -12 1013 -11 l 1011 -18 q 997 -28 1003 -25 q 981 -28 989 -31 q 964 -1 964 -22 q 983 25 965 19 m 994 17 l 990 17 l 983 15 l 981 13 l 978 11 q 975 6 975 8 l 974 3 l 989 3 l 1000 3 q 1004 4 1003 3 l 1004 6 l 1003 10 l 997 14 l 994 17 m 454 25 l 458 25 l 463 25 l 463 6 l 463 -6 q 464 -11 463 -10 l 464 -14 l 465 -17 q 476 -19 469 -22 q 485 -12 482 -18 l 488 -8 l 488 -3 l 488 8 l 489 25 l 493 25 l 497 25 l 497 6 l 497 -15 l 500 -17 l 503 -19 l 503 -24 l 501 -28 q 496 -25 499 -28 q 490 -19 492 -24 l 488 -17 l 486 -24 q 481 -28 485 -25 q 471 -29 479 -29 q 461 -26 469 -29 l 458 -24 l 456 -19 l 456 -15 q 454 -8 454 -12 l 454 6 l 454 25 m 626 -1 l 626 25 l 631 25 l 635 24 l 636 -1 l 636 -28 l 631 -28 l 626 -28 l 626 -1 m 839 -15 l 842 -15 l 847 -15 l 847 -22 l 847 -28 l 842 -28 l 835 -28 l 835 -22 q 836 -18 835 -19 l 836 -17 l 839 -15 z "},"3":{"ha":1250,"x_min":83,"x_max":1167,"o":"m 421 1033 l 631 1033 l 926 1033 l 942 1031 q 1063 978 1006 1018 q 1085 957 1078 963 q 1107 932 1100 942 q 1160 826 1146 885 q 1161 822 1161 824 q 1163 815 1161 818 q 1164 807 1163 808 q 1165 803 1165 806 q 1167 797 1167 799 l 1167 788 l 1167 749 l 1167 676 l 1167 651 l 1167 564 l 1167 514 q 1165 489 1167 493 q 1164 481 1164 488 q 1163 472 1164 474 q 1085 332 1146 390 q 940 258 1025 272 l 924 256 l 632 256 q 486 254 592 254 q 397 256 411 254 l 347 256 q 324 257 326 256 q 307 258 311 257 l 307 260 q 147 351 211 276 q 86 482 100 407 l 83 499 l 83 643 l 83 788 l 86 803 q 163 954 101 894 q 328 1032 229 1021 q 421 1033 383 1032 m 699 774 q 664 772 685 779 q 638 747 647 765 q 636 742 636 744 q 635 736 635 739 l 635 726 l 635 718 q 636 713 635 714 l 638 707 q 660 685 647 690 q 690 679 674 676 q 725 703 714 683 q 729 744 736 722 q 717 763 725 754 q 699 774 706 771 m 854 728 l 854 776 l 842 776 l 829 776 l 829 754 l 828 733 l 815 754 l 801 775 l 789 775 l 775 775 l 775 726 l 775 679 l 789 679 l 803 679 l 803 700 l 803 722 l 817 701 l 831 679 l 843 679 l 854 679 l 854 728 m 222 775 l 215 775 l 200 775 l 179 775 l 179 726 l 179 679 l 192 679 l 206 679 l 206 694 l 206 710 l 215 711 q 225 713 224 711 l 231 714 q 249 744 251 724 q 228 774 247 765 l 222 775 m 353 763 l 353 775 l 322 775 l 290 775 l 290 726 l 290 679 l 322 679 l 353 679 l 353 692 l 353 704 l 335 704 l 318 704 l 318 708 l 318 714 l 333 714 l 349 714 l 349 726 l 349 739 l 333 739 l 318 739 l 318 744 l 318 749 l 335 749 l 353 749 l 353 763 m 449 775 l 424 775 l 400 775 l 400 728 l 400 679 l 413 679 l 426 679 l 426 694 l 426 707 l 428 710 l 432 706 l 433 701 q 439 694 436 697 l 449 679 l 464 679 l 475 679 l 479 679 l 476 685 l 468 697 l 457 714 l 461 718 q 465 724 464 721 l 468 728 q 471 733 471 731 l 471 742 l 471 751 q 469 756 471 754 q 454 771 464 765 l 449 775 m 567 774 q 553 775 564 775 q 538 772 549 775 q 515 749 517 765 q 517 738 515 739 q 521 729 517 733 q 549 717 528 721 l 554 717 l 558 715 l 561 714 l 565 710 l 565 708 l 564 706 q 553 704 556 703 q 543 708 544 704 l 540 711 l 533 710 l 532 710 q 526 708 529 708 q 521 707 525 707 l 515 704 l 517 697 q 542 679 522 683 q 576 683 558 675 q 592 711 594 692 q 558 739 592 733 q 551 740 556 740 q 544 749 540 744 q 553 751 547 751 q 561 747 558 751 l 564 744 l 578 747 q 585 749 579 749 q 589 750 588 749 l 590 751 l 589 753 q 582 765 588 760 q 567 774 575 772 m 954 775 l 939 775 l 925 775 l 910 728 q 900 694 910 726 q 894 679 897 688 l 899 679 l 908 679 l 922 679 l 924 685 l 925 690 l 940 689 l 954 689 l 956 683 l 957 679 l 971 679 l 982 679 l 985 681 l 982 688 q 971 722 976 706 q 963 749 969 731 q 960 754 961 750 q 960 760 960 758 l 957 767 l 957 768 l 954 775 m 1050 740 l 1050 775 l 1038 775 l 1024 775 l 1024 726 l 1024 679 l 1051 679 l 1079 679 l 1079 692 l 1079 704 l 1065 704 l 1050 704 l 1050 740 m 685 607 q 643 596 663 611 q 628 553 624 576 q 654 515 631 529 q 657 514 656 514 q 661 513 660 513 l 667 511 l 676 511 l 686 511 q 692 513 689 511 l 697 515 q 711 525 703 517 q 721 538 718 532 q 725 568 728 553 q 710 594 721 583 q 685 607 700 606 m 849 560 l 849 608 l 835 608 q 822 607 824 608 l 821 600 l 821 586 l 821 567 l 808 586 l 794 607 l 782 607 l 769 607 l 769 558 l 769 511 l 783 511 l 796 511 l 796 532 l 797 554 l 811 532 l 824 511 l 836 511 l 849 511 l 849 560 m 231 607 l 217 607 l 204 607 l 204 572 l 204 538 l 208 532 q 217 521 211 525 q 229 513 222 514 q 243 511 232 511 q 258 513 256 511 q 272 522 264 514 q 279 535 278 528 l 282 539 l 282 542 l 282 551 l 282 574 l 282 607 l 269 607 l 256 607 l 256 578 l 256 554 l 254 543 l 251 540 l 250 538 q 243 536 249 536 l 235 539 l 232 544 q 231 554 231 549 l 231 578 l 231 607 m 381 606 q 367 607 378 607 q 350 606 353 607 q 340 600 343 603 q 332 592 333 596 l 329 588 q 328 581 328 585 l 329 569 q 335 561 331 565 q 346 554 338 557 q 350 553 349 554 q 353 551 351 551 q 357 550 356 550 q 363 549 358 549 q 378 542 378 546 q 374 536 378 539 q 364 536 368 535 q 356 540 358 536 l 353 543 l 340 540 q 332 539 338 539 q 326 538 331 538 l 328 535 l 331 529 q 332 525 331 526 l 333 522 q 363 511 344 511 q 400 525 389 510 l 401 528 l 404 531 l 404 536 q 375 571 407 564 q 358 576 361 574 q 357 582 356 579 l 361 583 l 365 583 l 371 583 l 374 579 l 376 576 l 389 579 q 394 581 392 579 l 399 582 l 401 582 l 403 585 l 400 589 q 381 606 393 601 m 511 594 l 511 607 l 481 607 l 449 607 l 449 558 l 449 511 l 481 511 l 511 511 l 511 524 l 511 536 l 493 536 l 476 536 l 476 542 l 476 546 l 492 546 l 507 546 l 507 558 l 507 571 l 492 571 l 476 571 l 476 576 l 476 582 l 493 582 l 511 582 l 511 594 m 922 572 l 922 607 l 910 607 l 896 607 l 896 558 l 896 511 l 924 511 l 951 511 l 951 524 l 951 536 l 936 536 l 922 536 l 922 572 m 994 607 l 979 607 l 963 607 l 965 604 l 967 603 l 969 599 l 971 594 q 974 590 972 593 q 976 586 975 588 q 979 581 978 583 q 982 576 981 578 l 996 551 l 996 531 l 996 511 l 1008 511 l 1022 511 l 1022 531 l 1022 551 l 1036 576 q 1049 596 1039 582 l 1053 604 l 1054 607 l 1039 607 l 1024 607 l 1017 594 q 1013 586 1014 589 l 1008 582 l 1007 586 q 1001 594 1004 589 l 994 607 m 674 749 q 699 743 688 754 q 703 717 710 732 q 681 704 694 703 q 661 721 667 707 q 664 738 660 726 q 674 749 665 743 m 206 742 l 206 749 l 213 749 l 219 749 l 221 743 q 219 738 221 739 l 213 735 l 206 735 l 206 742 m 426 742 l 426 749 l 435 749 l 443 749 l 444 742 q 433 735 444 735 l 426 735 l 426 742 m 939 736 l 940 738 l 942 732 q 943 726 943 729 l 947 714 l 940 714 l 933 714 l 933 718 l 935 721 q 936 728 935 726 l 938 729 l 939 736 m 656 567 q 667 581 657 576 q 686 581 676 585 q 697 565 694 575 q 693 544 700 553 q 675 536 686 536 q 657 547 664 536 q 656 567 651 557 m 194 169 q 213 171 208 172 q 220 167 215 169 q 226 165 225 165 l 232 161 l 233 158 l 235 156 q 236 151 236 153 l 232 150 l 229 151 l 226 154 q 210 164 218 163 q 190 156 197 164 q 183 135 182 149 q 193 115 185 121 q 214 113 199 110 q 225 121 221 115 q 229 129 229 125 l 229 132 l 219 132 l 210 132 l 210 136 l 210 140 l 224 140 l 236 140 l 236 122 l 236 106 l 233 106 l 229 107 l 232 114 q 233 118 233 117 l 232 118 l 231 117 l 228 114 q 207 104 222 104 q 179 121 189 104 q 178 125 178 124 l 176 129 l 176 138 l 176 146 q 178 150 176 149 l 179 154 q 194 169 186 167 m 461 171 l 468 171 l 468 167 l 468 163 l 463 163 l 457 163 l 454 160 l 454 157 l 453 153 l 453 150 l 458 150 l 464 150 l 464 146 l 464 142 l 457 142 l 451 142 l 447 140 l 449 140 l 450 138 l 453 135 l 453 131 l 453 119 l 453 106 l 449 106 l 444 106 l 444 124 l 444 142 l 442 142 l 440 143 l 439 146 q 440 150 439 149 l 442 150 l 444 151 l 444 154 q 451 168 444 161 q 461 171 454 171 m 565 138 l 565 171 l 569 171 l 574 171 l 574 138 l 574 106 l 569 106 l 565 106 l 565 138 m 604 138 l 604 171 l 608 171 l 613 171 l 613 138 l 613 106 l 608 106 l 604 106 l 604 138 m 713 171 l 719 171 l 719 167 l 719 163 l 714 163 l 710 163 l 707 160 l 706 157 l 704 153 l 704 150 l 710 150 l 717 150 l 717 146 l 717 142 l 708 142 l 703 142 l 700 140 l 701 138 l 704 135 l 704 131 l 704 119 l 704 106 l 700 106 l 696 106 l 696 124 l 696 142 l 694 142 l 692 143 l 692 146 l 692 150 l 694 150 l 696 151 l 696 154 q 704 168 696 161 q 713 171 707 171 m 342 161 l 346 161 l 350 161 l 350 156 l 350 150 l 356 150 l 360 150 l 360 146 l 360 142 l 353 142 q 347 138 342 142 l 349 136 l 350 133 l 350 125 l 350 114 l 356 113 l 361 113 l 361 108 l 361 106 l 354 106 l 349 106 l 344 108 l 342 111 l 342 126 l 342 142 l 339 142 l 336 143 l 335 146 q 336 150 335 149 l 339 150 l 342 150 l 342 151 l 342 156 l 342 161 m 883 161 l 888 161 l 890 161 l 890 156 l 890 150 l 896 150 l 901 150 l 901 146 l 901 142 l 894 142 l 888 142 l 886 140 l 888 140 l 889 138 l 890 138 l 890 135 l 890 128 l 892 115 q 897 113 894 113 l 901 113 l 903 113 l 903 108 l 903 106 l 897 106 l 892 106 l 888 108 l 883 111 l 883 126 l 883 142 l 881 142 l 879 143 l 878 146 q 879 150 878 149 l 881 150 l 883 150 l 883 151 l 883 156 l 883 161 m 1050 161 l 1054 161 l 1058 161 l 1058 156 l 1058 150 l 1063 150 l 1068 150 l 1068 146 l 1068 142 l 1061 142 l 1056 142 l 1053 140 l 1054 140 l 1056 138 l 1057 138 l 1058 135 l 1058 128 l 1060 115 q 1065 113 1060 113 l 1068 113 l 1069 113 l 1069 108 l 1069 106 l 1064 106 l 1058 106 l 1054 108 l 1050 111 l 1050 126 l 1050 142 l 1047 142 l 1046 143 l 1044 146 q 1046 150 1044 149 l 1047 150 l 1050 150 l 1050 151 l 1050 156 l 1050 161 m 282 149 q 301 147 293 153 q 311 129 310 139 l 311 125 l 293 125 l 281 125 l 276 122 l 278 118 q 288 113 279 113 q 299 115 292 111 q 304 119 301 118 l 308 119 l 310 118 l 307 114 l 301 108 q 297 106 299 107 q 286 106 292 104 q 276 107 278 106 q 268 129 267 115 q 282 149 269 143 m 297 140 l 288 143 q 278 136 281 140 l 278 133 l 276 132 l 281 132 q 289 131 285 131 q 297 132 296 131 l 301 132 l 303 135 l 300 138 l 297 140 m 754 149 q 763 150 756 150 q 771 149 769 150 q 783 126 783 142 q 781 114 783 125 q 769 106 776 108 q 758 104 760 103 q 747 110 751 106 q 742 121 743 114 q 740 135 739 131 q 746 143 742 139 q 754 149 750 147 m 769 140 q 751 139 758 147 q 750 118 744 128 q 760 113 751 113 q 771 114 763 111 q 775 128 775 121 q 769 140 775 136 m 828 149 q 840 150 838 151 q 849 142 847 147 l 850 136 l 850 122 l 850 106 l 847 106 l 843 106 l 843 121 l 843 132 l 843 138 l 840 140 l 836 143 l 828 140 q 824 135 824 139 l 824 132 q 822 126 822 128 q 821 119 821 124 l 821 106 l 817 106 l 814 106 l 814 128 l 814 150 l 818 150 l 821 149 l 819 144 l 818 142 l 817 139 l 817 136 l 818 139 l 819 142 q 824 146 822 144 l 828 149 m 997 150 l 1001 150 q 1015 144 1011 150 q 1018 126 1018 133 l 1018 119 l 1018 115 l 1019 114 l 1022 111 l 1022 107 l 1019 106 q 1013 113 1015 106 l 1010 117 l 1010 114 q 1006 107 1007 108 q 996 104 1003 104 q 985 108 989 104 q 982 118 981 113 q 989 128 982 124 l 994 131 q 1001 132 1000 131 l 1007 133 l 1010 133 l 1010 135 l 1008 138 l 1004 142 q 996 143 1003 143 q 990 138 992 142 l 989 136 l 985 136 l 982 138 l 983 142 l 988 146 l 992 149 q 997 150 994 150 m 1008 126 l 1003 125 l 1001 125 q 997 124 999 125 l 994 122 l 992 121 l 990 119 l 989 117 q 997 111 989 111 q 1006 115 1001 111 q 1010 124 1010 119 l 1008 126 m 493 150 l 497 150 l 501 150 l 501 133 l 501 122 q 503 117 501 118 l 503 114 q 513 113 510 111 q 521 118 517 114 q 522 125 522 121 l 522 136 l 524 150 l 526 150 l 531 150 l 531 132 l 531 124 l 531 118 l 532 115 l 533 114 l 535 111 l 535 107 l 533 106 q 528 108 531 106 l 526 111 q 524 114 525 114 l 522 115 l 521 111 l 518 106 l 510 104 q 494 111 501 104 l 494 118 q 493 132 493 119 l 493 150 m 200 50 l 204 50 l 210 49 l 210 44 l 210 40 l 204 40 l 199 40 l 194 38 q 193 33 193 35 l 192 29 l 192 25 l 197 25 l 204 25 l 204 19 l 204 15 l 194 15 l 188 15 l 185 14 l 186 14 l 188 11 l 192 8 l 192 -10 l 192 -28 l 186 -28 l 182 -28 l 182 -7 l 182 15 l 178 15 l 176 15 l 175 17 l 175 19 q 176 24 175 22 l 178 25 l 181 25 l 182 26 l 182 31 q 196 49 183 46 l 200 50 m 575 50 l 579 50 l 585 50 l 585 17 l 585 1 l 585 -10 q 586 -15 585 -14 l 586 -17 l 589 -18 l 590 -19 l 590 -24 l 590 -26 l 589 -28 l 585 -26 q 582 -24 583 -25 q 579 -22 581 -22 l 576 -19 l 572 -24 q 549 -28 561 -32 q 536 -11 539 -22 q 538 10 533 0 q 550 24 539 19 l 554 26 l 557 26 q 567 24 561 25 q 575 17 574 21 l 581 13 q 578 18 579 14 l 576 22 l 576 28 q 575 36 575 32 l 575 50 m 568 13 q 561 17 565 15 q 551 14 560 17 q 544 -4 544 7 l 546 -7 l 547 -10 l 547 -14 q 557 -19 550 -17 q 568 -17 561 -21 q 575 -1 575 -10 q 568 13 575 6 m 626 44 l 626 50 l 631 50 l 635 49 l 636 44 l 636 39 l 631 39 l 626 39 l 626 44 m 397 32 l 397 39 l 401 39 l 407 39 l 407 32 l 407 25 l 413 25 l 419 25 l 419 19 l 419 15 l 410 15 l 404 15 l 401 14 l 403 13 l 403 11 l 404 11 l 406 10 l 407 7 l 407 -4 q 408 -17 407 -12 l 411 -18 l 415 -18 l 419 -18 l 419 -24 l 419 -28 l 414 -28 l 404 -26 l 400 -22 q 399 -14 399 -18 q 397 -1 397 -12 l 397 15 l 394 15 l 393 15 l 392 17 l 390 19 q 392 24 390 22 l 393 25 l 394 25 l 397 25 l 397 32 m 1051 32 l 1051 39 l 1056 39 l 1061 39 l 1061 32 l 1061 25 l 1067 25 l 1072 25 l 1072 19 l 1072 15 l 1064 15 l 1056 15 l 1058 11 l 1060 8 l 1061 4 l 1061 -4 l 1061 -18 l 1068 -18 l 1074 -18 l 1074 -24 l 1074 -29 l 1067 -28 q 1060 -26 1061 -28 l 1056 -24 l 1051 -21 l 1051 -3 l 1051 15 l 1047 15 l 1046 15 l 1044 17 l 1044 19 l 1044 24 l 1046 25 l 1047 25 l 1051 25 l 1051 32 m 249 25 q 261 25 256 28 q 267 22 264 24 q 271 19 269 19 l 274 17 l 274 21 q 275 25 274 24 l 278 25 l 282 25 l 282 -7 l 282 -25 l 282 -35 l 282 -40 l 279 -43 l 278 -46 l 274 -49 l 271 -50 l 265 -51 l 254 -51 l 239 -51 l 239 -47 l 239 -43 l 251 -43 q 261 -42 260 -43 l 267 -42 q 274 -29 274 -37 l 275 -25 l 276 -22 l 278 -17 q 274 -19 275 -18 q 261 -28 267 -25 q 247 -28 254 -31 q 240 -21 243 -26 q 235 -12 236 -17 q 233 -1 233 -11 q 235 8 233 7 q 240 18 236 14 q 249 25 242 22 m 265 14 l 260 17 l 251 15 q 243 4 244 13 q 246 -14 242 -3 q 258 -19 253 -21 q 271 -11 264 -19 q 272 1 274 -1 q 265 14 271 8 m 336 25 l 342 25 q 358 15 354 25 l 361 10 l 356 8 l 350 10 q 347 15 350 13 q 340 17 346 17 q 331 13 333 17 q 332 7 329 10 l 338 6 l 342 4 l 344 3 l 358 -3 q 361 -12 361 -11 l 361 -17 l 358 -22 q 338 -29 350 -31 q 319 -18 326 -28 q 318 -11 318 -15 l 322 -10 l 328 -10 l 328 -12 l 329 -14 l 332 -17 l 335 -18 l 338 -19 l 342 -19 q 349 -18 346 -19 l 350 -17 l 353 -14 l 353 -12 q 338 -6 353 -10 q 333 -4 335 -6 l 331 -3 l 325 0 q 321 6 324 1 q 319 13 319 8 q 325 21 321 17 l 331 25 l 336 25 m 681 19 q 689 25 685 24 q 706 24 693 26 q 718 14 711 21 q 719 10 718 11 l 721 7 l 721 0 q 713 -24 724 -15 q 689 -28 701 -32 q 672 -10 676 -24 q 671 1 671 -7 q 674 11 671 3 l 675 14 q 681 19 678 17 m 703 15 q 693 15 697 17 q 683 10 685 13 q 682 6 683 8 q 681 1 681 3 l 681 -8 q 694 -19 685 -18 q 710 -12 703 -22 q 713 3 714 -6 q 703 15 710 10 m 768 24 q 786 24 778 28 l 793 19 l 796 14 l 797 13 l 797 10 l 793 8 q 789 10 790 8 l 788 11 q 781 15 786 13 q 771 15 775 17 q 765 10 765 14 l 767 8 l 772 6 q 783 1 776 3 q 789 0 786 1 l 793 -1 q 797 -8 796 -4 q 794 -24 800 -21 q 776 -29 789 -29 q 763 -24 768 -29 q 756 -12 756 -19 l 757 -10 l 760 -10 l 764 -10 l 765 -12 q 778 -19 768 -19 q 789 -14 788 -19 q 788 -10 789 -11 l 779 -7 q 776 -6 778 -7 q 772 -4 775 -6 q 765 -1 768 -3 l 758 3 l 757 7 l 757 11 q 768 24 757 21 m 907 25 l 910 26 q 921 22 914 26 q 928 13 925 19 l 929 6 l 929 -10 l 929 -28 l 924 -28 l 919 -28 l 919 -12 l 919 7 q 915 14 917 13 q 906 15 908 17 q 897 8 900 14 l 896 6 l 894 0 l 894 -11 l 893 -28 l 889 -28 l 885 -28 l 885 -1 l 885 25 l 889 25 l 893 25 l 894 22 l 893 21 l 892 18 q 889 13 889 15 l 889 11 l 892 15 q 901 22 896 19 l 907 25 m 983 25 q 996 25 989 28 q 1007 18 1004 22 q 1013 11 1011 14 q 1015 7 1014 8 l 1015 1 l 1015 -6 l 994 -6 l 983 -6 l 978 -6 l 975 -6 l 974 -7 q 976 -12 974 -10 l 982 -18 q 993 -19 989 -21 q 1003 -14 1000 -17 l 1004 -11 l 1008 -11 q 1014 -12 1013 -11 l 1011 -18 q 997 -28 1003 -25 q 981 -28 989 -31 q 964 -1 964 -22 q 983 25 965 19 m 994 17 l 990 17 l 983 15 l 981 13 l 978 11 q 975 6 975 8 l 974 3 l 989 3 l 1000 3 q 1004 4 1003 3 l 1004 6 l 1003 10 l 997 14 l 994 17 m 454 25 l 458 25 l 463 25 l 463 6 l 463 -6 q 464 -11 463 -10 l 464 -14 l 465 -17 q 476 -19 469 -22 q 485 -12 482 -18 l 488 -8 l 488 -3 l 488 8 l 489 25 l 493 25 l 497 25 l 497 6 l 497 -15 l 500 -17 l 503 -19 l 503 -24 l 501 -28 q 496 -25 499 -28 q 490 -19 492 -24 l 488 -17 l 486 -24 q 481 -28 485 -25 q 471 -29 479 -29 q 461 -26 469 -29 l 458 -24 l 456 -19 l 456 -15 q 454 -8 454 -12 l 454 6 l 454 25 m 626 -1 l 626 25 l 631 25 l 635 24 l 636 -1 l 636 -28 l 631 -28 l 626 -28 l 626 -1 m 839 -15 l 842 -15 l 847 -15 l 847 -22 l 847 -28 l 842 -28 l 835 -28 l 835 -22 q 836 -18 835 -19 l 836 -17 l 839 -15 z "},"4":{"ha":1250,"x_min":83,"x_max":1167,"o":"m 421 1033 l 631 1033 l 926 1033 l 942 1031 q 1063 978 1006 1018 q 1085 957 1078 963 q 1107 932 1100 942 q 1160 826 1146 885 q 1161 822 1161 824 q 1163 815 1161 818 q 1164 807 1163 808 q 1165 803 1165 806 q 1167 797 1167 799 l 1167 788 l 1167 749 l 1167 676 l 1167 651 l 1167 564 l 1167 514 q 1165 489 1167 493 q 1164 481 1164 488 q 1163 472 1164 474 q 1085 332 1146 390 q 940 258 1025 272 l 924 256 l 632 256 q 486 254 592 254 q 397 256 411 254 l 347 256 q 324 257 326 256 q 307 258 311 257 l 307 260 q 147 351 211 276 q 86 482 100 407 l 83 499 l 83 643 l 83 788 l 86 803 q 163 954 101 894 q 328 1032 229 1021 q 421 1033 383 1032 m 699 774 q 664 772 685 779 q 638 747 647 765 q 636 742 636 744 q 635 736 635 739 l 635 726 l 635 718 q 636 713 635 714 l 638 707 q 660 685 647 690 q 690 679 674 676 q 725 703 714 683 q 729 744 736 722 q 717 763 725 754 q 699 774 706 771 m 854 728 l 854 776 l 842 776 l 829 776 l 829 754 l 828 733 l 815 754 l 801 775 l 789 775 l 775 775 l 775 726 l 775 679 l 789 679 l 803 679 l 803 700 l 803 722 l 817 701 l 831 679 l 843 679 l 854 679 l 854 728 m 222 775 l 215 775 l 200 775 l 179 775 l 179 726 l 179 679 l 192 679 l 206 679 l 206 694 l 206 710 l 215 711 q 225 713 224 711 l 231 714 q 249 744 251 724 q 228 774 247 765 l 222 775 m 353 763 l 353 775 l 322 775 l 290 775 l 290 726 l 290 679 l 322 679 l 353 679 l 353 692 l 353 704 l 335 704 l 318 704 l 318 708 l 318 714 l 333 714 l 349 714 l 349 726 l 349 739 l 333 739 l 318 739 l 318 744 l 318 749 l 335 749 l 353 749 l 353 763 m 449 775 l 424 775 l 400 775 l 400 728 l 400 679 l 413 679 l 426 679 l 426 694 l 426 707 l 428 710 l 432 706 l 433 701 q 439 694 436 697 l 449 679 l 464 679 l 475 679 l 479 679 l 476 685 l 468 697 l 457 714 l 461 718 q 465 724 464 721 l 468 728 q 471 733 471 731 l 471 742 l 471 751 q 469 756 471 754 q 454 771 464 765 l 449 775 m 567 774 q 553 775 564 775 q 538 772 549 775 q 515 749 517 765 q 517 738 515 739 q 521 729 517 733 q 549 717 528 721 l 554 717 l 558 715 l 561 714 l 565 710 l 565 708 l 564 706 q 553 704 556 703 q 543 708 544 704 l 540 711 l 533 710 l 532 710 q 526 708 529 708 q 521 707 525 707 l 515 704 l 517 697 q 542 679 522 683 q 576 683 558 675 q 592 711 594 692 q 558 739 592 733 q 551 740 556 740 q 544 749 540 744 q 553 751 547 751 q 561 747 558 751 l 564 744 l 578 747 q 585 749 579 749 q 589 750 588 749 l 590 751 l 589 753 q 582 765 588 760 q 567 774 575 772 m 954 775 l 939 775 l 925 775 l 910 728 q 900 694 910 726 q 894 679 897 688 l 899 679 l 908 679 l 922 679 l 924 685 l 925 690 l 940 689 l 954 689 l 956 683 l 957 679 l 971 679 l 982 679 l 985 681 l 982 688 q 971 722 976 706 q 963 749 969 731 q 960 754 961 750 q 960 760 960 758 l 957 767 l 957 768 l 954 775 m 1050 740 l 1050 775 l 1038 775 l 1024 775 l 1024 726 l 1024 679 l 1051 679 l 1079 679 l 1079 692 l 1079 704 l 1065 704 l 1050 704 l 1050 740 m 685 607 q 643 596 663 611 q 628 553 624 576 q 654 515 631 529 q 657 514 656 514 q 661 513 660 513 l 667 511 l 676 511 l 686 511 q 692 513 689 511 l 697 515 q 711 525 703 517 q 721 538 718 532 q 725 568 728 553 q 710 594 721 583 q 685 607 700 606 m 849 560 l 849 608 l 835 608 q 822 607 824 608 l 821 600 l 821 586 l 821 567 l 808 586 l 794 607 l 782 607 l 769 607 l 769 558 l 769 511 l 783 511 l 796 511 l 796 532 l 797 554 l 811 532 l 824 511 l 836 511 l 849 511 l 849 560 m 231 607 l 217 607 l 204 607 l 204 572 l 204 538 l 208 532 q 217 521 211 525 q 229 513 222 514 q 243 511 232 511 q 258 513 256 511 q 272 522 264 514 q 279 535 278 528 l 282 539 l 282 542 l 282 551 l 282 574 l 282 607 l 269 607 l 256 607 l 256 578 l 256 554 l 254 543 l 251 540 l 250 538 q 243 536 249 536 l 235 539 l 232 544 q 231 554 231 549 l 231 578 l 231 607 m 381 606 q 367 607 378 607 q 350 606 353 607 q 340 600 343 603 q 332 592 333 596 l 329 588 q 328 581 328 585 l 329 569 q 335 561 331 565 q 346 554 338 557 q 350 553 349 554 q 353 551 351 551 q 357 550 356 550 q 363 549 358 549 q 378 542 378 546 q 374 536 378 539 q 364 536 368 535 q 356 540 358 536 l 353 543 l 340 540 q 332 539 338 539 q 326 538 331 538 l 328 535 l 331 529 q 332 525 331 526 l 333 522 q 363 511 344 511 q 400 525 389 510 l 401 528 l 404 531 l 404 536 q 375 571 407 564 q 358 576 361 574 q 357 582 356 579 l 361 583 l 365 583 l 371 583 l 374 579 l 376 576 l 389 579 q 394 581 392 579 l 399 582 l 401 582 l 403 585 l 400 589 q 381 606 393 601 m 511 594 l 511 607 l 481 607 l 449 607 l 449 558 l 449 511 l 481 511 l 511 511 l 511 524 l 511 536 l 493 536 l 476 536 l 476 542 l 476 546 l 492 546 l 507 546 l 507 558 l 507 571 l 492 571 l 476 571 l 476 576 l 476 582 l 493 582 l 511 582 l 511 594 m 922 572 l 922 607 l 910 607 l 896 607 l 896 558 l 896 511 l 924 511 l 951 511 l 951 524 l 951 536 l 936 536 l 922 536 l 922 572 m 994 607 l 979 607 l 963 607 l 965 604 l 967 603 l 969 599 l 971 594 q 974 590 972 593 q 976 586 975 588 q 979 581 978 583 q 982 576 981 578 l 996 551 l 996 531 l 996 511 l 1008 511 l 1022 511 l 1022 531 l 1022 551 l 1036 576 q 1049 596 1039 582 l 1053 604 l 1054 607 l 1039 607 l 1024 607 l 1017 594 q 1013 586 1014 589 l 1008 582 l 1007 586 q 1001 594 1004 589 l 994 607 m 674 749 q 699 743 688 754 q 703 717 710 732 q 681 704 694 703 q 661 721 667 707 q 664 738 660 726 q 674 749 665 743 m 206 742 l 206 749 l 213 749 l 219 749 l 221 743 q 219 738 221 739 l 213 735 l 206 735 l 206 742 m 426 742 l 426 749 l 435 749 l 443 749 l 444 742 q 433 735 444 735 l 426 735 l 426 742 m 939 736 l 940 738 l 942 732 q 943 726 943 729 l 947 714 l 940 714 l 933 714 l 933 718 l 935 721 q 936 728 935 726 l 938 729 l 939 736 m 656 567 q 667 581 657 576 q 686 581 676 585 q 697 565 694 575 q 693 544 700 553 q 675 536 686 536 q 657 547 664 536 q 656 567 651 557 m 194 169 q 213 171 208 172 q 220 167 215 169 q 226 165 225 165 l 232 161 l 233 158 l 235 156 q 236 151 236 153 l 232 150 l 229 151 l 226 154 q 210 164 218 163 q 190 156 197 164 q 183 135 182 149 q 193 115 185 121 q 214 113 199 110 q 225 121 221 115 q 229 129 229 125 l 229 132 l 219 132 l 210 132 l 210 136 l 210 140 l 224 140 l 236 140 l 236 122 l 236 106 l 233 106 l 229 107 l 232 114 q 233 118 233 117 l 232 118 l 231 117 l 228 114 q 207 104 222 104 q 179 121 189 104 q 178 125 178 124 l 176 129 l 176 138 l 176 146 q 178 150 176 149 l 179 154 q 194 169 186 167 m 461 171 l 468 171 l 468 167 l 468 163 l 463 163 l 457 163 l 454 160 l 454 157 l 453 153 l 453 150 l 458 150 l 464 150 l 464 146 l 464 142 l 457 142 l 451 142 l 447 140 l 449 140 l 450 138 l 453 135 l 453 131 l 453 119 l 453 106 l 449 106 l 444 106 l 444 124 l 444 142 l 442 142 l 440 143 l 439 146 q 440 150 439 149 l 442 150 l 444 151 l 444 154 q 451 168 444 161 q 461 171 454 171 m 565 138 l 565 171 l 569 171 l 574 171 l 574 138 l 574 106 l 569 106 l 565 106 l 565 138 m 604 138 l 604 171 l 608 171 l 613 171 l 613 138 l 613 106 l 608 106 l 604 106 l 604 138 m 713 171 l 719 171 l 719 167 l 719 163 l 714 163 l 710 163 l 707 160 l 706 157 l 704 153 l 704 150 l 710 150 l 717 150 l 717 146 l 717 142 l 708 142 l 703 142 l 700 140 l 701 138 l 704 135 l 704 131 l 704 119 l 704 106 l 700 106 l 696 106 l 696 124 l 696 142 l 694 142 l 692 143 l 692 146 l 692 150 l 694 150 l 696 151 l 696 154 q 704 168 696 161 q 713 171 707 171 m 342 161 l 346 161 l 350 161 l 350 156 l 350 150 l 356 150 l 360 150 l 360 146 l 360 142 l 353 142 q 347 138 342 142 l 349 136 l 350 133 l 350 125 l 350 114 l 356 113 l 361 113 l 361 108 l 361 106 l 354 106 l 349 106 l 344 108 l 342 111 l 342 126 l 342 142 l 339 142 l 336 143 l 335 146 q 336 150 335 149 l 339 150 l 342 150 l 342 151 l 342 156 l 342 161 m 883 161 l 888 161 l 890 161 l 890 156 l 890 150 l 896 150 l 901 150 l 901 146 l 901 142 l 894 142 l 888 142 l 886 140 l 888 140 l 889 138 l 890 138 l 890 135 l 890 128 l 892 115 q 897 113 894 113 l 901 113 l 903 113 l 903 108 l 903 106 l 897 106 l 892 106 l 888 108 l 883 111 l 883 126 l 883 142 l 881 142 l 879 143 l 878 146 q 879 150 878 149 l 881 150 l 883 150 l 883 151 l 883 156 l 883 161 m 1050 161 l 1054 161 l 1058 161 l 1058 156 l 1058 150 l 1063 150 l 1068 150 l 1068 146 l 1068 142 l 1061 142 l 1056 142 l 1053 140 l 1054 140 l 1056 138 l 1057 138 l 1058 135 l 1058 128 l 1060 115 q 1065 113 1060 113 l 1068 113 l 1069 113 l 1069 108 l 1069 106 l 1064 106 l 1058 106 l 1054 108 l 1050 111 l 1050 126 l 1050 142 l 1047 142 l 1046 143 l 1044 146 q 1046 150 1044 149 l 1047 150 l 1050 150 l 1050 151 l 1050 156 l 1050 161 m 282 149 q 301 147 293 153 q 311 129 310 139 l 311 125 l 293 125 l 281 125 l 276 122 l 278 118 q 288 113 279 113 q 299 115 292 111 q 304 119 301 118 l 308 119 l 310 118 l 307 114 l 301 108 q 297 106 299 107 q 286 106 292 104 q 276 107 278 106 q 268 129 267 115 q 282 149 269 143 m 297 140 l 288 143 q 278 136 281 140 l 278 133 l 276 132 l 281 132 q 289 131 285 131 q 297 132 296 131 l 301 132 l 303 135 l 300 138 l 297 140 m 754 149 q 763 150 756 150 q 771 149 769 150 q 783 126 783 142 q 781 114 783 125 q 769 106 776 108 q 758 104 760 103 q 747 110 751 106 q 742 121 743 114 q 740 135 739 131 q 746 143 742 139 q 754 149 750 147 m 769 140 q 751 139 758 147 q 750 118 744 128 q 760 113 751 113 q 771 114 763 111 q 775 128 775 121 q 769 140 775 136 m 828 149 q 840 150 838 151 q 849 142 847 147 l 850 136 l 850 122 l 850 106 l 847 106 l 843 106 l 843 121 l 843 132 l 843 138 l 840 140 l 836 143 l 828 140 q 824 135 824 139 l 824 132 q 822 126 822 128 q 821 119 821 124 l 821 106 l 817 106 l 814 106 l 814 128 l 814 150 l 818 150 l 821 149 l 819 144 l 818 142 l 817 139 l 817 136 l 818 139 l 819 142 q 824 146 822 144 l 828 149 m 997 150 l 1001 150 q 1015 144 1011 150 q 1018 126 1018 133 l 1018 119 l 1018 115 l 1019 114 l 1022 111 l 1022 107 l 1019 106 q 1013 113 1015 106 l 1010 117 l 1010 114 q 1006 107 1007 108 q 996 104 1003 104 q 985 108 989 104 q 982 118 981 113 q 989 128 982 124 l 994 131 q 1001 132 1000 131 l 1007 133 l 1010 133 l 1010 135 l 1008 138 l 1004 142 q 996 143 1003 143 q 990 138 992 142 l 989 136 l 985 136 l 982 138 l 983 142 l 988 146 l 992 149 q 997 150 994 150 m 1008 126 l 1003 125 l 1001 125 q 997 124 999 125 l 994 122 l 992 121 l 990 119 l 989 117 q 997 111 989 111 q 1006 115 1001 111 q 1010 124 1010 119 l 1008 126 m 493 150 l 497 150 l 501 150 l 501 133 l 501 122 q 503 117 501 118 l 503 114 q 513 113 510 111 q 521 118 517 114 q 522 125 522 121 l 522 136 l 524 150 l 526 150 l 531 150 l 531 132 l 531 124 l 531 118 l 532 115 l 533 114 l 535 111 l 535 107 l 533 106 q 528 108 531 106 l 526 111 q 524 114 525 114 l 522 115 l 521 111 l 518 106 l 510 104 q 494 111 501 104 l 494 118 q 493 132 493 119 l 493 150 m 200 50 l 204 50 l 210 49 l 210 44 l 210 40 l 204 40 l 199 40 l 194 38 q 193 33 193 35 l 192 29 l 192 25 l 197 25 l 204 25 l 204 19 l 204 15 l 194 15 l 188 15 l 185 14 l 186 14 l 188 11 l 192 8 l 192 -10 l 192 -28 l 186 -28 l 182 -28 l 182 -7 l 182 15 l 178 15 l 176 15 l 175 17 l 175 19 q 176 24 175 22 l 178 25 l 181 25 l 182 26 l 182 31 q 196 49 183 46 l 200 50 m 575 50 l 579 50 l 585 50 l 585 17 l 585 1 l 585 -10 q 586 -15 585 -14 l 586 -17 l 589 -18 l 590 -19 l 590 -24 l 590 -26 l 589 -28 l 585 -26 q 582 -24 583 -25 q 579 -22 581 -22 l 576 -19 l 572 -24 q 549 -28 561 -32 q 536 -11 539 -22 q 538 10 533 0 q 550 24 539 19 l 554 26 l 557 26 q 567 24 561 25 q 575 17 574 21 l 581 13 q 578 18 579 14 l 576 22 l 576 28 q 575 36 575 32 l 575 50 m 568 13 q 561 17 565 15 q 551 14 560 17 q 544 -4 544 7 l 546 -7 l 547 -10 l 547 -14 q 557 -19 550 -17 q 568 -17 561 -21 q 575 -1 575 -10 q 568 13 575 6 m 626 44 l 626 50 l 631 50 l 635 49 l 636 44 l 636 39 l 631 39 l 626 39 l 626 44 m 397 32 l 397 39 l 401 39 l 407 39 l 407 32 l 407 25 l 413 25 l 419 25 l 419 19 l 419 15 l 410 15 l 404 15 l 401 14 l 403 13 l 403 11 l 404 11 l 406 10 l 407 7 l 407 -4 q 408 -17 407 -12 l 411 -18 l 415 -18 l 419 -18 l 419 -24 l 419 -28 l 414 -28 l 404 -26 l 400 -22 q 399 -14 399 -18 q 397 -1 397 -12 l 397 15 l 394 15 l 393 15 l 392 17 l 390 19 q 392 24 390 22 l 393 25 l 394 25 l 397 25 l 397 32 m 1051 32 l 1051 39 l 1056 39 l 1061 39 l 1061 32 l 1061 25 l 1067 25 l 1072 25 l 1072 19 l 1072 15 l 1064 15 l 1056 15 l 1058 11 l 1060 8 l 1061 4 l 1061 -4 l 1061 -18 l 1068 -18 l 1074 -18 l 1074 -24 l 1074 -29 l 1067 -28 q 1060 -26 1061 -28 l 1056 -24 l 1051 -21 l 1051 -3 l 1051 15 l 1047 15 l 1046 15 l 1044 17 l 1044 19 l 1044 24 l 1046 25 l 1047 25 l 1051 25 l 1051 32 m 249 25 q 261 25 256 28 q 267 22 264 24 q 271 19 269 19 l 274 17 l 274 21 q 275 25 274 24 l 278 25 l 282 25 l 282 -7 l 282 -25 l 282 -35 l 282 -40 l 279 -43 l 278 -46 l 274 -49 l 271 -50 l 265 -51 l 254 -51 l 239 -51 l 239 -47 l 239 -43 l 251 -43 q 261 -42 260 -43 l 267 -42 q 274 -29 274 -37 l 275 -25 l 276 -22 l 278 -17 q 274 -19 275 -18 q 261 -28 267 -25 q 247 -28 254 -31 q 240 -21 243 -26 q 235 -12 236 -17 q 233 -1 233 -11 q 235 8 233 7 q 240 18 236 14 q 249 25 242 22 m 265 14 l 260 17 l 251 15 q 243 4 244 13 q 246 -14 242 -3 q 258 -19 253 -21 q 271 -11 264 -19 q 272 1 274 -1 q 265 14 271 8 m 336 25 l 342 25 q 358 15 354 25 l 361 10 l 356 8 l 350 10 q 347 15 350 13 q 340 17 346 17 q 331 13 333 17 q 332 7 329 10 l 338 6 l 342 4 l 344 3 l 358 -3 q 361 -12 361 -11 l 361 -17 l 358 -22 q 338 -29 350 -31 q 319 -18 326 -28 q 318 -11 318 -15 l 322 -10 l 328 -10 l 328 -12 l 329 -14 l 332 -17 l 335 -18 l 338 -19 l 342 -19 q 349 -18 346 -19 l 350 -17 l 353 -14 l 353 -12 q 338 -6 353 -10 q 333 -4 335 -6 l 331 -3 l 325 0 q 321 6 324 1 q 319 13 319 8 q 325 21 321 17 l 331 25 l 336 25 m 681 19 q 689 25 685 24 q 706 24 693 26 q 718 14 711 21 q 719 10 718 11 l 721 7 l 721 0 q 713 -24 724 -15 q 689 -28 701 -32 q 672 -10 676 -24 q 671 1 671 -7 q 674 11 671 3 l 675 14 q 681 19 678 17 m 703 15 q 693 15 697 17 q 683 10 685 13 q 682 6 683 8 q 681 1 681 3 l 681 -8 q 694 -19 685 -18 q 710 -12 703 -22 q 713 3 714 -6 q 703 15 710 10 m 768 24 q 786 24 778 28 l 793 19 l 796 14 l 797 13 l 797 10 l 793 8 q 789 10 790 8 l 788 11 q 781 15 786 13 q 771 15 775 17 q 765 10 765 14 l 767 8 l 772 6 q 783 1 776 3 q 789 0 786 1 l 793 -1 q 797 -8 796 -4 q 794 -24 800 -21 q 776 -29 789 -29 q 763 -24 768 -29 q 756 -12 756 -19 l 757 -10 l 760 -10 l 764 -10 l 765 -12 q 778 -19 768 -19 q 789 -14 788 -19 q 788 -10 789 -11 l 779 -7 q 776 -6 778 -7 q 772 -4 775 -6 q 765 -1 768 -3 l 758 3 l 757 7 l 757 11 q 768 24 757 21 m 907 25 l 910 26 q 921 22 914 26 q 928 13 925 19 l 929 6 l 929 -10 l 929 -28 l 924 -28 l 919 -28 l 919 -12 l 919 7 q 915 14 917 13 q 906 15 908 17 q 897 8 900 14 l 896 6 l 894 0 l 894 -11 l 893 -28 l 889 -28 l 885 -28 l 885 -1 l 885 25 l 889 25 l 893 25 l 894 22 l 893 21 l 892 18 q 889 13 889 15 l 889 11 l 892 15 q 901 22 896 19 l 907 25 m 983 25 q 996 25 989 28 q 1007 18 1004 22 q 1013 11 1011 14 q 1015 7 1014 8 l 1015 1 l 1015 -6 l 994 -6 l 983 -6 l 978 -6 l 975 -6 l 974 -7 q 976 -12 974 -10 l 982 -18 q 993 -19 989 -21 q 1003 -14 1000 -17 l 1004 -11 l 1008 -11 q 1014 -12 1013 -11 l 1011 -18 q 997 -28 1003 -25 q 981 -28 989 -31 q 964 -1 964 -22 q 983 25 965 19 m 994 17 l 990 17 l 983 15 l 981 13 l 978 11 q 975 6 975 8 l 974 3 l 989 3 l 1000 3 q 1004 4 1003 3 l 1004 6 l 1003 10 l 997 14 l 994 17 m 454 25 l 458 25 l 463 25 l 463 6 l 463 -6 q 464 -11 463 -10 l 464 -14 l 465 -17 q 476 -19 469 -22 q 485 -12 482 -18 l 488 -8 l 488 -3 l 488 8 l 489 25 l 493 25 l 497 25 l 497 6 l 497 -15 l 500 -17 l 503 -19 l 503 -24 l 501 -28 q 496 -25 499 -28 q 490 -19 492 -24 l 488 -17 l 486 -24 q 481 -28 485 -25 q 471 -29 479 -29 q 461 -26 469 -29 l 458 -24 l 456 -19 l 456 -15 q 454 -8 454 -12 l 454 6 l 454 25 m 626 -1 l 626 25 l 631 25 l 635 24 l 636 -1 l 636 -28 l 631 -28 l 626 -28 l 626 -1 m 839 -15 l 842 -15 l 847 -15 l 847 -22 l 847 -28 l 842 -28 l 835 -28 l 835 -22 q 836 -18 835 -19 l 836 -17 l 839 -15 z "},"5":{"ha":1250,"x_min":83,"x_max":1167,"o":"m 421 1033 l 631 1033 l 926 1033 l 942 1031 q 1063 978 1006 1018 q 1085 957 1078 963 q 1107 932 1100 942 q 1160 826 1146 885 q 1161 822 1161 824 q 1163 815 1161 818 q 1164 807 1163 808 q 1165 803 1165 806 q 1167 797 1167 799 l 1167 788 l 1167 749 l 1167 676 l 1167 651 l 1167 564 l 1167 514 q 1165 489 1167 493 q 1164 481 1164 488 q 1163 472 1164 474 q 1085 332 1146 390 q 940 258 1025 272 l 924 256 l 632 256 q 486 254 592 254 q 397 256 411 254 l 347 256 q 324 257 326 256 q 307 258 311 257 l 307 260 q 147 351 211 276 q 86 482 100 407 l 83 499 l 83 643 l 83 788 l 86 803 q 163 954 101 894 q 328 1032 229 1021 q 421 1033 383 1032 m 699 774 q 664 772 685 779 q 638 747 647 765 q 636 742 636 744 q 635 736 635 739 l 635 726 l 635 718 q 636 713 635 714 l 638 707 q 660 685 647 690 q 690 679 674 676 q 725 703 714 683 q 729 744 736 722 q 717 763 725 754 q 699 774 706 771 m 854 728 l 854 776 l 842 776 l 829 776 l 829 754 l 828 733 l 815 754 l 801 775 l 789 775 l 775 775 l 775 726 l 775 679 l 789 679 l 803 679 l 803 700 l 803 722 l 817 701 l 831 679 l 843 679 l 854 679 l 854 728 m 222 775 l 215 775 l 200 775 l 179 775 l 179 726 l 179 679 l 192 679 l 206 679 l 206 694 l 206 710 l 215 711 q 225 713 224 711 l 231 714 q 249 744 251 724 q 228 774 247 765 l 222 775 m 353 763 l 353 775 l 322 775 l 290 775 l 290 726 l 290 679 l 322 679 l 353 679 l 353 692 l 353 704 l 335 704 l 318 704 l 318 708 l 318 714 l 333 714 l 349 714 l 349 726 l 349 739 l 333 739 l 318 739 l 318 744 l 318 749 l 335 749 l 353 749 l 353 763 m 449 775 l 424 775 l 400 775 l 400 728 l 400 679 l 413 679 l 426 679 l 426 694 l 426 707 l 428 710 l 432 706 l 433 701 q 439 694 436 697 l 449 679 l 464 679 l 475 679 l 479 679 l 476 685 l 468 697 l 457 714 l 461 718 q 465 724 464 721 l 468 728 q 471 733 471 731 l 471 742 l 471 751 q 469 756 471 754 q 454 771 464 765 l 449 775 m 567 774 q 553 775 564 775 q 538 772 549 775 q 515 749 517 765 q 517 738 515 739 q 521 729 517 733 q 549 717 528 721 l 554 717 l 558 715 l 561 714 l 565 710 l 565 708 l 564 706 q 553 704 556 703 q 543 708 544 704 l 540 711 l 533 710 l 532 710 q 526 708 529 708 q 521 707 525 707 l 515 704 l 517 697 q 542 679 522 683 q 576 683 558 675 q 592 711 594 692 q 558 739 592 733 q 551 740 556 740 q 544 749 540 744 q 553 751 547 751 q 561 747 558 751 l 564 744 l 578 747 q 585 749 579 749 q 589 750 588 749 l 590 751 l 589 753 q 582 765 588 760 q 567 774 575 772 m 954 775 l 939 775 l 925 775 l 910 728 q 900 694 910 726 q 894 679 897 688 l 899 679 l 908 679 l 922 679 l 924 685 l 925 690 l 940 689 l 954 689 l 956 683 l 957 679 l 971 679 l 982 679 l 985 681 l 982 688 q 971 722 976 706 q 963 749 969 731 q 960 754 961 750 q 960 760 960 758 l 957 767 l 957 768 l 954 775 m 1050 740 l 1050 775 l 1038 775 l 1024 775 l 1024 726 l 1024 679 l 1051 679 l 1079 679 l 1079 692 l 1079 704 l 1065 704 l 1050 704 l 1050 740 m 685 607 q 643 596 663 611 q 628 553 624 576 q 654 515 631 529 q 657 514 656 514 q 661 513 660 513 l 667 511 l 676 511 l 686 511 q 692 513 689 511 l 697 515 q 711 525 703 517 q 721 538 718 532 q 725 568 728 553 q 710 594 721 583 q 685 607 700 606 m 849 560 l 849 608 l 835 608 q 822 607 824 608 l 821 600 l 821 586 l 821 567 l 808 586 l 794 607 l 782 607 l 769 607 l 769 558 l 769 511 l 783 511 l 796 511 l 796 532 l 797 554 l 811 532 l 824 511 l 836 511 l 849 511 l 849 560 m 231 607 l 217 607 l 204 607 l 204 572 l 204 538 l 208 532 q 217 521 211 525 q 229 513 222 514 q 243 511 232 511 q 258 513 256 511 q 272 522 264 514 q 279 535 278 528 l 282 539 l 282 542 l 282 551 l 282 574 l 282 607 l 269 607 l 256 607 l 256 578 l 256 554 l 254 543 l 251 540 l 250 538 q 243 536 249 536 l 235 539 l 232 544 q 231 554 231 549 l 231 578 l 231 607 m 381 606 q 367 607 378 607 q 350 606 353 607 q 340 600 343 603 q 332 592 333 596 l 329 588 q 328 581 328 585 l 329 569 q 335 561 331 565 q 346 554 338 557 q 350 553 349 554 q 353 551 351 551 q 357 550 356 550 q 363 549 358 549 q 378 542 378 546 q 374 536 378 539 q 364 536 368 535 q 356 540 358 536 l 353 543 l 340 540 q 332 539 338 539 q 326 538 331 538 l 328 535 l 331 529 q 332 525 331 526 l 333 522 q 363 511 344 511 q 400 525 389 510 l 401 528 l 404 531 l 404 536 q 375 571 407 564 q 358 576 361 574 q 357 582 356 579 l 361 583 l 365 583 l 371 583 l 374 579 l 376 576 l 389 579 q 394 581 392 579 l 399 582 l 401 582 l 403 585 l 400 589 q 381 606 393 601 m 511 594 l 511 607 l 481 607 l 449 607 l 449 558 l 449 511 l 481 511 l 511 511 l 511 524 l 511 536 l 493 536 l 476 536 l 476 542 l 476 546 l 492 546 l 507 546 l 507 558 l 507 571 l 492 571 l 476 571 l 476 576 l 476 582 l 493 582 l 511 582 l 511 594 m 922 572 l 922 607 l 910 607 l 896 607 l 896 558 l 896 511 l 924 511 l 951 511 l 951 524 l 951 536 l 936 536 l 922 536 l 922 572 m 994 607 l 979 607 l 963 607 l 965 604 l 967 603 l 969 599 l 971 594 q 974 590 972 593 q 976 586 975 588 q 979 581 978 583 q 982 576 981 578 l 996 551 l 996 531 l 996 511 l 1008 511 l 1022 511 l 1022 531 l 1022 551 l 1036 576 q 1049 596 1039 582 l 1053 604 l 1054 607 l 1039 607 l 1024 607 l 1017 594 q 1013 586 1014 589 l 1008 582 l 1007 586 q 1001 594 1004 589 l 994 607 m 674 749 q 699 743 688 754 q 703 717 710 732 q 681 704 694 703 q 661 721 667 707 q 664 738 660 726 q 674 749 665 743 m 206 742 l 206 749 l 213 749 l 219 749 l 221 743 q 219 738 221 739 l 213 735 l 206 735 l 206 742 m 426 742 l 426 749 l 435 749 l 443 749 l 444 742 q 433 735 444 735 l 426 735 l 426 742 m 939 736 l 940 738 l 942 732 q 943 726 943 729 l 947 714 l 940 714 l 933 714 l 933 718 l 935 721 q 936 728 935 726 l 938 729 l 939 736 m 656 567 q 667 581 657 576 q 686 581 676 585 q 697 565 694 575 q 693 544 700 553 q 675 536 686 536 q 657 547 664 536 q 656 567 651 557 m 194 169 q 213 171 208 172 q 220 167 215 169 q 226 165 225 165 l 232 161 l 233 158 l 235 156 q 236 151 236 153 l 232 150 l 229 151 l 226 154 q 210 164 218 163 q 190 156 197 164 q 183 135 182 149 q 193 115 185 121 q 214 113 199 110 q 225 121 221 115 q 229 129 229 125 l 229 132 l 219 132 l 210 132 l 210 136 l 210 140 l 224 140 l 236 140 l 236 122 l 236 106 l 233 106 l 229 107 l 232 114 q 233 118 233 117 l 232 118 l 231 117 l 228 114 q 207 104 222 104 q 179 121 189 104 q 178 125 178 124 l 176 129 l 176 138 l 176 146 q 178 150 176 149 l 179 154 q 194 169 186 167 m 461 171 l 468 171 l 468 167 l 468 163 l 463 163 l 457 163 l 454 160 l 454 157 l 453 153 l 453 150 l 458 150 l 464 150 l 464 146 l 464 142 l 457 142 l 451 142 l 447 140 l 449 140 l 450 138 l 453 135 l 453 131 l 453 119 l 453 106 l 449 106 l 444 106 l 444 124 l 444 142 l 442 142 l 440 143 l 439 146 q 440 150 439 149 l 442 150 l 444 151 l 444 154 q 451 168 444 161 q 461 171 454 171 m 565 138 l 565 171 l 569 171 l 574 171 l 574 138 l 574 106 l 569 106 l 565 106 l 565 138 m 604 138 l 604 171 l 608 171 l 613 171 l 613 138 l 613 106 l 608 106 l 604 106 l 604 138 m 713 171 l 719 171 l 719 167 l 719 163 l 714 163 l 710 163 l 707 160 l 706 157 l 704 153 l 704 150 l 710 150 l 717 150 l 717 146 l 717 142 l 708 142 l 703 142 l 700 140 l 701 138 l 704 135 l 704 131 l 704 119 l 704 106 l 700 106 l 696 106 l 696 124 l 696 142 l 694 142 l 692 143 l 692 146 l 692 150 l 694 150 l 696 151 l 696 154 q 704 168 696 161 q 713 171 707 171 m 342 161 l 346 161 l 350 161 l 350 156 l 350 150 l 356 150 l 360 150 l 360 146 l 360 142 l 353 142 q 347 138 342 142 l 349 136 l 350 133 l 350 125 l 350 114 l 356 113 l 361 113 l 361 108 l 361 106 l 354 106 l 349 106 l 344 108 l 342 111 l 342 126 l 342 142 l 339 142 l 336 143 l 335 146 q 336 150 335 149 l 339 150 l 342 150 l 342 151 l 342 156 l 342 161 m 883 161 l 888 161 l 890 161 l 890 156 l 890 150 l 896 150 l 901 150 l 901 146 l 901 142 l 894 142 l 888 142 l 886 140 l 888 140 l 889 138 l 890 138 l 890 135 l 890 128 l 892 115 q 897 113 894 113 l 901 113 l 903 113 l 903 108 l 903 106 l 897 106 l 892 106 l 888 108 l 883 111 l 883 126 l 883 142 l 881 142 l 879 143 l 878 146 q 879 150 878 149 l 881 150 l 883 150 l 883 151 l 883 156 l 883 161 m 1050 161 l 1054 161 l 1058 161 l 1058 156 l 1058 150 l 1063 150 l 1068 150 l 1068 146 l 1068 142 l 1061 142 l 1056 142 l 1053 140 l 1054 140 l 1056 138 l 1057 138 l 1058 135 l 1058 128 l 1060 115 q 1065 113 1060 113 l 1068 113 l 1069 113 l 1069 108 l 1069 106 l 1064 106 l 1058 106 l 1054 108 l 1050 111 l 1050 126 l 1050 142 l 1047 142 l 1046 143 l 1044 146 q 1046 150 1044 149 l 1047 150 l 1050 150 l 1050 151 l 1050 156 l 1050 161 m 282 149 q 301 147 293 153 q 311 129 310 139 l 311 125 l 293 125 l 281 125 l 276 122 l 278 118 q 288 113 279 113 q 299 115 292 111 q 304 119 301 118 l 308 119 l 310 118 l 307 114 l 301 108 q 297 106 299 107 q 286 106 292 104 q 276 107 278 106 q 268 129 267 115 q 282 149 269 143 m 297 140 l 288 143 q 278 136 281 140 l 278 133 l 276 132 l 281 132 q 289 131 285 131 q 297 132 296 131 l 301 132 l 303 135 l 300 138 l 297 140 m 754 149 q 763 150 756 150 q 771 149 769 150 q 783 126 783 142 q 781 114 783 125 q 769 106 776 108 q 758 104 760 103 q 747 110 751 106 q 742 121 743 114 q 740 135 739 131 q 746 143 742 139 q 754 149 750 147 m 769 140 q 751 139 758 147 q 750 118 744 128 q 760 113 751 113 q 771 114 763 111 q 775 128 775 121 q 769 140 775 136 m 828 149 q 840 150 838 151 q 849 142 847 147 l 850 136 l 850 122 l 850 106 l 847 106 l 843 106 l 843 121 l 843 132 l 843 138 l 840 140 l 836 143 l 828 140 q 824 135 824 139 l 824 132 q 822 126 822 128 q 821 119 821 124 l 821 106 l 817 106 l 814 106 l 814 128 l 814 150 l 818 150 l 821 149 l 819 144 l 818 142 l 817 139 l 817 136 l 818 139 l 819 142 q 824 146 822 144 l 828 149 m 997 150 l 1001 150 q 1015 144 1011 150 q 1018 126 1018 133 l 1018 119 l 1018 115 l 1019 114 l 1022 111 l 1022 107 l 1019 106 q 1013 113 1015 106 l 1010 117 l 1010 114 q 1006 107 1007 108 q 996 104 1003 104 q 985 108 989 104 q 982 118 981 113 q 989 128 982 124 l 994 131 q 1001 132 1000 131 l 1007 133 l 1010 133 l 1010 135 l 1008 138 l 1004 142 q 996 143 1003 143 q 990 138 992 142 l 989 136 l 985 136 l 982 138 l 983 142 l 988 146 l 992 149 q 997 150 994 150 m 1008 126 l 1003 125 l 1001 125 q 997 124 999 125 l 994 122 l 992 121 l 990 119 l 989 117 q 997 111 989 111 q 1006 115 1001 111 q 1010 124 1010 119 l 1008 126 m 493 150 l 497 150 l 501 150 l 501 133 l 501 122 q 503 117 501 118 l 503 114 q 513 113 510 111 q 521 118 517 114 q 522 125 522 121 l 522 136 l 524 150 l 526 150 l 531 150 l 531 132 l 531 124 l 531 118 l 532 115 l 533 114 l 535 111 l 535 107 l 533 106 q 528 108 531 106 l 526 111 q 524 114 525 114 l 522 115 l 521 111 l 518 106 l 510 104 q 494 111 501 104 l 494 118 q 493 132 493 119 l 493 150 m 200 50 l 204 50 l 210 49 l 210 44 l 210 40 l 204 40 l 199 40 l 194 38 q 193 33 193 35 l 192 29 l 192 25 l 197 25 l 204 25 l 204 19 l 204 15 l 194 15 l 188 15 l 185 14 l 186 14 l 188 11 l 192 8 l 192 -10 l 192 -28 l 186 -28 l 182 -28 l 182 -7 l 182 15 l 178 15 l 176 15 l 175 17 l 175 19 q 176 24 175 22 l 178 25 l 181 25 l 182 26 l 182 31 q 196 49 183 46 l 200 50 m 575 50 l 579 50 l 585 50 l 585 17 l 585 1 l 585 -10 q 586 -15 585 -14 l 586 -17 l 589 -18 l 590 -19 l 590 -24 l 590 -26 l 589 -28 l 585 -26 q 582 -24 583 -25 q 579 -22 581 -22 l 576 -19 l 572 -24 q 549 -28 561 -32 q 536 -11 539 -22 q 538 10 533 0 q 550 24 539 19 l 554 26 l 557 26 q 567 24 561 25 q 575 17 574 21 l 581 13 q 578 18 579 14 l 576 22 l 576 28 q 575 36 575 32 l 575 50 m 568 13 q 561 17 565 15 q 551 14 560 17 q 544 -4 544 7 l 546 -7 l 547 -10 l 547 -14 q 557 -19 550 -17 q 568 -17 561 -21 q 575 -1 575 -10 q 568 13 575 6 m 626 44 l 626 50 l 631 50 l 635 49 l 636 44 l 636 39 l 631 39 l 626 39 l 626 44 m 397 32 l 397 39 l 401 39 l 407 39 l 407 32 l 407 25 l 413 25 l 419 25 l 419 19 l 419 15 l 410 15 l 404 15 l 401 14 l 403 13 l 403 11 l 404 11 l 406 10 l 407 7 l 407 -4 q 408 -17 407 -12 l 411 -18 l 415 -18 l 419 -18 l 419 -24 l 419 -28 l 414 -28 l 404 -26 l 400 -22 q 399 -14 399 -18 q 397 -1 397 -12 l 397 15 l 394 15 l 393 15 l 392 17 l 390 19 q 392 24 390 22 l 393 25 l 394 25 l 397 25 l 397 32 m 1051 32 l 1051 39 l 1056 39 l 1061 39 l 1061 32 l 1061 25 l 1067 25 l 1072 25 l 1072 19 l 1072 15 l 1064 15 l 1056 15 l 1058 11 l 1060 8 l 1061 4 l 1061 -4 l 1061 -18 l 1068 -18 l 1074 -18 l 1074 -24 l 1074 -29 l 1067 -28 q 1060 -26 1061 -28 l 1056 -24 l 1051 -21 l 1051 -3 l 1051 15 l 1047 15 l 1046 15 l 1044 17 l 1044 19 l 1044 24 l 1046 25 l 1047 25 l 1051 25 l 1051 32 m 249 25 q 261 25 256 28 q 267 22 264 24 q 271 19 269 19 l 274 17 l 274 21 q 275 25 274 24 l 278 25 l 282 25 l 282 -7 l 282 -25 l 282 -35 l 282 -40 l 279 -43 l 278 -46 l 274 -49 l 271 -50 l 265 -51 l 254 -51 l 239 -51 l 239 -47 l 239 -43 l 251 -43 q 261 -42 260 -43 l 267 -42 q 274 -29 274 -37 l 275 -25 l 276 -22 l 278 -17 q 274 -19 275 -18 q 261 -28 267 -25 q 247 -28 254 -31 q 240 -21 243 -26 q 235 -12 236 -17 q 233 -1 233 -11 q 235 8 233 7 q 240 18 236 14 q 249 25 242 22 m 265 14 l 260 17 l 251 15 q 243 4 244 13 q 246 -14 242 -3 q 258 -19 253 -21 q 271 -11 264 -19 q 272 1 274 -1 q 265 14 271 8 m 336 25 l 342 25 q 358 15 354 25 l 361 10 l 356 8 l 350 10 q 347 15 350 13 q 340 17 346 17 q 331 13 333 17 q 332 7 329 10 l 338 6 l 342 4 l 344 3 l 358 -3 q 361 -12 361 -11 l 361 -17 l 358 -22 q 338 -29 350 -31 q 319 -18 326 -28 q 318 -11 318 -15 l 322 -10 l 328 -10 l 328 -12 l 329 -14 l 332 -17 l 335 -18 l 338 -19 l 342 -19 q 349 -18 346 -19 l 350 -17 l 353 -14 l 353 -12 q 338 -6 353 -10 q 333 -4 335 -6 l 331 -3 l 325 0 q 321 6 324 1 q 319 13 319 8 q 325 21 321 17 l 331 25 l 336 25 m 681 19 q 689 25 685 24 q 706 24 693 26 q 718 14 711 21 q 719 10 718 11 l 721 7 l 721 0 q 713 -24 724 -15 q 689 -28 701 -32 q 672 -10 676 -24 q 671 1 671 -7 q 674 11 671 3 l 675 14 q 681 19 678 17 m 703 15 q 693 15 697 17 q 683 10 685 13 q 682 6 683 8 q 681 1 681 3 l 681 -8 q 694 -19 685 -18 q 710 -12 703 -22 q 713 3 714 -6 q 703 15 710 10 m 768 24 q 786 24 778 28 l 793 19 l 796 14 l 797 13 l 797 10 l 793 8 q 789 10 790 8 l 788 11 q 781 15 786 13 q 771 15 775 17 q 765 10 765 14 l 767 8 l 772 6 q 783 1 776 3 q 789 0 786 1 l 793 -1 q 797 -8 796 -4 q 794 -24 800 -21 q 776 -29 789 -29 q 763 -24 768 -29 q 756 -12 756 -19 l 757 -10 l 760 -10 l 764 -10 l 765 -12 q 778 -19 768 -19 q 789 -14 788 -19 q 788 -10 789 -11 l 779 -7 q 776 -6 778 -7 q 772 -4 775 -6 q 765 -1 768 -3 l 758 3 l 757 7 l 757 11 q 768 24 757 21 m 907 25 l 910 26 q 921 22 914 26 q 928 13 925 19 l 929 6 l 929 -10 l 929 -28 l 924 -28 l 919 -28 l 919 -12 l 919 7 q 915 14 917 13 q 906 15 908 17 q 897 8 900 14 l 896 6 l 894 0 l 894 -11 l 893 -28 l 889 -28 l 885 -28 l 885 -1 l 885 25 l 889 25 l 893 25 l 894 22 l 893 21 l 892 18 q 889 13 889 15 l 889 11 l 892 15 q 901 22 896 19 l 907 25 m 983 25 q 996 25 989 28 q 1007 18 1004 22 q 1013 11 1011 14 q 1015 7 1014 8 l 1015 1 l 1015 -6 l 994 -6 l 983 -6 l 978 -6 l 975 -6 l 974 -7 q 976 -12 974 -10 l 982 -18 q 993 -19 989 -21 q 1003 -14 1000 -17 l 1004 -11 l 1008 -11 q 1014 -12 1013 -11 l 1011 -18 q 997 -28 1003 -25 q 981 -28 989 -31 q 964 -1 964 -22 q 983 25 965 19 m 994 17 l 990 17 l 983 15 l 981 13 l 978 11 q 975 6 975 8 l 974 3 l 989 3 l 1000 3 q 1004 4 1003 3 l 1004 6 l 1003 10 l 997 14 l 994 17 m 454 25 l 458 25 l 463 25 l 463 6 l 463 -6 q 464 -11 463 -10 l 464 -14 l 465 -17 q 476 -19 469 -22 q 485 -12 482 -18 l 488 -8 l 488 -3 l 488 8 l 489 25 l 493 25 l 497 25 l 497 6 l 497 -15 l 500 -17 l 503 -19 l 503 -24 l 501 -28 q 496 -25 499 -28 q 490 -19 492 -24 l 488 -17 l 486 -24 q 481 -28 485 -25 q 471 -29 479 -29 q 461 -26 469 -29 l 458 -24 l 456 -19 l 456 -15 q 454 -8 454 -12 l 454 6 l 454 25 m 626 -1 l 626 25 l 631 25 l 635 24 l 636 -1 l 636 -28 l 631 -28 l 626 -28 l 626 -1 m 839 -15 l 842 -15 l 847 -15 l 847 -22 l 847 -28 l 842 -28 l 835 -28 l 835 -22 q 836 -18 835 -19 l 836 -17 l 839 -15 z "},"6":{"ha":1250,"x_min":83,"x_max":1167,"o":"m 421 1033 l 631 1033 l 926 1033 l 942 1031 q 1063 978 1006 1018 q 1085 957 1078 963 q 1107 932 1100 942 q 1160 826 1146 885 q 1161 822 1161 824 q 1163 815 1161 818 q 1164 807 1163 808 q 1165 803 1165 806 q 1167 797 1167 799 l 1167 788 l 1167 749 l 1167 676 l 1167 651 l 1167 564 l 1167 514 q 1165 489 1167 493 q 1164 481 1164 488 q 1163 472 1164 474 q 1085 332 1146 390 q 940 258 1025 272 l 924 256 l 632 256 q 486 254 592 254 q 397 256 411 254 l 347 256 q 324 257 326 256 q 307 258 311 257 l 307 260 q 147 351 211 276 q 86 482 100 407 l 83 499 l 83 643 l 83 788 l 86 803 q 163 954 101 894 q 328 1032 229 1021 q 421 1033 383 1032 m 699 774 q 664 772 685 779 q 638 747 647 765 q 636 742 636 744 q 635 736 635 739 l 635 726 l 635 718 q 636 713 635 714 l 638 707 q 660 685 647 690 q 690 679 674 676 q 725 703 714 683 q 729 744 736 722 q 717 763 725 754 q 699 774 706 771 m 854 728 l 854 776 l 842 776 l 829 776 l 829 754 l 828 733 l 815 754 l 801 775 l 789 775 l 775 775 l 775 726 l 775 679 l 789 679 l 803 679 l 803 700 l 803 722 l 817 701 l 831 679 l 843 679 l 854 679 l 854 728 m 222 775 l 215 775 l 200 775 l 179 775 l 179 726 l 179 679 l 192 679 l 206 679 l 206 694 l 206 710 l 215 711 q 225 713 224 711 l 231 714 q 249 744 251 724 q 228 774 247 765 l 222 775 m 353 763 l 353 775 l 322 775 l 290 775 l 290 726 l 290 679 l 322 679 l 353 679 l 353 692 l 353 704 l 335 704 l 318 704 l 318 708 l 318 714 l 333 714 l 349 714 l 349 726 l 349 739 l 333 739 l 318 739 l 318 744 l 318 749 l 335 749 l 353 749 l 353 763 m 449 775 l 424 775 l 400 775 l 400 728 l 400 679 l 413 679 l 426 679 l 426 694 l 426 707 l 428 710 l 432 706 l 433 701 q 439 694 436 697 l 449 679 l 464 679 l 475 679 l 479 679 l 476 685 l 468 697 l 457 714 l 461 718 q 465 724 464 721 l 468 728 q 471 733 471 731 l 471 742 l 471 751 q 469 756 471 754 q 454 771 464 765 l 449 775 m 567 774 q 553 775 564 775 q 538 772 549 775 q 515 749 517 765 q 517 738 515 739 q 521 729 517 733 q 549 717 528 721 l 554 717 l 558 715 l 561 714 l 565 710 l 565 708 l 564 706 q 553 704 556 703 q 543 708 544 704 l 540 711 l 533 710 l 532 710 q 526 708 529 708 q 521 707 525 707 l 515 704 l 517 697 q 542 679 522 683 q 576 683 558 675 q 592 711 594 692 q 558 739 592 733 q 551 740 556 740 q 544 749 540 744 q 553 751 547 751 q 561 747 558 751 l 564 744 l 578 747 q 585 749 579 749 q 589 750 588 749 l 590 751 l 589 753 q 582 765 588 760 q 567 774 575 772 m 954 775 l 939 775 l 925 775 l 910 728 q 900 694 910 726 q 894 679 897 688 l 899 679 l 908 679 l 922 679 l 924 685 l 925 690 l 940 689 l 954 689 l 956 683 l 957 679 l 971 679 l 982 679 l 985 681 l 982 688 q 971 722 976 706 q 963 749 969 731 q 960 754 961 750 q 960 760 960 758 l 957 767 l 957 768 l 954 775 m 1050 740 l 1050 775 l 1038 775 l 1024 775 l 1024 726 l 1024 679 l 1051 679 l 1079 679 l 1079 692 l 1079 704 l 1065 704 l 1050 704 l 1050 740 m 685 607 q 643 596 663 611 q 628 553 624 576 q 654 515 631 529 q 657 514 656 514 q 661 513 660 513 l 667 511 l 676 511 l 686 511 q 692 513 689 511 l 697 515 q 711 525 703 517 q 721 538 718 532 q 725 568 728 553 q 710 594 721 583 q 685 607 700 606 m 849 560 l 849 608 l 835 608 q 822 607 824 608 l 821 600 l 821 586 l 821 567 l 808 586 l 794 607 l 782 607 l 769 607 l 769 558 l 769 511 l 783 511 l 796 511 l 796 532 l 797 554 l 811 532 l 824 511 l 836 511 l 849 511 l 849 560 m 231 607 l 217 607 l 204 607 l 204 572 l 204 538 l 208 532 q 217 521 211 525 q 229 513 222 514 q 243 511 232 511 q 258 513 256 511 q 272 522 264 514 q 279 535 278 528 l 282 539 l 282 542 l 282 551 l 282 574 l 282 607 l 269 607 l 256 607 l 256 578 l 256 554 l 254 543 l 251 540 l 250 538 q 243 536 249 536 l 235 539 l 232 544 q 231 554 231 549 l 231 578 l 231 607 m 381 606 q 367 607 378 607 q 350 606 353 607 q 340 600 343 603 q 332 592 333 596 l 329 588 q 328 581 328 585 l 329 569 q 335 561 331 565 q 346 554 338 557 q 350 553 349 554 q 353 551 351 551 q 357 550 356 550 q 363 549 358 549 q 378 542 378 546 q 374 536 378 539 q 364 536 368 535 q 356 540 358 536 l 353 543 l 340 540 q 332 539 338 539 q 326 538 331 538 l 328 535 l 331 529 q 332 525 331 526 l 333 522 q 363 511 344 511 q 400 525 389 510 l 401 528 l 404 531 l 404 536 q 375 571 407 564 q 358 576 361 574 q 357 582 356 579 l 361 583 l 365 583 l 371 583 l 374 579 l 376 576 l 389 579 q 394 581 392 579 l 399 582 l 401 582 l 403 585 l 400 589 q 381 606 393 601 m 511 594 l 511 607 l 481 607 l 449 607 l 449 558 l 449 511 l 481 511 l 511 511 l 511 524 l 511 536 l 493 536 l 476 536 l 476 542 l 476 546 l 492 546 l 507 546 l 507 558 l 507 571 l 492 571 l 476 571 l 476 576 l 476 582 l 493 582 l 511 582 l 511 594 m 922 572 l 922 607 l 910 607 l 896 607 l 896 558 l 896 511 l 924 511 l 951 511 l 951 524 l 951 536 l 936 536 l 922 536 l 922 572 m 994 607 l 979 607 l 963 607 l 965 604 l 967 603 l 969 599 l 971 594 q 974 590 972 593 q 976 586 975 588 q 979 581 978 583 q 982 576 981 578 l 996 551 l 996 531 l 996 511 l 1008 511 l 1022 511 l 1022 531 l 1022 551 l 1036 576 q 1049 596 1039 582 l 1053 604 l 1054 607 l 1039 607 l 1024 607 l 1017 594 q 1013 586 1014 589 l 1008 582 l 1007 586 q 1001 594 1004 589 l 994 607 m 674 749 q 699 743 688 754 q 703 717 710 732 q 681 704 694 703 q 661 721 667 707 q 664 738 660 726 q 674 749 665 743 m 206 742 l 206 749 l 213 749 l 219 749 l 221 743 q 219 738 221 739 l 213 735 l 206 735 l 206 742 m 426 742 l 426 749 l 435 749 l 443 749 l 444 742 q 433 735 444 735 l 426 735 l 426 742 m 939 736 l 940 738 l 942 732 q 943 726 943 729 l 947 714 l 940 714 l 933 714 l 933 718 l 935 721 q 936 728 935 726 l 938 729 l 939 736 m 656 567 q 667 581 657 576 q 686 581 676 585 q 697 565 694 575 q 693 544 700 553 q 675 536 686 536 q 657 547 664 536 q 656 567 651 557 m 194 169 q 213 171 208 172 q 220 167 215 169 q 226 165 225 165 l 232 161 l 233 158 l 235 156 q 236 151 236 153 l 232 150 l 229 151 l 226 154 q 210 164 218 163 q 190 156 197 164 q 183 135 182 149 q 193 115 185 121 q 214 113 199 110 q 225 121 221 115 q 229 129 229 125 l 229 132 l 219 132 l 210 132 l 210 136 l 210 140 l 224 140 l 236 140 l 236 122 l 236 106 l 233 106 l 229 107 l 232 114 q 233 118 233 117 l 232 118 l 231 117 l 228 114 q 207 104 222 104 q 179 121 189 104 q 178 125 178 124 l 176 129 l 176 138 l 176 146 q 178 150 176 149 l 179 154 q 194 169 186 167 m 461 171 l 468 171 l 468 167 l 468 163 l 463 163 l 457 163 l 454 160 l 454 157 l 453 153 l 453 150 l 458 150 l 464 150 l 464 146 l 464 142 l 457 142 l 451 142 l 447 140 l 449 140 l 450 138 l 453 135 l 453 131 l 453 119 l 453 106 l 449 106 l 444 106 l 444 124 l 444 142 l 442 142 l 440 143 l 439 146 q 440 150 439 149 l 442 150 l 444 151 l 444 154 q 451 168 444 161 q 461 171 454 171 m 565 138 l 565 171 l 569 171 l 574 171 l 574 138 l 574 106 l 569 106 l 565 106 l 565 138 m 604 138 l 604 171 l 608 171 l 613 171 l 613 138 l 613 106 l 608 106 l 604 106 l 604 138 m 713 171 l 719 171 l 719 167 l 719 163 l 714 163 l 710 163 l 707 160 l 706 157 l 704 153 l 704 150 l 710 150 l 717 150 l 717 146 l 717 142 l 708 142 l 703 142 l 700 140 l 701 138 l 704 135 l 704 131 l 704 119 l 704 106 l 700 106 l 696 106 l 696 124 l 696 142 l 694 142 l 692 143 l 692 146 l 692 150 l 694 150 l 696 151 l 696 154 q 704 168 696 161 q 713 171 707 171 m 342 161 l 346 161 l 350 161 l 350 156 l 350 150 l 356 150 l 360 150 l 360 146 l 360 142 l 353 142 q 347 138 342 142 l 349 136 l 350 133 l 350 125 l 350 114 l 356 113 l 361 113 l 361 108 l 361 106 l 354 106 l 349 106 l 344 108 l 342 111 l 342 126 l 342 142 l 339 142 l 336 143 l 335 146 q 336 150 335 149 l 339 150 l 342 150 l 342 151 l 342 156 l 342 161 m 883 161 l 888 161 l 890 161 l 890 156 l 890 150 l 896 150 l 901 150 l 901 146 l 901 142 l 894 142 l 888 142 l 886 140 l 888 140 l 889 138 l 890 138 l 890 135 l 890 128 l 892 115 q 897 113 894 113 l 901 113 l 903 113 l 903 108 l 903 106 l 897 106 l 892 106 l 888 108 l 883 111 l 883 126 l 883 142 l 881 142 l 879 143 l 878 146 q 879 150 878 149 l 881 150 l 883 150 l 883 151 l 883 156 l 883 161 m 1050 161 l 1054 161 l 1058 161 l 1058 156 l 1058 150 l 1063 150 l 1068 150 l 1068 146 l 1068 142 l 1061 142 l 1056 142 l 1053 140 l 1054 140 l 1056 138 l 1057 138 l 1058 135 l 1058 128 l 1060 115 q 1065 113 1060 113 l 1068 113 l 1069 113 l 1069 108 l 1069 106 l 1064 106 l 1058 106 l 1054 108 l 1050 111 l 1050 126 l 1050 142 l 1047 142 l 1046 143 l 1044 146 q 1046 150 1044 149 l 1047 150 l 1050 150 l 1050 151 l 1050 156 l 1050 161 m 282 149 q 301 147 293 153 q 311 129 310 139 l 311 125 l 293 125 l 281 125 l 276 122 l 278 118 q 288 113 279 113 q 299 115 292 111 q 304 119 301 118 l 308 119 l 310 118 l 307 114 l 301 108 q 297 106 299 107 q 286 106 292 104 q 276 107 278 106 q 268 129 267 115 q 282 149 269 143 m 297 140 l 288 143 q 278 136 281 140 l 278 133 l 276 132 l 281 132 q 289 131 285 131 q 297 132 296 131 l 301 132 l 303 135 l 300 138 l 297 140 m 754 149 q 763 150 756 150 q 771 149 769 150 q 783 126 783 142 q 781 114 783 125 q 769 106 776 108 q 758 104 760 103 q 747 110 751 106 q 742 121 743 114 q 740 135 739 131 q 746 143 742 139 q 754 149 750 147 m 769 140 q 751 139 758 147 q 750 118 744 128 q 760 113 751 113 q 771 114 763 111 q 775 128 775 121 q 769 140 775 136 m 828 149 q 840 150 838 151 q 849 142 847 147 l 850 136 l 850 122 l 850 106 l 847 106 l 843 106 l 843 121 l 843 132 l 843 138 l 840 140 l 836 143 l 828 140 q 824 135 824 139 l 824 132 q 822 126 822 128 q 821 119 821 124 l 821 106 l 817 106 l 814 106 l 814 128 l 814 150 l 818 150 l 821 149 l 819 144 l 818 142 l 817 139 l 817 136 l 818 139 l 819 142 q 824 146 822 144 l 828 149 m 997 150 l 1001 150 q 1015 144 1011 150 q 1018 126 1018 133 l 1018 119 l 1018 115 l 1019 114 l 1022 111 l 1022 107 l 1019 106 q 1013 113 1015 106 l 1010 117 l 1010 114 q 1006 107 1007 108 q 996 104 1003 104 q 985 108 989 104 q 982 118 981 113 q 989 128 982 124 l 994 131 q 1001 132 1000 131 l 1007 133 l 1010 133 l 1010 135 l 1008 138 l 1004 142 q 996 143 1003 143 q 990 138 992 142 l 989 136 l 985 136 l 982 138 l 983 142 l 988 146 l 992 149 q 997 150 994 150 m 1008 126 l 1003 125 l 1001 125 q 997 124 999 125 l 994 122 l 992 121 l 990 119 l 989 117 q 997 111 989 111 q 1006 115 1001 111 q 1010 124 1010 119 l 1008 126 m 493 150 l 497 150 l 501 150 l 501 133 l 501 122 q 503 117 501 118 l 503 114 q 513 113 510 111 q 521 118 517 114 q 522 125 522 121 l 522 136 l 524 150 l 526 150 l 531 150 l 531 132 l 531 124 l 531 118 l 532 115 l 533 114 l 535 111 l 535 107 l 533 106 q 528 108 531 106 l 526 111 q 524 114 525 114 l 522 115 l 521 111 l 518 106 l 510 104 q 494 111 501 104 l 494 118 q 493 132 493 119 l 493 150 m 200 50 l 204 50 l 210 49 l 210 44 l 210 40 l 204 40 l 199 40 l 194 38 q 193 33 193 35 l 192 29 l 192 25 l 197 25 l 204 25 l 204 19 l 204 15 l 194 15 l 188 15 l 185 14 l 186 14 l 188 11 l 192 8 l 192 -10 l 192 -28 l 186 -28 l 182 -28 l 182 -7 l 182 15 l 178 15 l 176 15 l 175 17 l 175 19 q 176 24 175 22 l 178 25 l 181 25 l 182 26 l 182 31 q 196 49 183 46 l 200 50 m 575 50 l 579 50 l 585 50 l 585 17 l 585 1 l 585 -10 q 586 -15 585 -14 l 586 -17 l 589 -18 l 590 -19 l 590 -24 l 590 -26 l 589 -28 l 585 -26 q 582 -24 583 -25 q 579 -22 581 -22 l 576 -19 l 572 -24 q 549 -28 561 -32 q 536 -11 539 -22 q 538 10 533 0 q 550 24 539 19 l 554 26 l 557 26 q 567 24 561 25 q 575 17 574 21 l 581 13 q 578 18 579 14 l 576 22 l 576 28 q 575 36 575 32 l 575 50 m 568 13 q 561 17 565 15 q 551 14 560 17 q 544 -4 544 7 l 546 -7 l 547 -10 l 547 -14 q 557 -19 550 -17 q 568 -17 561 -21 q 575 -1 575 -10 q 568 13 575 6 m 626 44 l 626 50 l 631 50 l 635 49 l 636 44 l 636 39 l 631 39 l 626 39 l 626 44 m 397 32 l 397 39 l 401 39 l 407 39 l 407 32 l 407 25 l 413 25 l 419 25 l 419 19 l 419 15 l 410 15 l 404 15 l 401 14 l 403 13 l 403 11 l 404 11 l 406 10 l 407 7 l 407 -4 q 408 -17 407 -12 l 411 -18 l 415 -18 l 419 -18 l 419 -24 l 419 -28 l 414 -28 l 404 -26 l 400 -22 q 399 -14 399 -18 q 397 -1 397 -12 l 397 15 l 394 15 l 393 15 l 392 17 l 390 19 q 392 24 390 22 l 393 25 l 394 25 l 397 25 l 397 32 m 1051 32 l 1051 39 l 1056 39 l 1061 39 l 1061 32 l 1061 25 l 1067 25 l 1072 25 l 1072 19 l 1072 15 l 1064 15 l 1056 15 l 1058 11 l 1060 8 l 1061 4 l 1061 -4 l 1061 -18 l 1068 -18 l 1074 -18 l 1074 -24 l 1074 -29 l 1067 -28 q 1060 -26 1061 -28 l 1056 -24 l 1051 -21 l 1051 -3 l 1051 15 l 1047 15 l 1046 15 l 1044 17 l 1044 19 l 1044 24 l 1046 25 l 1047 25 l 1051 25 l 1051 32 m 249 25 q 261 25 256 28 q 267 22 264 24 q 271 19 269 19 l 274 17 l 274 21 q 275 25 274 24 l 278 25 l 282 25 l 282 -7 l 282 -25 l 282 -35 l 282 -40 l 279 -43 l 278 -46 l 274 -49 l 271 -50 l 265 -51 l 254 -51 l 239 -51 l 239 -47 l 239 -43 l 251 -43 q 261 -42 260 -43 l 267 -42 q 274 -29 274 -37 l 275 -25 l 276 -22 l 278 -17 q 274 -19 275 -18 q 261 -28 267 -25 q 247 -28 254 -31 q 240 -21 243 -26 q 235 -12 236 -17 q 233 -1 233 -11 q 235 8 233 7 q 240 18 236 14 q 249 25 242 22 m 265 14 l 260 17 l 251 15 q 243 4 244 13 q 246 -14 242 -3 q 258 -19 253 -21 q 271 -11 264 -19 q 272 1 274 -1 q 265 14 271 8 m 336 25 l 342 25 q 358 15 354 25 l 361 10 l 356 8 l 350 10 q 347 15 350 13 q 340 17 346 17 q 331 13 333 17 q 332 7 329 10 l 338 6 l 342 4 l 344 3 l 358 -3 q 361 -12 361 -11 l 361 -17 l 358 -22 q 338 -29 350 -31 q 319 -18 326 -28 q 318 -11 318 -15 l 322 -10 l 328 -10 l 328 -12 l 329 -14 l 332 -17 l 335 -18 l 338 -19 l 342 -19 q 349 -18 346 -19 l 350 -17 l 353 -14 l 353 -12 q 338 -6 353 -10 q 333 -4 335 -6 l 331 -3 l 325 0 q 321 6 324 1 q 319 13 319 8 q 325 21 321 17 l 331 25 l 336 25 m 681 19 q 689 25 685 24 q 706 24 693 26 q 718 14 711 21 q 719 10 718 11 l 721 7 l 721 0 q 713 -24 724 -15 q 689 -28 701 -32 q 672 -10 676 -24 q 671 1 671 -7 q 674 11 671 3 l 675 14 q 681 19 678 17 m 703 15 q 693 15 697 17 q 683 10 685 13 q 682 6 683 8 q 681 1 681 3 l 681 -8 q 694 -19 685 -18 q 710 -12 703 -22 q 713 3 714 -6 q 703 15 710 10 m 768 24 q 786 24 778 28 l 793 19 l 796 14 l 797 13 l 797 10 l 793 8 q 789 10 790 8 l 788 11 q 781 15 786 13 q 771 15 775 17 q 765 10 765 14 l 767 8 l 772 6 q 783 1 776 3 q 789 0 786 1 l 793 -1 q 797 -8 796 -4 q 794 -24 800 -21 q 776 -29 789 -29 q 763 -24 768 -29 q 756 -12 756 -19 l 757 -10 l 760 -10 l 764 -10 l 765 -12 q 778 -19 768 -19 q 789 -14 788 -19 q 788 -10 789 -11 l 779 -7 q 776 -6 778 -7 q 772 -4 775 -6 q 765 -1 768 -3 l 758 3 l 757 7 l 757 11 q 768 24 757 21 m 907 25 l 910 26 q 921 22 914 26 q 928 13 925 19 l 929 6 l 929 -10 l 929 -28 l 924 -28 l 919 -28 l 919 -12 l 919 7 q 915 14 917 13 q 906 15 908 17 q 897 8 900 14 l 896 6 l 894 0 l 894 -11 l 893 -28 l 889 -28 l 885 -28 l 885 -1 l 885 25 l 889 25 l 893 25 l 894 22 l 893 21 l 892 18 q 889 13 889 15 l 889 11 l 892 15 q 901 22 896 19 l 907 25 m 983 25 q 996 25 989 28 q 1007 18 1004 22 q 1013 11 1011 14 q 1015 7 1014 8 l 1015 1 l 1015 -6 l 994 -6 l 983 -6 l 978 -6 l 975 -6 l 974 -7 q 976 -12 974 -10 l 982 -18 q 993 -19 989 -21 q 1003 -14 1000 -17 l 1004 -11 l 1008 -11 q 1014 -12 1013 -11 l 1011 -18 q 997 -28 1003 -25 q 981 -28 989 -31 q 964 -1 964 -22 q 983 25 965 19 m 994 17 l 990 17 l 983 15 l 981 13 l 978 11 q 975 6 975 8 l 974 3 l 989 3 l 1000 3 q 1004 4 1003 3 l 1004 6 l 1003 10 l 997 14 l 994 17 m 454 25 l 458 25 l 463 25 l 463 6 l 463 -6 q 464 -11 463 -10 l 464 -14 l 465 -17 q 476 -19 469 -22 q 485 -12 482 -18 l 488 -8 l 488 -3 l 488 8 l 489 25 l 493 25 l 497 25 l 497 6 l 497 -15 l 500 -17 l 503 -19 l 503 -24 l 501 -28 q 496 -25 499 -28 q 490 -19 492 -24 l 488 -17 l 486 -24 q 481 -28 485 -25 q 471 -29 479 -29 q 461 -26 469 -29 l 458 -24 l 456 -19 l 456 -15 q 454 -8 454 -12 l 454 6 l 454 25 m 626 -1 l 626 25 l 631 25 l 635 24 l 636 -1 l 636 -28 l 631 -28 l 626 -28 l 626 -1 m 839 -15 l 842 -15 l 847 -15 l 847 -22 l 847 -28 l 842 -28 l 835 -28 l 835 -22 q 836 -18 835 -19 l 836 -17 l 839 -15 z "},"7":{"ha":1250,"x_min":83,"x_max":1167,"o":"m 421 1033 l 631 1033 l 926 1033 l 942 1031 q 1063 978 1006 1018 q 1085 957 1078 963 q 1107 932 1100 942 q 1160 826 1146 885 q 1161 822 1161 824 q 1163 815 1161 818 q 1164 807 1163 808 q 1165 803 1165 806 q 1167 797 1167 799 l 1167 788 l 1167 749 l 1167 676 l 1167 651 l 1167 564 l 1167 514 q 1165 489 1167 493 q 1164 481 1164 488 q 1163 472 1164 474 q 1085 332 1146 390 q 940 258 1025 272 l 924 256 l 632 256 q 486 254 592 254 q 397 256 411 254 l 347 256 q 324 257 326 256 q 307 258 311 257 l 307 260 q 147 351 211 276 q 86 482 100 407 l 83 499 l 83 643 l 83 788 l 86 803 q 163 954 101 894 q 328 1032 229 1021 q 421 1033 383 1032 m 699 774 q 664 772 685 779 q 638 747 647 765 q 636 742 636 744 q 635 736 635 739 l 635 726 l 635 718 q 636 713 635 714 l 638 707 q 660 685 647 690 q 690 679 674 676 q 725 703 714 683 q 729 744 736 722 q 717 763 725 754 q 699 774 706 771 m 854 728 l 854 776 l 842 776 l 829 776 l 829 754 l 828 733 l 815 754 l 801 775 l 789 775 l 775 775 l 775 726 l 775 679 l 789 679 l 803 679 l 803 700 l 803 722 l 817 701 l 831 679 l 843 679 l 854 679 l 854 728 m 222 775 l 215 775 l 200 775 l 179 775 l 179 726 l 179 679 l 192 679 l 206 679 l 206 694 l 206 710 l 215 711 q 225 713 224 711 l 231 714 q 249 744 251 724 q 228 774 247 765 l 222 775 m 353 763 l 353 775 l 322 775 l 290 775 l 290 726 l 290 679 l 322 679 l 353 679 l 353 692 l 353 704 l 335 704 l 318 704 l 318 708 l 318 714 l 333 714 l 349 714 l 349 726 l 349 739 l 333 739 l 318 739 l 318 744 l 318 749 l 335 749 l 353 749 l 353 763 m 449 775 l 424 775 l 400 775 l 400 728 l 400 679 l 413 679 l 426 679 l 426 694 l 426 707 l 428 710 l 432 706 l 433 701 q 439 694 436 697 l 449 679 l 464 679 l 475 679 l 479 679 l 476 685 l 468 697 l 457 714 l 461 718 q 465 724 464 721 l 468 728 q 471 733 471 731 l 471 742 l 471 751 q 469 756 471 754 q 454 771 464 765 l 449 775 m 567 774 q 553 775 564 775 q 538 772 549 775 q 515 749 517 765 q 517 738 515 739 q 521 729 517 733 q 549 717 528 721 l 554 717 l 558 715 l 561 714 l 565 710 l 565 708 l 564 706 q 553 704 556 703 q 543 708 544 704 l 540 711 l 533 710 l 532 710 q 526 708 529 708 q 521 707 525 707 l 515 704 l 517 697 q 542 679 522 683 q 576 683 558 675 q 592 711 594 692 q 558 739 592 733 q 551 740 556 740 q 544 749 540 744 q 553 751 547 751 q 561 747 558 751 l 564 744 l 578 747 q 585 749 579 749 q 589 750 588 749 l 590 751 l 589 753 q 582 765 588 760 q 567 774 575 772 m 954 775 l 939 775 l 925 775 l 910 728 q 900 694 910 726 q 894 679 897 688 l 899 679 l 908 679 l 922 679 l 924 685 l 925 690 l 940 689 l 954 689 l 956 683 l 957 679 l 971 679 l 982 679 l 985 681 l 982 688 q 971 722 976 706 q 963 749 969 731 q 960 754 961 750 q 960 760 960 758 l 957 767 l 957 768 l 954 775 m 1050 740 l 1050 775 l 1038 775 l 1024 775 l 1024 726 l 1024 679 l 1051 679 l 1079 679 l 1079 692 l 1079 704 l 1065 704 l 1050 704 l 1050 740 m 685 607 q 643 596 663 611 q 628 553 624 576 q 654 515 631 529 q 657 514 656 514 q 661 513 660 513 l 667 511 l 676 511 l 686 511 q 692 513 689 511 l 697 515 q 711 525 703 517 q 721 538 718 532 q 725 568 728 553 q 710 594 721 583 q 685 607 700 606 m 849 560 l 849 608 l 835 608 q 822 607 824 608 l 821 600 l 821 586 l 821 567 l 808 586 l 794 607 l 782 607 l 769 607 l 769 558 l 769 511 l 783 511 l 796 511 l 796 532 l 797 554 l 811 532 l 824 511 l 836 511 l 849 511 l 849 560 m 231 607 l 217 607 l 204 607 l 204 572 l 204 538 l 208 532 q 217 521 211 525 q 229 513 222 514 q 243 511 232 511 q 258 513 256 511 q 272 522 264 514 q 279 535 278 528 l 282 539 l 282 542 l 282 551 l 282 574 l 282 607 l 269 607 l 256 607 l 256 578 l 256 554 l 254 543 l 251 540 l 250 538 q 243 536 249 536 l 235 539 l 232 544 q 231 554 231 549 l 231 578 l 231 607 m 381 606 q 367 607 378 607 q 350 606 353 607 q 340 600 343 603 q 332 592 333 596 l 329 588 q 328 581 328 585 l 329 569 q 335 561 331 565 q 346 554 338 557 q 350 553 349 554 q 353 551 351 551 q 357 550 356 550 q 363 549 358 549 q 378 542 378 546 q 374 536 378 539 q 364 536 368 535 q 356 540 358 536 l 353 543 l 340 540 q 332 539 338 539 q 326 538 331 538 l 328 535 l 331 529 q 332 525 331 526 l 333 522 q 363 511 344 511 q 400 525 389 510 l 401 528 l 404 531 l 404 536 q 375 571 407 564 q 358 576 361 574 q 357 582 356 579 l 361 583 l 365 583 l 371 583 l 374 579 l 376 576 l 389 579 q 394 581 392 579 l 399 582 l 401 582 l 403 585 l 400 589 q 381 606 393 601 m 511 594 l 511 607 l 481 607 l 449 607 l 449 558 l 449 511 l 481 511 l 511 511 l 511 524 l 511 536 l 493 536 l 476 536 l 476 542 l 476 546 l 492 546 l 507 546 l 507 558 l 507 571 l 492 571 l 476 571 l 476 576 l 476 582 l 493 582 l 511 582 l 511 594 m 922 572 l 922 607 l 910 607 l 896 607 l 896 558 l 896 511 l 924 511 l 951 511 l 951 524 l 951 536 l 936 536 l 922 536 l 922 572 m 994 607 l 979 607 l 963 607 l 965 604 l 967 603 l 969 599 l 971 594 q 974 590 972 593 q 976 586 975 588 q 979 581 978 583 q 982 576 981 578 l 996 551 l 996 531 l 996 511 l 1008 511 l 1022 511 l 1022 531 l 1022 551 l 1036 576 q 1049 596 1039 582 l 1053 604 l 1054 607 l 1039 607 l 1024 607 l 1017 594 q 1013 586 1014 589 l 1008 582 l 1007 586 q 1001 594 1004 589 l 994 607 m 674 749 q 699 743 688 754 q 703 717 710 732 q 681 704 694 703 q 661 721 667 707 q 664 738 660 726 q 674 749 665 743 m 206 742 l 206 749 l 213 749 l 219 749 l 221 743 q 219 738 221 739 l 213 735 l 206 735 l 206 742 m 426 742 l 426 749 l 435 749 l 443 749 l 444 742 q 433 735 444 735 l 426 735 l 426 742 m 939 736 l 940 738 l 942 732 q 943 726 943 729 l 947 714 l 940 714 l 933 714 l 933 718 l 935 721 q 936 728 935 726 l 938 729 l 939 736 m 656 567 q 667 581 657 576 q 686 581 676 585 q 697 565 694 575 q 693 544 700 553 q 675 536 686 536 q 657 547 664 536 q 656 567 651 557 m 194 169 q 213 171 208 172 q 220 167 215 169 q 226 165 225 165 l 232 161 l 233 158 l 235 156 q 236 151 236 153 l 232 150 l 229 151 l 226 154 q 210 164 218 163 q 190 156 197 164 q 183 135 182 149 q 193 115 185 121 q 214 113 199 110 q 225 121 221 115 q 229 129 229 125 l 229 132 l 219 132 l 210 132 l 210 136 l 210 140 l 224 140 l 236 140 l 236 122 l 236 106 l 233 106 l 229 107 l 232 114 q 233 118 233 117 l 232 118 l 231 117 l 228 114 q 207 104 222 104 q 179 121 189 104 q 178 125 178 124 l 176 129 l 176 138 l 176 146 q 178 150 176 149 l 179 154 q 194 169 186 167 m 461 171 l 468 171 l 468 167 l 468 163 l 463 163 l 457 163 l 454 160 l 454 157 l 453 153 l 453 150 l 458 150 l 464 150 l 464 146 l 464 142 l 457 142 l 451 142 l 447 140 l 449 140 l 450 138 l 453 135 l 453 131 l 453 119 l 453 106 l 449 106 l 444 106 l 444 124 l 444 142 l 442 142 l 440 143 l 439 146 q 440 150 439 149 l 442 150 l 444 151 l 444 154 q 451 168 444 161 q 461 171 454 171 m 565 138 l 565 171 l 569 171 l 574 171 l 574 138 l 574 106 l 569 106 l 565 106 l 565 138 m 604 138 l 604 171 l 608 171 l 613 171 l 613 138 l 613 106 l 608 106 l 604 106 l 604 138 m 713 171 l 719 171 l 719 167 l 719 163 l 714 163 l 710 163 l 707 160 l 706 157 l 704 153 l 704 150 l 710 150 l 717 150 l 717 146 l 717 142 l 708 142 l 703 142 l 700 140 l 701 138 l 704 135 l 704 131 l 704 119 l 704 106 l 700 106 l 696 106 l 696 124 l 696 142 l 694 142 l 692 143 l 692 146 l 692 150 l 694 150 l 696 151 l 696 154 q 704 168 696 161 q 713 171 707 171 m 342 161 l 346 161 l 350 161 l 350 156 l 350 150 l 356 150 l 360 150 l 360 146 l 360 142 l 353 142 q 347 138 342 142 l 349 136 l 350 133 l 350 125 l 350 114 l 356 113 l 361 113 l 361 108 l 361 106 l 354 106 l 349 106 l 344 108 l 342 111 l 342 126 l 342 142 l 339 142 l 336 143 l 335 146 q 336 150 335 149 l 339 150 l 342 150 l 342 151 l 342 156 l 342 161 m 883 161 l 888 161 l 890 161 l 890 156 l 890 150 l 896 150 l 901 150 l 901 146 l 901 142 l 894 142 l 888 142 l 886 140 l 888 140 l 889 138 l 890 138 l 890 135 l 890 128 l 892 115 q 897 113 894 113 l 901 113 l 903 113 l 903 108 l 903 106 l 897 106 l 892 106 l 888 108 l 883 111 l 883 126 l 883 142 l 881 142 l 879 143 l 878 146 q 879 150 878 149 l 881 150 l 883 150 l 883 151 l 883 156 l 883 161 m 1050 161 l 1054 161 l 1058 161 l 1058 156 l 1058 150 l 1063 150 l 1068 150 l 1068 146 l 1068 142 l 1061 142 l 1056 142 l 1053 140 l 1054 140 l 1056 138 l 1057 138 l 1058 135 l 1058 128 l 1060 115 q 1065 113 1060 113 l 1068 113 l 1069 113 l 1069 108 l 1069 106 l 1064 106 l 1058 106 l 1054 108 l 1050 111 l 1050 126 l 1050 142 l 1047 142 l 1046 143 l 1044 146 q 1046 150 1044 149 l 1047 150 l 1050 150 l 1050 151 l 1050 156 l 1050 161 m 282 149 q 301 147 293 153 q 311 129 310 139 l 311 125 l 293 125 l 281 125 l 276 122 l 278 118 q 288 113 279 113 q 299 115 292 111 q 304 119 301 118 l 308 119 l 310 118 l 307 114 l 301 108 q 297 106 299 107 q 286 106 292 104 q 276 107 278 106 q 268 129 267 115 q 282 149 269 143 m 297 140 l 288 143 q 278 136 281 140 l 278 133 l 276 132 l 281 132 q 289 131 285 131 q 297 132 296 131 l 301 132 l 303 135 l 300 138 l 297 140 m 754 149 q 763 150 756 150 q 771 149 769 150 q 783 126 783 142 q 781 114 783 125 q 769 106 776 108 q 758 104 760 103 q 747 110 751 106 q 742 121 743 114 q 740 135 739 131 q 746 143 742 139 q 754 149 750 147 m 769 140 q 751 139 758 147 q 750 118 744 128 q 760 113 751 113 q 771 114 763 111 q 775 128 775 121 q 769 140 775 136 m 828 149 q 840 150 838 151 q 849 142 847 147 l 850 136 l 850 122 l 850 106 l 847 106 l 843 106 l 843 121 l 843 132 l 843 138 l 840 140 l 836 143 l 828 140 q 824 135 824 139 l 824 132 q 822 126 822 128 q 821 119 821 124 l 821 106 l 817 106 l 814 106 l 814 128 l 814 150 l 818 150 l 821 149 l 819 144 l 818 142 l 817 139 l 817 136 l 818 139 l 819 142 q 824 146 822 144 l 828 149 m 997 150 l 1001 150 q 1015 144 1011 150 q 1018 126 1018 133 l 1018 119 l 1018 115 l 1019 114 l 1022 111 l 1022 107 l 1019 106 q 1013 113 1015 106 l 1010 117 l 1010 114 q 1006 107 1007 108 q 996 104 1003 104 q 985 108 989 104 q 982 118 981 113 q 989 128 982 124 l 994 131 q 1001 132 1000 131 l 1007 133 l 1010 133 l 1010 135 l 1008 138 l 1004 142 q 996 143 1003 143 q 990 138 992 142 l 989 136 l 985 136 l 982 138 l 983 142 l 988 146 l 992 149 q 997 150 994 150 m 1008 126 l 1003 125 l 1001 125 q 997 124 999 125 l 994 122 l 992 121 l 990 119 l 989 117 q 997 111 989 111 q 1006 115 1001 111 q 1010 124 1010 119 l 1008 126 m 493 150 l 497 150 l 501 150 l 501 133 l 501 122 q 503 117 501 118 l 503 114 q 513 113 510 111 q 521 118 517 114 q 522 125 522 121 l 522 136 l 524 150 l 526 150 l 531 150 l 531 132 l 531 124 l 531 118 l 532 115 l 533 114 l 535 111 l 535 107 l 533 106 q 528 108 531 106 l 526 111 q 524 114 525 114 l 522 115 l 521 111 l 518 106 l 510 104 q 494 111 501 104 l 494 118 q 493 132 493 119 l 493 150 m 200 50 l 204 50 l 210 49 l 210 44 l 210 40 l 204 40 l 199 40 l 194 38 q 193 33 193 35 l 192 29 l 192 25 l 197 25 l 204 25 l 204 19 l 204 15 l 194 15 l 188 15 l 185 14 l 186 14 l 188 11 l 192 8 l 192 -10 l 192 -28 l 186 -28 l 182 -28 l 182 -7 l 182 15 l 178 15 l 176 15 l 175 17 l 175 19 q 176 24 175 22 l 178 25 l 181 25 l 182 26 l 182 31 q 196 49 183 46 l 200 50 m 575 50 l 579 50 l 585 50 l 585 17 l 585 1 l 585 -10 q 586 -15 585 -14 l 586 -17 l 589 -18 l 590 -19 l 590 -24 l 590 -26 l 589 -28 l 585 -26 q 582 -24 583 -25 q 579 -22 581 -22 l 576 -19 l 572 -24 q 549 -28 561 -32 q 536 -11 539 -22 q 538 10 533 0 q 550 24 539 19 l 554 26 l 557 26 q 567 24 561 25 q 575 17 574 21 l 581 13 q 578 18 579 14 l 576 22 l 576 28 q 575 36 575 32 l 575 50 m 568 13 q 561 17 565 15 q 551 14 560 17 q 544 -4 544 7 l 546 -7 l 547 -10 l 547 -14 q 557 -19 550 -17 q 568 -17 561 -21 q 575 -1 575 -10 q 568 13 575 6 m 626 44 l 626 50 l 631 50 l 635 49 l 636 44 l 636 39 l 631 39 l 626 39 l 626 44 m 397 32 l 397 39 l 401 39 l 407 39 l 407 32 l 407 25 l 413 25 l 419 25 l 419 19 l 419 15 l 410 15 l 404 15 l 401 14 l 403 13 l 403 11 l 404 11 l 406 10 l 407 7 l 407 -4 q 408 -17 407 -12 l 411 -18 l 415 -18 l 419 -18 l 419 -24 l 419 -28 l 414 -28 l 404 -26 l 400 -22 q 399 -14 399 -18 q 397 -1 397 -12 l 397 15 l 394 15 l 393 15 l 392 17 l 390 19 q 392 24 390 22 l 393 25 l 394 25 l 397 25 l 397 32 m 1051 32 l 1051 39 l 1056 39 l 1061 39 l 1061 32 l 1061 25 l 1067 25 l 1072 25 l 1072 19 l 1072 15 l 1064 15 l 1056 15 l 1058 11 l 1060 8 l 1061 4 l 1061 -4 l 1061 -18 l 1068 -18 l 1074 -18 l 1074 -24 l 1074 -29 l 1067 -28 q 1060 -26 1061 -28 l 1056 -24 l 1051 -21 l 1051 -3 l 1051 15 l 1047 15 l 1046 15 l 1044 17 l 1044 19 l 1044 24 l 1046 25 l 1047 25 l 1051 25 l 1051 32 m 249 25 q 261 25 256 28 q 267 22 264 24 q 271 19 269 19 l 274 17 l 274 21 q 275 25 274 24 l 278 25 l 282 25 l 282 -7 l 282 -25 l 282 -35 l 282 -40 l 279 -43 l 278 -46 l 274 -49 l 271 -50 l 265 -51 l 254 -51 l 239 -51 l 239 -47 l 239 -43 l 251 -43 q 261 -42 260 -43 l 267 -42 q 274 -29 274 -37 l 275 -25 l 276 -22 l 278 -17 q 274 -19 275 -18 q 261 -28 267 -25 q 247 -28 254 -31 q 240 -21 243 -26 q 235 -12 236 -17 q 233 -1 233 -11 q 235 8 233 7 q 240 18 236 14 q 249 25 242 22 m 265 14 l 260 17 l 251 15 q 243 4 244 13 q 246 -14 242 -3 q 258 -19 253 -21 q 271 -11 264 -19 q 272 1 274 -1 q 265 14 271 8 m 336 25 l 342 25 q 358 15 354 25 l 361 10 l 356 8 l 350 10 q 347 15 350 13 q 340 17 346 17 q 331 13 333 17 q 332 7 329 10 l 338 6 l 342 4 l 344 3 l 358 -3 q 361 -12 361 -11 l 361 -17 l 358 -22 q 338 -29 350 -31 q 319 -18 326 -28 q 318 -11 318 -15 l 322 -10 l 328 -10 l 328 -12 l 329 -14 l 332 -17 l 335 -18 l 338 -19 l 342 -19 q 349 -18 346 -19 l 350 -17 l 353 -14 l 353 -12 q 338 -6 353 -10 q 333 -4 335 -6 l 331 -3 l 325 0 q 321 6 324 1 q 319 13 319 8 q 325 21 321 17 l 331 25 l 336 25 m 681 19 q 689 25 685 24 q 706 24 693 26 q 718 14 711 21 q 719 10 718 11 l 721 7 l 721 0 q 713 -24 724 -15 q 689 -28 701 -32 q 672 -10 676 -24 q 671 1 671 -7 q 674 11 671 3 l 675 14 q 681 19 678 17 m 703 15 q 693 15 697 17 q 683 10 685 13 q 682 6 683 8 q 681 1 681 3 l 681 -8 q 694 -19 685 -18 q 710 -12 703 -22 q 713 3 714 -6 q 703 15 710 10 m 768 24 q 786 24 778 28 l 793 19 l 796 14 l 797 13 l 797 10 l 793 8 q 789 10 790 8 l 788 11 q 781 15 786 13 q 771 15 775 17 q 765 10 765 14 l 767 8 l 772 6 q 783 1 776 3 q 789 0 786 1 l 793 -1 q 797 -8 796 -4 q 794 -24 800 -21 q 776 -29 789 -29 q 763 -24 768 -29 q 756 -12 756 -19 l 757 -10 l 760 -10 l 764 -10 l 765 -12 q 778 -19 768 -19 q 789 -14 788 -19 q 788 -10 789 -11 l 779 -7 q 776 -6 778 -7 q 772 -4 775 -6 q 765 -1 768 -3 l 758 3 l 757 7 l 757 11 q 768 24 757 21 m 907 25 l 910 26 q 921 22 914 26 q 928 13 925 19 l 929 6 l 929 -10 l 929 -28 l 924 -28 l 919 -28 l 919 -12 l 919 7 q 915 14 917 13 q 906 15 908 17 q 897 8 900 14 l 896 6 l 894 0 l 894 -11 l 893 -28 l 889 -28 l 885 -28 l 885 -1 l 885 25 l 889 25 l 893 25 l 894 22 l 893 21 l 892 18 q 889 13 889 15 l 889 11 l 892 15 q 901 22 896 19 l 907 25 m 983 25 q 996 25 989 28 q 1007 18 1004 22 q 1013 11 1011 14 q 1015 7 1014 8 l 1015 1 l 1015 -6 l 994 -6 l 983 -6 l 978 -6 l 975 -6 l 974 -7 q 976 -12 974 -10 l 982 -18 q 993 -19 989 -21 q 1003 -14 1000 -17 l 1004 -11 l 1008 -11 q 1014 -12 1013 -11 l 1011 -18 q 997 -28 1003 -25 q 981 -28 989 -31 q 964 -1 964 -22 q 983 25 965 19 m 994 17 l 990 17 l 983 15 l 981 13 l 978 11 q 975 6 975 8 l 974 3 l 989 3 l 1000 3 q 1004 4 1003 3 l 1004 6 l 1003 10 l 997 14 l 994 17 m 454 25 l 458 25 l 463 25 l 463 6 l 463 -6 q 464 -11 463 -10 l 464 -14 l 465 -17 q 476 -19 469 -22 q 485 -12 482 -18 l 488 -8 l 488 -3 l 488 8 l 489 25 l 493 25 l 497 25 l 497 6 l 497 -15 l 500 -17 l 503 -19 l 503 -24 l 501 -28 q 496 -25 499 -28 q 490 -19 492 -24 l 488 -17 l 486 -24 q 481 -28 485 -25 q 471 -29 479 -29 q 461 -26 469 -29 l 458 -24 l 456 -19 l 456 -15 q 454 -8 454 -12 l 454 6 l 454 25 m 626 -1 l 626 25 l 631 25 l 635 24 l 636 -1 l 636 -28 l 631 -28 l 626 -28 l 626 -1 m 839 -15 l 842 -15 l 847 -15 l 847 -22 l 847 -28 l 842 -28 l 835 -28 l 835 -22 q 836 -18 835 -19 l 836 -17 l 839 -15 z "},"8":{"ha":1250,"x_min":83,"x_max":1167,"o":"m 421 1033 l 631 1033 l 926 1033 l 942 1031 q 1063 978 1006 1018 q 1085 957 1078 963 q 1107 932 1100 942 q 1160 826 1146 885 q 1161 822 1161 824 q 1163 815 1161 818 q 1164 807 1163 808 q 1165 803 1165 806 q 1167 797 1167 799 l 1167 788 l 1167 749 l 1167 676 l 1167 651 l 1167 564 l 1167 514 q 1165 489 1167 493 q 1164 481 1164 488 q 1163 472 1164 474 q 1085 332 1146 390 q 940 258 1025 272 l 924 256 l 632 256 q 486 254 592 254 q 397 256 411 254 l 347 256 q 324 257 326 256 q 307 258 311 257 l 307 260 q 147 351 211 276 q 86 482 100 407 l 83 499 l 83 643 l 83 788 l 86 803 q 163 954 101 894 q 328 1032 229 1021 q 421 1033 383 1032 m 699 774 q 664 772 685 779 q 638 747 647 765 q 636 742 636 744 q 635 736 635 739 l 635 726 l 635 718 q 636 713 635 714 l 638 707 q 660 685 647 690 q 690 679 674 676 q 725 703 714 683 q 729 744 736 722 q 717 763 725 754 q 699 774 706 771 m 854 728 l 854 776 l 842 776 l 829 776 l 829 754 l 828 733 l 815 754 l 801 775 l 789 775 l 775 775 l 775 726 l 775 679 l 789 679 l 803 679 l 803 700 l 803 722 l 817 701 l 831 679 l 843 679 l 854 679 l 854 728 m 222 775 l 215 775 l 200 775 l 179 775 l 179 726 l 179 679 l 192 679 l 206 679 l 206 694 l 206 710 l 215 711 q 225 713 224 711 l 231 714 q 249 744 251 724 q 228 774 247 765 l 222 775 m 353 763 l 353 775 l 322 775 l 290 775 l 290 726 l 290 679 l 322 679 l 353 679 l 353 692 l 353 704 l 335 704 l 318 704 l 318 708 l 318 714 l 333 714 l 349 714 l 349 726 l 349 739 l 333 739 l 318 739 l 318 744 l 318 749 l 335 749 l 353 749 l 353 763 m 449 775 l 424 775 l 400 775 l 400 728 l 400 679 l 413 679 l 426 679 l 426 694 l 426 707 l 428 710 l 432 706 l 433 701 q 439 694 436 697 l 449 679 l 464 679 l 475 679 l 479 679 l 476 685 l 468 697 l 457 714 l 461 718 q 465 724 464 721 l 468 728 q 471 733 471 731 l 471 742 l 471 751 q 469 756 471 754 q 454 771 464 765 l 449 775 m 567 774 q 553 775 564 775 q 538 772 549 775 q 515 749 517 765 q 517 738 515 739 q 521 729 517 733 q 549 717 528 721 l 554 717 l 558 715 l 561 714 l 565 710 l 565 708 l 564 706 q 553 704 556 703 q 543 708 544 704 l 540 711 l 533 710 l 532 710 q 526 708 529 708 q 521 707 525 707 l 515 704 l 517 697 q 542 679 522 683 q 576 683 558 675 q 592 711 594 692 q 558 739 592 733 q 551 740 556 740 q 544 749 540 744 q 553 751 547 751 q 561 747 558 751 l 564 744 l 578 747 q 585 749 579 749 q 589 750 588 749 l 590 751 l 589 753 q 582 765 588 760 q 567 774 575 772 m 954 775 l 939 775 l 925 775 l 910 728 q 900 694 910 726 q 894 679 897 688 l 899 679 l 908 679 l 922 679 l 924 685 l 925 690 l 940 689 l 954 689 l 956 683 l 957 679 l 971 679 l 982 679 l 985 681 l 982 688 q 971 722 976 706 q 963 749 969 731 q 960 754 961 750 q 960 760 960 758 l 957 767 l 957 768 l 954 775 m 1050 740 l 1050 775 l 1038 775 l 1024 775 l 1024 726 l 1024 679 l 1051 679 l 1079 679 l 1079 692 l 1079 704 l 1065 704 l 1050 704 l 1050 740 m 685 607 q 643 596 663 611 q 628 553 624 576 q 654 515 631 529 q 657 514 656 514 q 661 513 660 513 l 667 511 l 676 511 l 686 511 q 692 513 689 511 l 697 515 q 711 525 703 517 q 721 538 718 532 q 725 568 728 553 q 710 594 721 583 q 685 607 700 606 m 849 560 l 849 608 l 835 608 q 822 607 824 608 l 821 600 l 821 586 l 821 567 l 808 586 l 794 607 l 782 607 l 769 607 l 769 558 l 769 511 l 783 511 l 796 511 l 796 532 l 797 554 l 811 532 l 824 511 l 836 511 l 849 511 l 849 560 m 231 607 l 217 607 l 204 607 l 204 572 l 204 538 l 208 532 q 217 521 211 525 q 229 513 222 514 q 243 511 232 511 q 258 513 256 511 q 272 522 264 514 q 279 535 278 528 l 282 539 l 282 542 l 282 551 l 282 574 l 282 607 l 269 607 l 256 607 l 256 578 l 256 554 l 254 543 l 251 540 l 250 538 q 243 536 249 536 l 235 539 l 232 544 q 231 554 231 549 l 231 578 l 231 607 m 381 606 q 367 607 378 607 q 350 606 353 607 q 340 600 343 603 q 332 592 333 596 l 329 588 q 328 581 328 585 l 329 569 q 335 561 331 565 q 346 554 338 557 q 350 553 349 554 q 353 551 351 551 q 357 550 356 550 q 363 549 358 549 q 378 542 378 546 q 374 536 378 539 q 364 536 368 535 q 356 540 358 536 l 353 543 l 340 540 q 332 539 338 539 q 326 538 331 538 l 328 535 l 331 529 q 332 525 331 526 l 333 522 q 363 511 344 511 q 400 525 389 510 l 401 528 l 404 531 l 404 536 q 375 571 407 564 q 358 576 361 574 q 357 582 356 579 l 361 583 l 365 583 l 371 583 l 374 579 l 376 576 l 389 579 q 394 581 392 579 l 399 582 l 401 582 l 403 585 l 400 589 q 381 606 393 601 m 511 594 l 511 607 l 481 607 l 449 607 l 449 558 l 449 511 l 481 511 l 511 511 l 511 524 l 511 536 l 493 536 l 476 536 l 476 542 l 476 546 l 492 546 l 507 546 l 507 558 l 507 571 l 492 571 l 476 571 l 476 576 l 476 582 l 493 582 l 511 582 l 511 594 m 922 572 l 922 607 l 910 607 l 896 607 l 896 558 l 896 511 l 924 511 l 951 511 l 951 524 l 951 536 l 936 536 l 922 536 l 922 572 m 994 607 l 979 607 l 963 607 l 965 604 l 967 603 l 969 599 l 971 594 q 974 590 972 593 q 976 586 975 588 q 979 581 978 583 q 982 576 981 578 l 996 551 l 996 531 l 996 511 l 1008 511 l 1022 511 l 1022 531 l 1022 551 l 1036 576 q 1049 596 1039 582 l 1053 604 l 1054 607 l 1039 607 l 1024 607 l 1017 594 q 1013 586 1014 589 l 1008 582 l 1007 586 q 1001 594 1004 589 l 994 607 m 674 749 q 699 743 688 754 q 703 717 710 732 q 681 704 694 703 q 661 721 667 707 q 664 738 660 726 q 674 749 665 743 m 206 742 l 206 749 l 213 749 l 219 749 l 221 743 q 219 738 221 739 l 213 735 l 206 735 l 206 742 m 426 742 l 426 749 l 435 749 l 443 749 l 444 742 q 433 735 444 735 l 426 735 l 426 742 m 939 736 l 940 738 l 942 732 q 943 726 943 729 l 947 714 l 940 714 l 933 714 l 933 718 l 935 721 q 936 728 935 726 l 938 729 l 939 736 m 656 567 q 667 581 657 576 q 686 581 676 585 q 697 565 694 575 q 693 544 700 553 q 675 536 686 536 q 657 547 664 536 q 656 567 651 557 m 194 169 q 213 171 208 172 q 220 167 215 169 q 226 165 225 165 l 232 161 l 233 158 l 235 156 q 236 151 236 153 l 232 150 l 229 151 l 226 154 q 210 164 218 163 q 190 156 197 164 q 183 135 182 149 q 193 115 185 121 q 214 113 199 110 q 225 121 221 115 q 229 129 229 125 l 229 132 l 219 132 l 210 132 l 210 136 l 210 140 l 224 140 l 236 140 l 236 122 l 236 106 l 233 106 l 229 107 l 232 114 q 233 118 233 117 l 232 118 l 231 117 l 228 114 q 207 104 222 104 q 179 121 189 104 q 178 125 178 124 l 176 129 l 176 138 l 176 146 q 178 150 176 149 l 179 154 q 194 169 186 167 m 461 171 l 468 171 l 468 167 l 468 163 l 463 163 l 457 163 l 454 160 l 454 157 l 453 153 l 453 150 l 458 150 l 464 150 l 464 146 l 464 142 l 457 142 l 451 142 l 447 140 l 449 140 l 450 138 l 453 135 l 453 131 l 453 119 l 453 106 l 449 106 l 444 106 l 444 124 l 444 142 l 442 142 l 440 143 l 439 146 q 440 150 439 149 l 442 150 l 444 151 l 444 154 q 451 168 444 161 q 461 171 454 171 m 565 138 l 565 171 l 569 171 l 574 171 l 574 138 l 574 106 l 569 106 l 565 106 l 565 138 m 604 138 l 604 171 l 608 171 l 613 171 l 613 138 l 613 106 l 608 106 l 604 106 l 604 138 m 713 171 l 719 171 l 719 167 l 719 163 l 714 163 l 710 163 l 707 160 l 706 157 l 704 153 l 704 150 l 710 150 l 717 150 l 717 146 l 717 142 l 708 142 l 703 142 l 700 140 l 701 138 l 704 135 l 704 131 l 704 119 l 704 106 l 700 106 l 696 106 l 696 124 l 696 142 l 694 142 l 692 143 l 692 146 l 692 150 l 694 150 l 696 151 l 696 154 q 704 168 696 161 q 713 171 707 171 m 342 161 l 346 161 l 350 161 l 350 156 l 350 150 l 356 150 l 360 150 l 360 146 l 360 142 l 353 142 q 347 138 342 142 l 349 136 l 350 133 l 350 125 l 350 114 l 356 113 l 361 113 l 361 108 l 361 106 l 354 106 l 349 106 l 344 108 l 342 111 l 342 126 l 342 142 l 339 142 l 336 143 l 335 146 q 336 150 335 149 l 339 150 l 342 150 l 342 151 l 342 156 l 342 161 m 883 161 l 888 161 l 890 161 l 890 156 l 890 150 l 896 150 l 901 150 l 901 146 l 901 142 l 894 142 l 888 142 l 886 140 l 888 140 l 889 138 l 890 138 l 890 135 l 890 128 l 892 115 q 897 113 894 113 l 901 113 l 903 113 l 903 108 l 903 106 l 897 106 l 892 106 l 888 108 l 883 111 l 883 126 l 883 142 l 881 142 l 879 143 l 878 146 q 879 150 878 149 l 881 150 l 883 150 l 883 151 l 883 156 l 883 161 m 1050 161 l 1054 161 l 1058 161 l 1058 156 l 1058 150 l 1063 150 l 1068 150 l 1068 146 l 1068 142 l 1061 142 l 1056 142 l 1053 140 l 1054 140 l 1056 138 l 1057 138 l 1058 135 l 1058 128 l 1060 115 q 1065 113 1060 113 l 1068 113 l 1069 113 l 1069 108 l 1069 106 l 1064 106 l 1058 106 l 1054 108 l 1050 111 l 1050 126 l 1050 142 l 1047 142 l 1046 143 l 1044 146 q 1046 150 1044 149 l 1047 150 l 1050 150 l 1050 151 l 1050 156 l 1050 161 m 282 149 q 301 147 293 153 q 311 129 310 139 l 311 125 l 293 125 l 281 125 l 276 122 l 278 118 q 288 113 279 113 q 299 115 292 111 q 304 119 301 118 l 308 119 l 310 118 l 307 114 l 301 108 q 297 106 299 107 q 286 106 292 104 q 276 107 278 106 q 268 129 267 115 q 282 149 269 143 m 297 140 l 288 143 q 278 136 281 140 l 278 133 l 276 132 l 281 132 q 289 131 285 131 q 297 132 296 131 l 301 132 l 303 135 l 300 138 l 297 140 m 754 149 q 763 150 756 150 q 771 149 769 150 q 783 126 783 142 q 781 114 783 125 q 769 106 776 108 q 758 104 760 103 q 747 110 751 106 q 742 121 743 114 q 740 135 739 131 q 746 143 742 139 q 754 149 750 147 m 769 140 q 751 139 758 147 q 750 118 744 128 q 760 113 751 113 q 771 114 763 111 q 775 128 775 121 q 769 140 775 136 m 828 149 q 840 150 838 151 q 849 142 847 147 l 850 136 l 850 122 l 850 106 l 847 106 l 843 106 l 843 121 l 843 132 l 843 138 l 840 140 l 836 143 l 828 140 q 824 135 824 139 l 824 132 q 822 126 822 128 q 821 119 821 124 l 821 106 l 817 106 l 814 106 l 814 128 l 814 150 l 818 150 l 821 149 l 819 144 l 818 142 l 817 139 l 817 136 l 818 139 l 819 142 q 824 146 822 144 l 828 149 m 997 150 l 1001 150 q 1015 144 1011 150 q 1018 126 1018 133 l 1018 119 l 1018 115 l 1019 114 l 1022 111 l 1022 107 l 1019 106 q 1013 113 1015 106 l 1010 117 l 1010 114 q 1006 107 1007 108 q 996 104 1003 104 q 985 108 989 104 q 982 118 981 113 q 989 128 982 124 l 994 131 q 1001 132 1000 131 l 1007 133 l 1010 133 l 1010 135 l 1008 138 l 1004 142 q 996 143 1003 143 q 990 138 992 142 l 989 136 l 985 136 l 982 138 l 983 142 l 988 146 l 992 149 q 997 150 994 150 m 1008 126 l 1003 125 l 1001 125 q 997 124 999 125 l 994 122 l 992 121 l 990 119 l 989 117 q 997 111 989 111 q 1006 115 1001 111 q 1010 124 1010 119 l 1008 126 m 493 150 l 497 150 l 501 150 l 501 133 l 501 122 q 503 117 501 118 l 503 114 q 513 113 510 111 q 521 118 517 114 q 522 125 522 121 l 522 136 l 524 150 l 526 150 l 531 150 l 531 132 l 531 124 l 531 118 l 532 115 l 533 114 l 535 111 l 535 107 l 533 106 q 528 108 531 106 l 526 111 q 524 114 525 114 l 522 115 l 521 111 l 518 106 l 510 104 q 494 111 501 104 l 494 118 q 493 132 493 119 l 493 150 m 200 50 l 204 50 l 210 49 l 210 44 l 210 40 l 204 40 l 199 40 l 194 38 q 193 33 193 35 l 192 29 l 192 25 l 197 25 l 204 25 l 204 19 l 204 15 l 194 15 l 188 15 l 185 14 l 186 14 l 188 11 l 192 8 l 192 -10 l 192 -28 l 186 -28 l 182 -28 l 182 -7 l 182 15 l 178 15 l 176 15 l 175 17 l 175 19 q 176 24 175 22 l 178 25 l 181 25 l 182 26 l 182 31 q 196 49 183 46 l 200 50 m 575 50 l 579 50 l 585 50 l 585 17 l 585 1 l 585 -10 q 586 -15 585 -14 l 586 -17 l 589 -18 l 590 -19 l 590 -24 l 590 -26 l 589 -28 l 585 -26 q 582 -24 583 -25 q 579 -22 581 -22 l 576 -19 l 572 -24 q 549 -28 561 -32 q 536 -11 539 -22 q 538 10 533 0 q 550 24 539 19 l 554 26 l 557 26 q 567 24 561 25 q 575 17 574 21 l 581 13 q 578 18 579 14 l 576 22 l 576 28 q 575 36 575 32 l 575 50 m 568 13 q 561 17 565 15 q 551 14 560 17 q 544 -4 544 7 l 546 -7 l 547 -10 l 547 -14 q 557 -19 550 -17 q 568 -17 561 -21 q 575 -1 575 -10 q 568 13 575 6 m 626 44 l 626 50 l 631 50 l 635 49 l 636 44 l 636 39 l 631 39 l 626 39 l 626 44 m 397 32 l 397 39 l 401 39 l 407 39 l 407 32 l 407 25 l 413 25 l 419 25 l 419 19 l 419 15 l 410 15 l 404 15 l 401 14 l 403 13 l 403 11 l 404 11 l 406 10 l 407 7 l 407 -4 q 408 -17 407 -12 l 411 -18 l 415 -18 l 419 -18 l 419 -24 l 419 -28 l 414 -28 l 404 -26 l 400 -22 q 399 -14 399 -18 q 397 -1 397 -12 l 397 15 l 394 15 l 393 15 l 392 17 l 390 19 q 392 24 390 22 l 393 25 l 394 25 l 397 25 l 397 32 m 1051 32 l 1051 39 l 1056 39 l 1061 39 l 1061 32 l 1061 25 l 1067 25 l 1072 25 l 1072 19 l 1072 15 l 1064 15 l 1056 15 l 1058 11 l 1060 8 l 1061 4 l 1061 -4 l 1061 -18 l 1068 -18 l 1074 -18 l 1074 -24 l 1074 -29 l 1067 -28 q 1060 -26 1061 -28 l 1056 -24 l 1051 -21 l 1051 -3 l 1051 15 l 1047 15 l 1046 15 l 1044 17 l 1044 19 l 1044 24 l 1046 25 l 1047 25 l 1051 25 l 1051 32 m 249 25 q 261 25 256 28 q 267 22 264 24 q 271 19 269 19 l 274 17 l 274 21 q 275 25 274 24 l 278 25 l 282 25 l 282 -7 l 282 -25 l 282 -35 l 282 -40 l 279 -43 l 278 -46 l 274 -49 l 271 -50 l 265 -51 l 254 -51 l 239 -51 l 239 -47 l 239 -43 l 251 -43 q 261 -42 260 -43 l 267 -42 q 274 -29 274 -37 l 275 -25 l 276 -22 l 278 -17 q 274 -19 275 -18 q 261 -28 267 -25 q 247 -28 254 -31 q 240 -21 243 -26 q 235 -12 236 -17 q 233 -1 233 -11 q 235 8 233 7 q 240 18 236 14 q 249 25 242 22 m 265 14 l 260 17 l 251 15 q 243 4 244 13 q 246 -14 242 -3 q 258 -19 253 -21 q 271 -11 264 -19 q 272 1 274 -1 q 265 14 271 8 m 336 25 l 342 25 q 358 15 354 25 l 361 10 l 356 8 l 350 10 q 347 15 350 13 q 340 17 346 17 q 331 13 333 17 q 332 7 329 10 l 338 6 l 342 4 l 344 3 l 358 -3 q 361 -12 361 -11 l 361 -17 l 358 -22 q 338 -29 350 -31 q 319 -18 326 -28 q 318 -11 318 -15 l 322 -10 l 328 -10 l 328 -12 l 329 -14 l 332 -17 l 335 -18 l 338 -19 l 342 -19 q 349 -18 346 -19 l 350 -17 l 353 -14 l 353 -12 q 338 -6 353 -10 q 333 -4 335 -6 l 331 -3 l 325 0 q 321 6 324 1 q 319 13 319 8 q 325 21 321 17 l 331 25 l 336 25 m 681 19 q 689 25 685 24 q 706 24 693 26 q 718 14 711 21 q 719 10 718 11 l 721 7 l 721 0 q 713 -24 724 -15 q 689 -28 701 -32 q 672 -10 676 -24 q 671 1 671 -7 q 674 11 671 3 l 675 14 q 681 19 678 17 m 703 15 q 693 15 697 17 q 683 10 685 13 q 682 6 683 8 q 681 1 681 3 l 681 -8 q 694 -19 685 -18 q 710 -12 703 -22 q 713 3 714 -6 q 703 15 710 10 m 768 24 q 786 24 778 28 l 793 19 l 796 14 l 797 13 l 797 10 l 793 8 q 789 10 790 8 l 788 11 q 781 15 786 13 q 771 15 775 17 q 765 10 765 14 l 767 8 l 772 6 q 783 1 776 3 q 789 0 786 1 l 793 -1 q 797 -8 796 -4 q 794 -24 800 -21 q 776 -29 789 -29 q 763 -24 768 -29 q 756 -12 756 -19 l 757 -10 l 760 -10 l 764 -10 l 765 -12 q 778 -19 768 -19 q 789 -14 788 -19 q 788 -10 789 -11 l 779 -7 q 776 -6 778 -7 q 772 -4 775 -6 q 765 -1 768 -3 l 758 3 l 757 7 l 757 11 q 768 24 757 21 m 907 25 l 910 26 q 921 22 914 26 q 928 13 925 19 l 929 6 l 929 -10 l 929 -28 l 924 -28 l 919 -28 l 919 -12 l 919 7 q 915 14 917 13 q 906 15 908 17 q 897 8 900 14 l 896 6 l 894 0 l 894 -11 l 893 -28 l 889 -28 l 885 -28 l 885 -1 l 885 25 l 889 25 l 893 25 l 894 22 l 893 21 l 892 18 q 889 13 889 15 l 889 11 l 892 15 q 901 22 896 19 l 907 25 m 983 25 q 996 25 989 28 q 1007 18 1004 22 q 1013 11 1011 14 q 1015 7 1014 8 l 1015 1 l 1015 -6 l 994 -6 l 983 -6 l 978 -6 l 975 -6 l 974 -7 q 976 -12 974 -10 l 982 -18 q 993 -19 989 -21 q 1003 -14 1000 -17 l 1004 -11 l 1008 -11 q 1014 -12 1013 -11 l 1011 -18 q 997 -28 1003 -25 q 981 -28 989 -31 q 964 -1 964 -22 q 983 25 965 19 m 994 17 l 990 17 l 983 15 l 981 13 l 978 11 q 975 6 975 8 l 974 3 l 989 3 l 1000 3 q 1004 4 1003 3 l 1004 6 l 1003 10 l 997 14 l 994 17 m 454 25 l 458 25 l 463 25 l 463 6 l 463 -6 q 464 -11 463 -10 l 464 -14 l 465 -17 q 476 -19 469 -22 q 485 -12 482 -18 l 488 -8 l 488 -3 l 488 8 l 489 25 l 493 25 l 497 25 l 497 6 l 497 -15 l 500 -17 l 503 -19 l 503 -24 l 501 -28 q 496 -25 499 -28 q 490 -19 492 -24 l 488 -17 l 486 -24 q 481 -28 485 -25 q 471 -29 479 -29 q 461 -26 469 -29 l 458 -24 l 456 -19 l 456 -15 q 454 -8 454 -12 l 454 6 l 454 25 m 626 -1 l 626 25 l 631 25 l 635 24 l 636 -1 l 636 -28 l 631 -28 l 626 -28 l 626 -1 m 839 -15 l 842 -15 l 847 -15 l 847 -22 l 847 -28 l 842 -28 l 835 -28 l 835 -22 q 836 -18 835 -19 l 836 -17 l 839 -15 z "},"9":{"ha":1250,"x_min":83,"x_max":1167,"o":"m 421 1033 l 631 1033 l 926 1033 l 942 1031 q 1063 978 1006 1018 q 1085 957 1078 963 q 1107 932 1100 942 q 1160 826 1146 885 q 1161 822 1161 824 q 1163 815 1161 818 q 1164 807 1163 808 q 1165 803 1165 806 q 1167 797 1167 799 l 1167 788 l 1167 749 l 1167 676 l 1167 651 l 1167 564 l 1167 514 q 1165 489 1167 493 q 1164 481 1164 488 q 1163 472 1164 474 q 1085 332 1146 390 q 940 258 1025 272 l 924 256 l 632 256 q 486 254 592 254 q 397 256 411 254 l 347 256 q 324 257 326 256 q 307 258 311 257 l 307 260 q 147 351 211 276 q 86 482 100 407 l 83 499 l 83 643 l 83 788 l 86 803 q 163 954 101 894 q 328 1032 229 1021 q 421 1033 383 1032 m 699 774 q 664 772 685 779 q 638 747 647 765 q 636 742 636 744 q 635 736 635 739 l 635 726 l 635 718 q 636 713 635 714 l 638 707 q 660 685 647 690 q 690 679 674 676 q 725 703 714 683 q 729 744 736 722 q 717 763 725 754 q 699 774 706 771 m 854 728 l 854 776 l 842 776 l 829 776 l 829 754 l 828 733 l 815 754 l 801 775 l 789 775 l 775 775 l 775 726 l 775 679 l 789 679 l 803 679 l 803 700 l 803 722 l 817 701 l 831 679 l 843 679 l 854 679 l 854 728 m 222 775 l 215 775 l 200 775 l 179 775 l 179 726 l 179 679 l 192 679 l 206 679 l 206 694 l 206 710 l 215 711 q 225 713 224 711 l 231 714 q 249 744 251 724 q 228 774 247 765 l 222 775 m 353 763 l 353 775 l 322 775 l 290 775 l 290 726 l 290 679 l 322 679 l 353 679 l 353 692 l 353 704 l 335 704 l 318 704 l 318 708 l 318 714 l 333 714 l 349 714 l 349 726 l 349 739 l 333 739 l 318 739 l 318 744 l 318 749 l 335 749 l 353 749 l 353 763 m 449 775 l 424 775 l 400 775 l 400 728 l 400 679 l 413 679 l 426 679 l 426 694 l 426 707 l 428 710 l 432 706 l 433 701 q 439 694 436 697 l 449 679 l 464 679 l 475 679 l 479 679 l 476 685 l 468 697 l 457 714 l 461 718 q 465 724 464 721 l 468 728 q 471 733 471 731 l 471 742 l 471 751 q 469 756 471 754 q 454 771 464 765 l 449 775 m 567 774 q 553 775 564 775 q 538 772 549 775 q 515 749 517 765 q 517 738 515 739 q 521 729 517 733 q 549 717 528 721 l 554 717 l 558 715 l 561 714 l 565 710 l 565 708 l 564 706 q 553 704 556 703 q 543 708 544 704 l 540 711 l 533 710 l 532 710 q 526 708 529 708 q 521 707 525 707 l 515 704 l 517 697 q 542 679 522 683 q 576 683 558 675 q 592 711 594 692 q 558 739 592 733 q 551 740 556 740 q 544 749 540 744 q 553 751 547 751 q 561 747 558 751 l 564 744 l 578 747 q 585 749 579 749 q 589 750 588 749 l 590 751 l 589 753 q 582 765 588 760 q 567 774 575 772 m 954 775 l 939 775 l 925 775 l 910 728 q 900 694 910 726 q 894 679 897 688 l 899 679 l 908 679 l 922 679 l 924 685 l 925 690 l 940 689 l 954 689 l 956 683 l 957 679 l 971 679 l 982 679 l 985 681 l 982 688 q 971 722 976 706 q 963 749 969 731 q 960 754 961 750 q 960 760 960 758 l 957 767 l 957 768 l 954 775 m 1050 740 l 1050 775 l 1038 775 l 1024 775 l 1024 726 l 1024 679 l 1051 679 l 1079 679 l 1079 692 l 1079 704 l 1065 704 l 1050 704 l 1050 740 m 685 607 q 643 596 663 611 q 628 553 624 576 q 654 515 631 529 q 657 514 656 514 q 661 513 660 513 l 667 511 l 676 511 l 686 511 q 692 513 689 511 l 697 515 q 711 525 703 517 q 721 538 718 532 q 725 568 728 553 q 710 594 721 583 q 685 607 700 606 m 849 560 l 849 608 l 835 608 q 822 607 824 608 l 821 600 l 821 586 l 821 567 l 808 586 l 794 607 l 782 607 l 769 607 l 769 558 l 769 511 l 783 511 l 796 511 l 796 532 l 797 554 l 811 532 l 824 511 l 836 511 l 849 511 l 849 560 m 231 607 l 217 607 l 204 607 l 204 572 l 204 538 l 208 532 q 217 521 211 525 q 229 513 222 514 q 243 511 232 511 q 258 513 256 511 q 272 522 264 514 q 279 535 278 528 l 282 539 l 282 542 l 282 551 l 282 574 l 282 607 l 269 607 l 256 607 l 256 578 l 256 554 l 254 543 l 251 540 l 250 538 q 243 536 249 536 l 235 539 l 232 544 q 231 554 231 549 l 231 578 l 231 607 m 381 606 q 367 607 378 607 q 350 606 353 607 q 340 600 343 603 q 332 592 333 596 l 329 588 q 328 581 328 585 l 329 569 q 335 561 331 565 q 346 554 338 557 q 350 553 349 554 q 353 551 351 551 q 357 550 356 550 q 363 549 358 549 q 378 542 378 546 q 374 536 378 539 q 364 536 368 535 q 356 540 358 536 l 353 543 l 340 540 q 332 539 338 539 q 326 538 331 538 l 328 535 l 331 529 q 332 525 331 526 l 333 522 q 363 511 344 511 q 400 525 389 510 l 401 528 l 404 531 l 404 536 q 375 571 407 564 q 358 576 361 574 q 357 582 356 579 l 361 583 l 365 583 l 371 583 l 374 579 l 376 576 l 389 579 q 394 581 392 579 l 399 582 l 401 582 l 403 585 l 400 589 q 381 606 393 601 m 511 594 l 511 607 l 481 607 l 449 607 l 449 558 l 449 511 l 481 511 l 511 511 l 511 524 l 511 536 l 493 536 l 476 536 l 476 542 l 476 546 l 492 546 l 507 546 l 507 558 l 507 571 l 492 571 l 476 571 l 476 576 l 476 582 l 493 582 l 511 582 l 511 594 m 922 572 l 922 607 l 910 607 l 896 607 l 896 558 l 896 511 l 924 511 l 951 511 l 951 524 l 951 536 l 936 536 l 922 536 l 922 572 m 994 607 l 979 607 l 963 607 l 965 604 l 967 603 l 969 599 l 971 594 q 974 590 972 593 q 976 586 975 588 q 979 581 978 583 q 982 576 981 578 l 996 551 l 996 531 l 996 511 l 1008 511 l 1022 511 l 1022 531 l 1022 551 l 1036 576 q 1049 596 1039 582 l 1053 604 l 1054 607 l 1039 607 l 1024 607 l 1017 594 q 1013 586 1014 589 l 1008 582 l 1007 586 q 1001 594 1004 589 l 994 607 m 674 749 q 699 743 688 754 q 703 717 710 732 q 681 704 694 703 q 661 721 667 707 q 664 738 660 726 q 674 749 665 743 m 206 742 l 206 749 l 213 749 l 219 749 l 221 743 q 219 738 221 739 l 213 735 l 206 735 l 206 742 m 426 742 l 426 749 l 435 749 l 443 749 l 444 742 q 433 735 444 735 l 426 735 l 426 742 m 939 736 l 940 738 l 942 732 q 943 726 943 729 l 947 714 l 940 714 l 933 714 l 933 718 l 935 721 q 936 728 935 726 l 938 729 l 939 736 m 656 567 q 667 581 657 576 q 686 581 676 585 q 697 565 694 575 q 693 544 700 553 q 675 536 686 536 q 657 547 664 536 q 656 567 651 557 m 194 169 q 213 171 208 172 q 220 167 215 169 q 226 165 225 165 l 232 161 l 233 158 l 235 156 q 236 151 236 153 l 232 150 l 229 151 l 226 154 q 210 164 218 163 q 190 156 197 164 q 183 135 182 149 q 193 115 185 121 q 214 113 199 110 q 225 121 221 115 q 229 129 229 125 l 229 132 l 219 132 l 210 132 l 210 136 l 210 140 l 224 140 l 236 140 l 236 122 l 236 106 l 233 106 l 229 107 l 232 114 q 233 118 233 117 l 232 118 l 231 117 l 228 114 q 207 104 222 104 q 179 121 189 104 q 178 125 178 124 l 176 129 l 176 138 l 176 146 q 178 150 176 149 l 179 154 q 194 169 186 167 m 461 171 l 468 171 l 468 167 l 468 163 l 463 163 l 457 163 l 454 160 l 454 157 l 453 153 l 453 150 l 458 150 l 464 150 l 464 146 l 464 142 l 457 142 l 451 142 l 447 140 l 449 140 l 450 138 l 453 135 l 453 131 l 453 119 l 453 106 l 449 106 l 444 106 l 444 124 l 444 142 l 442 142 l 440 143 l 439 146 q 440 150 439 149 l 442 150 l 444 151 l 444 154 q 451 168 444 161 q 461 171 454 171 m 565 138 l 565 171 l 569 171 l 574 171 l 574 138 l 574 106 l 569 106 l 565 106 l 565 138 m 604 138 l 604 171 l 608 171 l 613 171 l 613 138 l 613 106 l 608 106 l 604 106 l 604 138 m 713 171 l 719 171 l 719 167 l 719 163 l 714 163 l 710 163 l 707 160 l 706 157 l 704 153 l 704 150 l 710 150 l 717 150 l 717 146 l 717 142 l 708 142 l 703 142 l 700 140 l 701 138 l 704 135 l 704 131 l 704 119 l 704 106 l 700 106 l 696 106 l 696 124 l 696 142 l 694 142 l 692 143 l 692 146 l 692 150 l 694 150 l 696 151 l 696 154 q 704 168 696 161 q 713 171 707 171 m 342 161 l 346 161 l 350 161 l 350 156 l 350 150 l 356 150 l 360 150 l 360 146 l 360 142 l 353 142 q 347 138 342 142 l 349 136 l 350 133 l 350 125 l 350 114 l 356 113 l 361 113 l 361 108 l 361 106 l 354 106 l 349 106 l 344 108 l 342 111 l 342 126 l 342 142 l 339 142 l 336 143 l 335 146 q 336 150 335 149 l 339 150 l 342 150 l 342 151 l 342 156 l 342 161 m 883 161 l 888 161 l 890 161 l 890 156 l 890 150 l 896 150 l 901 150 l 901 146 l 901 142 l 894 142 l 888 142 l 886 140 l 888 140 l 889 138 l 890 138 l 890 135 l 890 128 l 892 115 q 897 113 894 113 l 901 113 l 903 113 l 903 108 l 903 106 l 897 106 l 892 106 l 888 108 l 883 111 l 883 126 l 883 142 l 881 142 l 879 143 l 878 146 q 879 150 878 149 l 881 150 l 883 150 l 883 151 l 883 156 l 883 161 m 1050 161 l 1054 161 l 1058 161 l 1058 156 l 1058 150 l 1063 150 l 1068 150 l 1068 146 l 1068 142 l 1061 142 l 1056 142 l 1053 140 l 1054 140 l 1056 138 l 1057 138 l 1058 135 l 1058 128 l 1060 115 q 1065 113 1060 113 l 1068 113 l 1069 113 l 1069 108 l 1069 106 l 1064 106 l 1058 106 l 1054 108 l 1050 111 l 1050 126 l 1050 142 l 1047 142 l 1046 143 l 1044 146 q 1046 150 1044 149 l 1047 150 l 1050 150 l 1050 151 l 1050 156 l 1050 161 m 282 149 q 301 147 293 153 q 311 129 310 139 l 311 125 l 293 125 l 281 125 l 276 122 l 278 118 q 288 113 279 113 q 299 115 292 111 q 304 119 301 118 l 308 119 l 310 118 l 307 114 l 301 108 q 297 106 299 107 q 286 106 292 104 q 276 107 278 106 q 268 129 267 115 q 282 149 269 143 m 297 140 l 288 143 q 278 136 281 140 l 278 133 l 276 132 l 281 132 q 289 131 285 131 q 297 132 296 131 l 301 132 l 303 135 l 300 138 l 297 140 m 754 149 q 763 150 756 150 q 771 149 769 150 q 783 126 783 142 q 781 114 783 125 q 769 106 776 108 q 758 104 760 103 q 747 110 751 106 q 742 121 743 114 q 740 135 739 131 q 746 143 742 139 q 754 149 750 147 m 769 140 q 751 139 758 147 q 750 118 744 128 q 760 113 751 113 q 771 114 763 111 q 775 128 775 121 q 769 140 775 136 m 828 149 q 840 150 838 151 q 849 142 847 147 l 850 136 l 850 122 l 850 106 l 847 106 l 843 106 l 843 121 l 843 132 l 843 138 l 840 140 l 836 143 l 828 140 q 824 135 824 139 l 824 132 q 822 126 822 128 q 821 119 821 124 l 821 106 l 817 106 l 814 106 l 814 128 l 814 150 l 818 150 l 821 149 l 819 144 l 818 142 l 817 139 l 817 136 l 818 139 l 819 142 q 824 146 822 144 l 828 149 m 997 150 l 1001 150 q 1015 144 1011 150 q 1018 126 1018 133 l 1018 119 l 1018 115 l 1019 114 l 1022 111 l 1022 107 l 1019 106 q 1013 113 1015 106 l 1010 117 l 1010 114 q 1006 107 1007 108 q 996 104 1003 104 q 985 108 989 104 q 982 118 981 113 q 989 128 982 124 l 994 131 q 1001 132 1000 131 l 1007 133 l 1010 133 l 1010 135 l 1008 138 l 1004 142 q 996 143 1003 143 q 990 138 992 142 l 989 136 l 985 136 l 982 138 l 983 142 l 988 146 l 992 149 q 997 150 994 150 m 1008 126 l 1003 125 l 1001 125 q 997 124 999 125 l 994 122 l 992 121 l 990 119 l 989 117 q 997 111 989 111 q 1006 115 1001 111 q 1010 124 1010 119 l 1008 126 m 493 150 l 497 150 l 501 150 l 501 133 l 501 122 q 503 117 501 118 l 503 114 q 513 113 510 111 q 521 118 517 114 q 522 125 522 121 l 522 136 l 524 150 l 526 150 l 531 150 l 531 132 l 531 124 l 531 118 l 532 115 l 533 114 l 535 111 l 535 107 l 533 106 q 528 108 531 106 l 526 111 q 524 114 525 114 l 522 115 l 521 111 l 518 106 l 510 104 q 494 111 501 104 l 494 118 q 493 132 493 119 l 493 150 m 200 50 l 204 50 l 210 49 l 210 44 l 210 40 l 204 40 l 199 40 l 194 38 q 193 33 193 35 l 192 29 l 192 25 l 197 25 l 204 25 l 204 19 l 204 15 l 194 15 l 188 15 l 185 14 l 186 14 l 188 11 l 192 8 l 192 -10 l 192 -28 l 186 -28 l 182 -28 l 182 -7 l 182 15 l 178 15 l 176 15 l 175 17 l 175 19 q 176 24 175 22 l 178 25 l 181 25 l 182 26 l 182 31 q 196 49 183 46 l 200 50 m 575 50 l 579 50 l 585 50 l 585 17 l 585 1 l 585 -10 q 586 -15 585 -14 l 586 -17 l 589 -18 l 590 -19 l 590 -24 l 590 -26 l 589 -28 l 585 -26 q 582 -24 583 -25 q 579 -22 581 -22 l 576 -19 l 572 -24 q 549 -28 561 -32 q 536 -11 539 -22 q 538 10 533 0 q 550 24 539 19 l 554 26 l 557 26 q 567 24 561 25 q 575 17 574 21 l 581 13 q 578 18 579 14 l 576 22 l 576 28 q 575 36 575 32 l 575 50 m 568 13 q 561 17 565 15 q 551 14 560 17 q 544 -4 544 7 l 546 -7 l 547 -10 l 547 -14 q 557 -19 550 -17 q 568 -17 561 -21 q 575 -1 575 -10 q 568 13 575 6 m 626 44 l 626 50 l 631 50 l 635 49 l 636 44 l 636 39 l 631 39 l 626 39 l 626 44 m 397 32 l 397 39 l 401 39 l 407 39 l 407 32 l 407 25 l 413 25 l 419 25 l 419 19 l 419 15 l 410 15 l 404 15 l 401 14 l 403 13 l 403 11 l 404 11 l 406 10 l 407 7 l 407 -4 q 408 -17 407 -12 l 411 -18 l 415 -18 l 419 -18 l 419 -24 l 419 -28 l 414 -28 l 404 -26 l 400 -22 q 399 -14 399 -18 q 397 -1 397 -12 l 397 15 l 394 15 l 393 15 l 392 17 l 390 19 q 392 24 390 22 l 393 25 l 394 25 l 397 25 l 397 32 m 1051 32 l 1051 39 l 1056 39 l 1061 39 l 1061 32 l 1061 25 l 1067 25 l 1072 25 l 1072 19 l 1072 15 l 1064 15 l 1056 15 l 1058 11 l 1060 8 l 1061 4 l 1061 -4 l 1061 -18 l 1068 -18 l 1074 -18 l 1074 -24 l 1074 -29 l 1067 -28 q 1060 -26 1061 -28 l 1056 -24 l 1051 -21 l 1051 -3 l 1051 15 l 1047 15 l 1046 15 l 1044 17 l 1044 19 l 1044 24 l 1046 25 l 1047 25 l 1051 25 l 1051 32 m 249 25 q 261 25 256 28 q 267 22 264 24 q 271 19 269 19 l 274 17 l 274 21 q 275 25 274 24 l 278 25 l 282 25 l 282 -7 l 282 -25 l 282 -35 l 282 -40 l 279 -43 l 278 -46 l 274 -49 l 271 -50 l 265 -51 l 254 -51 l 239 -51 l 239 -47 l 239 -43 l 251 -43 q 261 -42 260 -43 l 267 -42 q 274 -29 274 -37 l 275 -25 l 276 -22 l 278 -17 q 274 -19 275 -18 q 261 -28 267 -25 q 247 -28 254 -31 q 240 -21 243 -26 q 235 -12 236 -17 q 233 -1 233 -11 q 235 8 233 7 q 240 18 236 14 q 249 25 242 22 m 265 14 l 260 17 l 251 15 q 243 4 244 13 q 246 -14 242 -3 q 258 -19 253 -21 q 271 -11 264 -19 q 272 1 274 -1 q 265 14 271 8 m 336 25 l 342 25 q 358 15 354 25 l 361 10 l 356 8 l 350 10 q 347 15 350 13 q 340 17 346 17 q 331 13 333 17 q 332 7 329 10 l 338 6 l 342 4 l 344 3 l 358 -3 q 361 -12 361 -11 l 361 -17 l 358 -22 q 338 -29 350 -31 q 319 -18 326 -28 q 318 -11 318 -15 l 322 -10 l 328 -10 l 328 -12 l 329 -14 l 332 -17 l 335 -18 l 338 -19 l 342 -19 q 349 -18 346 -19 l 350 -17 l 353 -14 l 353 -12 q 338 -6 353 -10 q 333 -4 335 -6 l 331 -3 l 325 0 q 321 6 324 1 q 319 13 319 8 q 325 21 321 17 l 331 25 l 336 25 m 681 19 q 689 25 685 24 q 706 24 693 26 q 718 14 711 21 q 719 10 718 11 l 721 7 l 721 0 q 713 -24 724 -15 q 689 -28 701 -32 q 672 -10 676 -24 q 671 1 671 -7 q 674 11 671 3 l 675 14 q 681 19 678 17 m 703 15 q 693 15 697 17 q 683 10 685 13 q 682 6 683 8 q 681 1 681 3 l 681 -8 q 694 -19 685 -18 q 710 -12 703 -22 q 713 3 714 -6 q 703 15 710 10 m 768 24 q 786 24 778 28 l 793 19 l 796 14 l 797 13 l 797 10 l 793 8 q 789 10 790 8 l 788 11 q 781 15 786 13 q 771 15 775 17 q 765 10 765 14 l 767 8 l 772 6 q 783 1 776 3 q 789 0 786 1 l 793 -1 q 797 -8 796 -4 q 794 -24 800 -21 q 776 -29 789 -29 q 763 -24 768 -29 q 756 -12 756 -19 l 757 -10 l 760 -10 l 764 -10 l 765 -12 q 778 -19 768 -19 q 789 -14 788 -19 q 788 -10 789 -11 l 779 -7 q 776 -6 778 -7 q 772 -4 775 -6 q 765 -1 768 -3 l 758 3 l 757 7 l 757 11 q 768 24 757 21 m 907 25 l 910 26 q 921 22 914 26 q 928 13 925 19 l 929 6 l 929 -10 l 929 -28 l 924 -28 l 919 -28 l 919 -12 l 919 7 q 915 14 917 13 q 906 15 908 17 q 897 8 900 14 l 896 6 l 894 0 l 894 -11 l 893 -28 l 889 -28 l 885 -28 l 885 -1 l 885 25 l 889 25 l 893 25 l 894 22 l 893 21 l 892 18 q 889 13 889 15 l 889 11 l 892 15 q 901 22 896 19 l 907 25 m 983 25 q 996 25 989 28 q 1007 18 1004 22 q 1013 11 1011 14 q 1015 7 1014 8 l 1015 1 l 1015 -6 l 994 -6 l 983 -6 l 978 -6 l 975 -6 l 974 -7 q 976 -12 974 -10 l 982 -18 q 993 -19 989 -21 q 1003 -14 1000 -17 l 1004 -11 l 1008 -11 q 1014 -12 1013 -11 l 1011 -18 q 997 -28 1003 -25 q 981 -28 989 -31 q 964 -1 964 -22 q 983 25 965 19 m 994 17 l 990 17 l 983 15 l 981 13 l 978 11 q 975 6 975 8 l 974 3 l 989 3 l 1000 3 q 1004 4 1003 3 l 1004 6 l 1003 10 l 997 14 l 994 17 m 454 25 l 458 25 l 463 25 l 463 6 l 463 -6 q 464 -11 463 -10 l 464 -14 l 465 -17 q 476 -19 469 -22 q 485 -12 482 -18 l 488 -8 l 488 -3 l 488 8 l 489 25 l 493 25 l 497 25 l 497 6 l 497 -15 l 500 -17 l 503 -19 l 503 -24 l 501 -28 q 496 -25 499 -28 q 490 -19 492 -24 l 488 -17 l 486 -24 q 481 -28 485 -25 q 471 -29 479 -29 q 461 -26 469 -29 l 458 -24 l 456 -19 l 456 -15 q 454 -8 454 -12 l 454 6 l 454 25 m 626 -1 l 626 25 l 631 25 l 635 24 l 636 -1 l 636 -28 l 631 -28 l 626 -28 l 626 -1 m 839 -15 l 842 -15 l 847 -15 l 847 -22 l 847 -28 l 842 -28 l 835 -28 l 835 -22 q 836 -18 835 -19 l 836 -17 l 839 -15 z "},"\u0000":{"ha":0,"x_min":0,"x_max":0,"o":""}," ":{"ha":367,"x_min":0,"x_max":0,"o":""},"!":{"ha":240,"x_min":53,"x_max":186,"o":"m 182 261 l 57 282 l 57 1108 l 182 1108 l 182 261 m 119 0 q 72 21 90 0 q 53 69 53 40 q 72 118 53 94 q 119 138 92 138 q 167 118 147 138 q 186 69 186 94 q 167 21 186 40 q 119 0 147 0 z "},"\"":{"ha":428,"x_min":44,"x_max":381,"o":"m 256 697 l 256 1108 l 381 1108 l 381 719 l 256 697 m 44 697 l 44 1108 l 169 1108 l 169 719 l 44 697 z "},"#":{"ha":557,"x_min":47,"x_max":511,"o":"m 465 0 l 344 0 l 344 257 l 213 257 l 213 0 l 93 0 l 93 257 l 47 257 l 93 382 l 93 726 l 47 726 l 93 851 l 93 1108 l 213 1108 l 213 851 l 344 851 l 344 1108 l 465 1108 l 465 851 l 511 851 l 465 728 l 465 382 l 511 382 l 465 257 l 465 0 m 344 382 l 344 726 l 213 726 l 213 382 l 344 382 z "},"$":{"ha":474,"x_min":50,"x_max":421,"o":"m 297 -147 l 172 -103 l 172 -6 q 50 169 57 42 l 50 333 l 175 378 l 175 169 q 193 126 178 142 q 235 108 210 110 q 278 126 260 110 q 294 169 294 143 l 294 474 l 50 628 l 50 940 q 104 1071 51 1017 q 172 1114 129 1099 l 172 1213 l 297 1256 l 297 1114 q 421 940 414 1065 l 421 821 l 294 776 l 294 940 q 278 982 294 965 q 235 1000 260 999 q 193 982 210 1000 q 175 940 175 964 l 175 697 l 421 543 l 421 169 q 297 -6 414 42 l 297 -147 z "},"%":{"ha":906,"x_min":38,"x_max":868,"o":"m 207 524 q 171 524 207 524 q 86 568 135 524 q 38 679 38 613 l 38 969 q 86 1081 38 1036 q 207 1125 135 1125 q 328 1081 279 1125 q 375 969 375 1038 l 375 679 q 328 568 375 611 q 207 524 279 524 m 250 679 l 250 969 q 242 990 250 983 q 222 999 233 996 q 207 1000 218 1000 q 163 969 163 1000 l 163 679 q 172 658 163 664 q 207 649 182 649 q 250 679 250 649 m 699 -17 q 578 28 626 -17 q 529 140 529 72 l 529 429 q 578 542 529 497 q 699 586 626 586 q 821 542 772 586 q 868 429 868 499 l 868 140 q 821 28 868 71 q 699 -17 772 -17 m 743 140 l 743 429 q 735 451 743 444 q 715 460 725 457 q 699 461 711 461 q 654 429 654 461 l 654 140 q 664 119 654 125 q 699 108 679 108 q 743 140 743 108 m 388 0 l 269 0 l 518 1108 l 635 1108 l 388 0 z "},"&":{"ha":599,"x_min":49,"x_max":557,"o":"m 456 -110 l 442 -31 l 407 43 q 260 -17 344 -15 q 111 46 172 -17 q 49 196 49 108 l 49 383 q 104 572 49 488 l 136 622 l 81 742 l 81 940 q 136 1071 82 1015 q 267 1125 190 1124 q 397 1071 343 1125 q 451 940 451 1017 l 451 869 l 326 819 l 326 940 q 308 982 325 965 q 267 1000 292 999 q 225 982 242 1000 q 206 940 207 964 l 206 769 l 393 368 q 422 597 422 481 l 547 619 q 515 339 547 486 l 478 189 l 557 18 l 456 -110 m 260 108 q 314 128 292 110 q 344 175 336 146 l 344 176 l 199 488 q 174 383 174 439 l 174 196 q 199 135 174 160 q 260 108 224 110 z "},"'":{"ha":217,"x_min":44,"x_max":169,"o":"m 44 697 l 44 1108 l 169 1108 l 169 719 l 44 697 z "},"(":{"ha":465,"x_min":47,"x_max":357,"o":"m 249 -160 l 218 -106 q 189 -46 211 -96 q 131 100 161 8 q 72 307 97 192 q 47 554 47 424 q 72 803 47 683 q 131 1010 97 918 q 189 1154 163 1103 q 218 1214 211 1204 l 249 1268 l 357 1208 l 328 1153 q 303 1103 325 1150 q 250 971 274 1043 q 196 781 219 890 q 172 554 172 667 q 196 329 172 443 q 250 139 219 219 q 303 6 275 63 q 328 -44 325 -42 l 357 -99 l 249 -160 z "},")":{"ha":464,"x_min":106,"x_max":417,"o":"m 215 -160 l 106 -99 l 136 -44 l 161 7 q 215 139 183 51 q 290 554 290 349 q 268 781 290 678 q 215 971 243 894 q 161 1103 183 1058 q 136 1153 147 1133 l 106 1208 l 215 1268 l 246 1214 l 247 1211 q 252 1202 250 1207 q 258 1191 254 1197 q 266 1175 261 1185 q 276 1154 271 1165 q 335 1010 303 1093 q 392 803 371 910 q 417 554 417 683 q 392 307 417 424 q 335 100 371 200 q 276 -46 301 8 q 266 -67 271 -57 q 258 -83 261 -76 q 252 -94 254 -89 q 247 -103 250 -99 l 246 -106 l 215 -160 z "},"*":{"ha":510,"x_min":38,"x_max":471,"o":"m 317 564 l 192 564 l 206 740 l 113 651 l 38 751 l 179 839 l 38 919 l 113 1021 l 206 936 l 192 1108 l 317 1108 l 300 932 l 396 1021 l 471 919 l 329 839 l 471 751 l 396 651 l 299 744 l 317 564 z "},"+":{"ha":475,"x_min":35,"x_max":438,"o":"m 299 282 l 174 282 l 174 492 l 35 492 l 35 617 l 174 617 l 174 826 l 299 826 l 299 617 l 438 617 l 438 492 l 299 492 l 299 282 z "},",":{"ha":1347,"x_min":32,"x_max":297,"o":"m 219 217 l 174 222 q 167 221 168 222 l 165 219 q 161 213 161 217 q 169 200 158 203 l 171 200 l 226 194 l 228 194 q 239 204 238 194 q 236 211 239 208 l 229 217 l 219 217 m 261 643 q 251 647 257 647 q 240 644 246 650 q 235 636 235 643 l 188 228 l 217 225 l 264 632 l 261 643 m 222 158 l 167 164 q 161 163 163 164 q 156 154 156 161 l 158 146 l 165 142 l 178 140 l 185 140 l 204 138 l 211 138 l 221 136 q 226 138 225 136 l 228 138 l 229 139 l 233 146 l 231 154 l 224 158 l 222 158 m 226 188 l 225 188 l 171 193 l 169 193 q 164 192 165 193 l 163 190 q 158 182 158 189 q 161 175 158 178 l 167 171 l 168 171 l 224 165 l 225 165 l 232 168 l 236 175 l 233 183 l 226 188 m 219 129 l 214 129 q 215 124 214 126 q 219 110 218 115 q 222 100 219 106 q 225 90 225 94 q 231 62 228 76 q 235 40 233 47 q 236 32 236 33 q 243 -53 243 -19 q 236 -143 243 -85 q 265 -136 243 -142 q 261 -57 267 -107 q 249 17 256 -7 q 247 25 247 18 l 246 31 q 244 33 244 32 q 243 38 243 36 q 242 44 242 40 l 242 50 l 239 56 q 243 61 238 60 q 249 57 249 63 q 253 40 250 53 q 255 31 253 38 q 258 19 257 25 l 272 -54 q 276 -132 279 -103 q 297 -124 286 -131 l 297 -87 l 294 -64 l 294 -43 q 294 -36 294 -40 q 292 -29 293 -32 q 292 -25 292 -26 q 271 58 286 17 q 228 129 254 103 q 219 129 224 128 m 186 132 l 171 33 l 169 29 l 165 29 q 161 35 161 29 l 175 133 l 164 135 q 158 136 160 135 q 143 124 153 131 q 117 96 139 122 q 85 50 99 75 q 56 -17 69 25 q 32 -107 39 -74 q 39 -110 35 -108 q 45 -112 43 -111 q 49 -115 47 -114 q 53 -117 51 -115 l 54 -117 q 71 -43 58 -81 q 93 19 76 -21 q 118 69 103 44 q 138 101 133 97 l 146 114 q 153 115 149 117 q 154 108 156 113 l 146 96 q 143 92 144 93 q 142 89 142 90 q 140 85 140 86 q 138 81 140 83 q 135 75 136 78 q 128 64 128 65 q 101 14 107 28 q 79 -47 92 -7 q 64 -121 65 -110 l 85 -129 l 118 10 q 125 14 119 15 q 128 7 131 13 l 94 -132 q 106 -133 103 -132 l 115 -137 l 138 -29 q 144 -25 139 -24 q 147 -31 150 -28 l 125 -140 q 139 -143 129 -142 q 153 -144 143 -144 l 168 -10 q 174 -6 168 -4 q 178 -11 178 -6 l 163 -146 q 190 -147 167 -147 l 196 4 q 201 8 196 10 q 206 4 208 8 l 200 -147 l 203 -147 q 213 -145 207 -146 q 225 -144 218 -144 q 233 -49 233 -99 q 225 40 232 0 q 213 99 217 81 q 207 117 208 115 q 203 131 206 126 l 186 132 z "},"-":{"ha":475,"x_min":35,"x_max":438,"o":"m 438 492 l 35 492 l 35 617 l 438 617 l 438 492 z "},".":{"ha":1347,"x_min":56,"x_max":400,"o":"m 299 369 l 311 369 q 321 361 318 365 q 325 353 325 357 q 310 340 322 340 l 308 340 l 236 347 l 233 347 q 224 364 219 351 q 229 372 224 368 l 231 374 q 239 376 233 376 l 299 369 m 340 929 q 353 924 344 929 q 357 908 357 915 l 296 379 l 257 383 l 319 914 q 326 925 319 922 q 340 929 333 932 m 303 293 l 304 293 q 314 288 313 288 l 317 276 q 311 268 314 268 l 310 265 l 308 265 q 301 264 307 264 l 289 265 l 279 265 l 254 269 l 244 269 l 229 271 l 219 276 l 217 288 q 224 299 217 296 q 231 300 226 300 l 303 293 m 308 331 l 317 325 q 321 315 321 317 l 315 306 q 306 301 308 301 l 304 301 l 232 310 l 231 310 q 224 314 225 310 q 219 324 219 318 q 225 335 219 333 l 226 336 l 229 336 q 233 338 232 338 l 236 338 l 306 331 l 308 331 m 292 256 l 299 256 q 310 256 304 251 q 365 163 344 219 q 393 54 388 106 q 397 4 394 33 l 400 -26 l 400 -74 q 374 -85 383 -83 q 368 17 376 -43 q 350 113 354 97 q 343 138 344 122 q 341 147 342 142 q 339 156 340 153 q 338 161 338 160 q 331 167 338 167 q 325 160 322 165 q 327 152 326 157 q 328 144 328 147 q 329 135 328 142 q 332 126 331 129 q 335 117 333 124 q 338 108 336 111 q 353 13 347 74 q 358 -90 361 -49 q 321 -99 333 -99 q 329 18 329 -36 q 321 129 329 75 l 315 156 q 306 204 310 182 q 292 256 297 233 m 256 258 l 278 257 q 280 249 278 256 q 283 238 282 242 q 290 215 286 225 q 298 179 293 206 q 306 140 303 153 q 317 24 314 94 q 306 -100 317 -37 q 274 -104 285 -104 l 281 93 q 275 99 286 99 q 268 93 268 99 l 261 -104 q 225 -103 233 -104 l 244 72 q 239 81 244 81 q 232 75 232 81 l 213 -100 q 194 -99 203 -100 q 176 -96 185 -99 l 206 47 q 201 54 207 50 q 193 49 194 57 l 164 -92 q 151 -87 160 -92 q 136 -85 138 -85 l 181 96 q 176 106 183 101 q 167 100 168 106 l 124 -81 l 97 -69 q 117 26 106 -17 q 146 106 128 68 q 181 171 154 126 q 190 189 185 179 q 199 204 196 199 q 203 213 201 210 l 214 228 q 213 238 218 233 q 203 235 206 240 l 193 219 q 167 178 189 215 q 135 113 146 142 q 106 32 115 65 q 85 -64 89 -18 q 56 -51 75 -60 q 86 65 64 -3 q 124 153 106 119 q 165 213 144 188 q 200 249 188 242 q 219 264 210 254 q 226 263 222 263 l 242 261 l 224 132 q 229 125 224 125 l 233 125 l 236 131 l 256 258 z "},"/":{"ha":621,"x_min":106,"x_max":514,"o":"m 233 -137 l 106 -137 l 386 1246 l 514 1246 l 233 -137 z "},":":{"ha":213,"x_min":39,"x_max":171,"o":"m 104 0 q 58 21 78 0 q 39 69 39 40 q 58 118 39 94 q 104 138 78 138 q 151 118 132 138 q 171 69 171 94 q 151 21 171 40 q 104 0 133 0 z "},";":{"ha":213,"x_min":39,"x_max":171,"o":"m 113 -151 l 39 -151 l 43 125 l 164 125 l 113 -151 m 104 415 q 58 436 78 415 q 39 485 39 456 q 58 533 39 510 q 104 553 78 553 q 151 533 132 553 q 171 485 171 510 q 151 436 171 456 q 104 415 133 415 z "},"<":{"ha":517,"x_min":38,"x_max":472,"o":"m 472 292 l 38 486 l 38 622 l 472 817 l 472 679 l 165 554 l 472 429 l 472 292 z "},"=":{"ha":532,"x_min":40,"x_max":489,"o":"m 489 653 l 40 653 l 40 778 l 489 778 l 489 653 m 489 332 l 40 332 l 40 457 l 489 457 l 489 332 z "},">":{"ha":517,"x_min":43,"x_max":479,"o":"m 43 292 l 43 429 l 351 554 l 43 679 l 43 817 l 479 622 l 479 486 l 43 292 z "},"?":{"ha":456,"x_min":43,"x_max":414,"o":"m 239 261 l 114 282 l 114 588 l 289 697 l 289 940 q 271 982 289 964 q 229 1000 253 1000 q 186 982 204 999 q 168 940 169 965 l 168 769 l 43 813 l 43 940 q 99 1071 43 1017 q 229 1125 153 1125 q 360 1071 306 1124 q 414 940 413 1017 l 414 628 l 239 518 l 239 261 m 219 21 q 172 0 200 0 q 125 21 144 0 q 106 69 106 40 q 125 118 106 94 q 172 138 144 138 q 219 118 200 138 q 239 69 239 94 q 219 21 239 40 z "},"@":{"ha":879,"x_min":54,"x_max":822,"o":"m 658 -192 q 542 -143 590 -192 q 493 -28 493 -94 l 493 106 q 400 69 449 69 q 289 125 335 69 q 242 257 242 176 l 242 590 q 289 724 242 668 q 400 778 335 778 q 493 742 449 778 l 533 778 l 619 778 l 619 -28 q 631 -54 619 -43 q 658 -67 642 -65 q 685 -54 674 -65 q 697 -28 696 -43 l 697 878 q 667 951 696 922 q 593 982 638 981 l 282 982 q 210 951 239 981 q 179 878 181 922 l 179 -72 l 54 -125 l 54 878 q 121 1040 54 972 q 282 1107 188 1107 l 593 1107 q 756 1040 686 1107 q 822 878 822 972 l 822 -28 q 774 -143 822 -94 q 658 -192 725 -192 m 431 194 q 444 194 431 194 q 475 213 457 194 q 493 257 493 231 l 493 590 q 475 635 493 617 q 431 653 457 653 q 386 635 404 653 q 367 590 368 615 l 367 257 q 386 213 368 232 q 431 194 404 194 z "},"A":{"ha":576,"x_min":-12,"x_max":600,"o":"m 600 -129 l 438 -129 l 449 -75 l 406 213 l 181 213 l 138 -79 l 147 -129 l -12 -129 l 11 -78 l 54 214 l 4 339 l 74 339 l 207 1231 l 379 1231 l 576 -76 l 600 -129 m 388 339 l 293 961 l 200 339 l 388 339 z "},"B":{"ha":547,"x_min":29,"x_max":497,"o":"m 29 -129 l 65 -74 l 65 1176 l 29 1231 l 324 1231 q 447 1181 394 1231 q 497 1057 497 1128 l 497 714 l 393 610 l 497 504 l 497 67 q 440 -71 497 -14 q 301 -129 382 -129 l 29 -129 m 190 -4 l 301 -4 q 351 17 333 -3 q 372 67 369 36 l 372 453 l 281 546 l 190 546 l 190 -4 m 278 671 l 372 765 l 372 1057 q 358 1092 371 1075 q 324 1106 344 1106 l 190 1106 l 190 671 l 278 671 z "},"C":{"ha":554,"x_min":54,"x_max":531,"o":"m 269 -146 q 115 -87 175 -146 q 54 58 54 -31 l 54 1038 q 115 1185 54 1126 q 269 1242 176 1242 q 425 1185 364 1242 q 486 1038 486 1126 l 486 842 q 511 711 486 790 q 531 667 522 675 l 528 668 l 518 674 q 490 694 514 676 q 440 747 464 721 q 379 801 407 785 q 331 828 351 819 l 310 835 l 324 854 q 349 899 331 864 q 361 956 361 925 l 361 1038 q 332 1100 361 1081 q 269 1117 303 1117 q 208 1100 238 1117 q 179 1038 179 1081 l 179 58 q 208 -3 179 17 q 269 -21 235 -21 q 332 -3 306 -21 q 361 58 361 15 l 361 378 l 486 422 l 486 58 q 425 -87 486 -31 q 269 -146 364 -146 z "},"D":{"ha":558,"x_min":29,"x_max":503,"o":"m 29 -129 l 65 -74 l 65 1176 l 29 1231 l 322 1231 q 450 1178 397 1231 q 503 1051 503 1125 l 503 51 q 450 -76 503 -24 q 322 -129 397 -129 l 29 -129 m 190 -4 l 322 -4 q 361 13 346 -3 q 378 51 376 28 l 378 1051 q 361 1090 376 1074 q 322 1106 346 1106 l 190 1106 l 190 -4 z "},"E":{"ha":543,"x_min":14,"x_max":539,"o":"m 526 -129 l 50 -129 l 85 -75 l 85 547 l 14 671 l 85 671 l 85 1178 l 50 1231 l 526 1231 l 532 1069 l 478 1106 l 210 1106 l 210 671 l 392 671 l 415 521 l 332 546 l 210 546 l 210 -4 l 476 -4 l 539 50 l 526 -129 z "},"F":{"ha":529,"x_min":14,"x_max":533,"o":"m 244 -129 l 50 -129 l 85 -75 l 85 547 l 14 671 l 85 671 l 85 1179 l 51 1231 l 529 1231 l 533 1069 l 479 1106 l 210 1106 l 210 671 l 392 671 l 414 521 l 331 546 l 210 546 l 210 -75 l 244 -129 z "},"G":{"ha":557,"x_min":53,"x_max":507,"o":"m 443 -86 q 281 -146 379 -146 q 118 -86 182 -146 q 53 61 53 -28 l 53 1035 q 118 1183 53 1125 q 281 1242 183 1242 q 443 1183 378 1242 q 507 1035 507 1125 l 507 858 l 382 814 l 382 1035 q 349 1099 382 1081 q 281 1117 318 1117 q 211 1099 242 1117 q 178 1035 178 1081 l 178 61 q 211 -1 178 17 q 281 -21 247 -21 q 349 -1 313 -21 q 382 61 382 17 l 382 571 l 297 681 l 507 654 l 507 61 q 443 -86 507 -28 z "},"H":{"ha":592,"x_min":26,"x_max":565,"o":"m 565 -117 l 554 -111 q 526 -89 553 -110 q 476 -37 507 -74 q 415 17 443 0 q 367 44 375 40 q 356 49 363 46 q 347 51 349 51 l 344 51 l 360 69 q 397 172 397 129 l 400 532 l 190 532 l 188 111 l 221 58 l 26 58 l 63 114 l 65 1176 l 29 1231 l 225 1231 l 190 1178 l 190 657 l 400 657 l 400 1178 l 365 1231 l 560 1231 l 525 1176 l 522 60 q 531 -4 522 50 q 547 -72 538 -43 q 565 -115 557 -103 l 565 -117 z "},"I":{"ha":251,"x_min":11,"x_max":232,"o":"m 215 -129 l 19 -129 l 56 -74 l 56 1231 q 29 1363 56 1288 q 11 1407 21 1390 l 13 1406 l 22 1401 q 51 1379 38 1390 q 101 1326 74 1357 q 161 1272 131 1293 q 210 1246 189 1254 l 231 1239 l 232 1239 l 218 1219 q 181 1118 181 1167 l 181 -74 l 215 -129 z "},"J":{"ha":558,"x_min":8,"x_max":500,"o":"m 276 -146 q 118 -79 183 -146 q 53 79 53 -10 l 53 414 q 28 546 53 469 q 8 589 18 579 l 19 585 q 99 511 42 574 q 208 429 151 450 l 228 422 l 229 421 l 215 403 q 178 301 178 350 l 178 79 q 207 7 178 33 q 271 -21 239 -21 q 347 10 318 -21 q 375 83 375 42 l 375 1106 l 193 1106 l 129 1078 l 140 1231 l 500 1231 l 500 83 q 435 -78 500 -8 q 276 -146 371 -146 z "},"K":{"ha":613,"x_min":11,"x_max":669,"o":"m 669 -129 l 496 -129 l 496 -74 l 214 638 l 436 1172 l 432 1231 l 613 1231 l 576 1183 l 349 636 l 633 -81 l 669 -129 m 215 -129 l 19 -129 l 56 -74 l 56 1231 q 29 1363 56 1288 q 11 1407 21 1390 l 13 1406 l 22 1401 q 51 1379 38 1390 q 101 1326 74 1357 q 161 1272 131 1293 q 210 1246 189 1254 l 231 1239 l 232 1239 q 193 1175 215 1222 q 181 1117 181 1147 l 181 -74 l 215 -129 z "},"L":{"ha":479,"x_min":11,"x_max":499,"o":"m 485 -129 l 19 -129 l 56 -74 l 56 1231 q 29 1363 56 1288 q 11 1407 21 1390 l 13 1406 l 22 1401 q 51 1379 38 1390 q 101 1326 74 1357 q 161 1272 131 1293 q 210 1246 189 1254 l 231 1239 l 232 1239 l 218 1219 q 181 1118 181 1167 l 181 -4 l 443 -4 l 499 36 l 485 -129 z "},"M":{"ha":781,"x_min":26,"x_max":763,"o":"m 763 -122 l 751 -117 q 672 -42 732 -107 q 564 39 613 24 l 542 46 l 543 46 l 557 65 q 582 110 571 85 q 594 167 594 138 l 593 1015 q 513 1053 533 1039 q 483 1063 499 1063 q 468 1058 475 1063 q 453 1028 461 1053 q 451 179 451 1024 q 465 147 451 160 l 479 135 l 481 135 l 479 133 l 460 126 q 389 65 410 108 l 376 82 q 299 131 344 124 l 297 131 l 313 149 q 326 179 326 165 l 326 1013 q 319 1043 326 1028 q 297 1058 313 1058 q 265 1049 283 1058 q 185 1013 221 1025 l 186 106 l 221 53 l 26 53 l 61 108 l 60 1068 l 31 1104 l 32 1104 q 106 1119 50 1104 q 342 1268 253 1161 l 389 1325 l 438 1268 q 675 1118 560 1233 q 679 1117 676 1117 q 685 1115 683 1115 q 696 1113 693 1113 q 704 1110 700 1111 q 712 1107 708 1108 q 717 1106 715 1106 q 732 1103 731 1103 q 739 1101 735 1103 l 746 1099 l 747 1099 l 718 1054 l 719 54 q 728 -10 719 38 q 744 -78 735 -49 q 763 -121 754 -108 l 763 -122 z "},"N":{"ha":621,"x_min":24,"x_max":601,"o":"m 382 -250 l 381 -250 q 400 -207 389 -239 q 429 -75 429 -126 l 429 161 l 185 831 l 185 -75 l 219 -129 l 24 -129 l 60 -75 l 60 1199 l 36 1246 l 171 1231 l 429 526 l 429 1176 l 393 1231 l 589 1231 l 554 1178 l 554 183 l 556 179 l 554 178 l 554 38 q 567 -18 554 8 q 589 -64 571 -31 q 601 -82 594 -75 l 601 -83 l 600 -83 l 581 -90 q 532 -117 560 -99 q 471 -171 503 -135 q 421 -222 440 -207 q 393 -244 407 -236 l 382 -250 z "},"O":{"ha":561,"x_min":53,"x_max":507,"o":"m 443 -86 q 281 -146 379 -146 q 118 -86 182 -146 q 53 61 53 -28 l 53 1035 q 118 1183 53 1125 q 281 1242 183 1242 q 443 1183 378 1242 q 507 1035 507 1125 l 507 61 q 443 -86 507 -28 m 281 -21 q 349 -1 313 -21 q 382 61 382 17 l 382 1035 q 349 1099 382 1081 q 281 1117 318 1117 q 211 1099 242 1117 q 178 1035 178 1081 l 178 61 q 211 -1 178 17 q 281 -21 247 -21 z "},"P":{"ha":528,"x_min":21,"x_max":508,"o":"m 233 -129 l 39 -129 l 74 -75 l 74 522 l 21 647 l 74 647 l 74 1178 l 39 1231 l 311 1231 q 450 1174 393 1231 q 508 1033 507 1117 l 508 719 q 451 579 508 640 q 311 521 393 521 l 199 521 l 199 -75 l 233 -129 m 199 647 l 311 647 q 363 668 342 647 q 383 719 383 689 l 383 1033 q 363 1085 383 1064 q 311 1106 342 1106 l 199 1106 l 199 647 z "},"Q":{"ha":561,"x_min":53,"x_max":549,"o":"m 382 61 l 382 1035 q 349 1099 382 1081 q 281 1117 318 1117 q 211 1099 242 1117 q 178 1035 178 1081 l 178 61 q 211 -1 178 17 q 281 -21 247 -21 q 349 -1 313 -21 q 382 61 382 17 m 340 -265 l 242 -143 q 118 -86 167 -133 q 53 61 53 -28 l 53 1035 q 118 1183 53 1125 q 281 1242 183 1242 q 443 1183 378 1242 q 507 1035 507 1125 l 507 61 q 443 -86 507 -28 q 374 -131 413 -114 l 549 -315 l 340 -265 z "},"R":{"ha":560,"x_min":29,"x_max":604,"o":"m 604 -129 l 424 -129 l 440 -86 l 190 608 l 190 -76 l 225 -129 l 29 -129 l 65 -74 l 65 1176 l 29 1231 l 300 1231 q 442 1172 383 1231 q 500 1031 500 1114 l 500 763 q 456 636 500 693 q 339 565 411 581 l 571 -78 l 604 -129 m 190 686 l 300 686 q 354 708 329 688 q 375 763 375 729 l 375 1031 q 354 1085 375 1061 q 300 1106 331 1106 l 190 1106 l 190 686 z "},"S":{"ha":543,"x_min":31,"x_max":525,"o":"m 414 -82 q 261 -146 350 -146 q 110 -82 172 -146 q 46 69 46 -19 l 46 285 l 172 328 l 172 69 q 199 7 172 32 q 261 -21 222 -19 q 325 7 301 -18 q 351 69 350 32 l 351 421 l 31 621 l 46 647 l 46 1028 q 110 1178 47 1115 q 261 1242 172 1239 q 414 1179 349 1242 q 476 1028 476 1114 l 476 1019 q 525 911 485 964 l 504 904 q 456 876 496 900 q 394 822 426 858 q 344 771 364 786 q 338 765 343 769 q 327 757 332 761 q 317 749 322 753 q 313 747 315 747 q 308 744 311 746 l 307 743 l 304 743 q 325 788 314 756 q 351 918 351 863 l 351 1028 q 325 1090 350 1065 q 261 1117 299 1115 q 199 1090 225 1117 q 172 1028 172 1064 l 172 682 q 504 475 358 563 l 476 447 l 476 69 q 414 -82 476 -19 z "},"T":{"ha":475,"x_min":-6,"x_max":479,"o":"m 128 -250 l 126 -250 q 146 -207 135 -239 q 175 -75 175 -126 l 175 1106 l 43 1106 l -6 1069 l -1 1231 l 475 1231 l 479 1069 l 431 1106 l 300 1106 l 300 38 q 333 -62 300 -11 l 347 -83 l 346 -83 l 326 -90 q 278 -117 306 -99 q 217 -171 249 -135 q 167 -222 186 -207 q 138 -244 149 -240 l 128 -250 z "},"U":{"ha":579,"x_min":11,"x_max":547,"o":"m 283 -146 q 119 -82 182 -146 q 56 79 56 -19 l 56 1231 q 29 1363 56 1288 q 11 1407 21 1390 l 13 1406 l 22 1401 q 51 1379 38 1390 q 101 1326 74 1357 q 161 1272 131 1293 q 210 1246 189 1254 l 231 1239 l 232 1239 q 193 1175 215 1222 q 181 1117 181 1147 l 181 79 q 200 14 181 38 q 244 -14 217 -7 q 283 -19 263 -19 q 324 -14 303 -19 q 367 14 349 -8 q 386 79 386 38 l 386 1178 l 351 1231 l 547 1231 l 511 1176 l 511 79 q 447 -82 511 -19 q 283 -146 383 -146 z "},"V":{"ha":625,"x_min":0,"x_max":622,"o":"m 400 -129 l 224 -129 l 32 1164 l 0 1231 l 167 1231 l 161 1143 l 313 128 l 465 1157 l 458 1231 l 622 1231 l 594 1172 l 400 -129 z "},"W":{"ha":786,"x_min":18,"x_max":756,"o":"m 390 -224 l 343 -165 q 106 -15 258 -67 q 61 -3 63 -4 q 54 -1 57 -3 l 49 0 q 45 1 47 0 q 42 3 43 1 l 38 3 l 33 4 l 63 49 l 63 1231 q 38 1363 63 1286 q 18 1407 22 1404 l 29 1401 q 108 1328 51 1390 q 218 1246 161 1267 l 239 1239 l 239 1238 l 225 1221 q 188 1118 188 1169 l 188 88 q 268 50 225 74 q 297 40 282 40 q 328 74 321 40 q 329 922 329 78 q 315 956 329 938 q 300 967 304 967 l 300 968 q 321 976 303 968 q 390 1036 371 999 l 392 1038 l 392 1036 l 404 1021 q 436 992 415 1004 q 482 972 456 976 l 483 972 l 474 964 q 454 922 454 940 l 454 89 q 485 43 454 43 q 515 53 497 43 q 594 89 549 72 l 594 1178 l 561 1231 l 756 1231 l 719 1176 l 719 35 l 750 -1 q 690 -12 735 -1 q 439 -167 538 -51 l 390 -224 z "},"X":{"ha":601,"x_min":-35,"x_max":636,"o":"m 636 -129 l 468 -129 l 472 -81 l 301 515 l 132 -76 l 135 -129 l -35 -129 l 4 -65 l 204 632 l 44 1163 l 3 1231 l 175 1231 l 171 1176 l 301 744 l 435 1186 l 431 1231 l 597 1231 l 563 1178 l 397 632 l 601 -75 l 636 -129 z "},"Y":{"ha":621,"x_min":-15,"x_max":636,"o":"m 201 -250 l 200 -250 q 221 -207 207 -240 q 249 -75 249 -121 l 249 415 l 29 1160 l -15 1231 l 160 1231 l 156 1174 l 311 644 l 469 1182 l 465 1231 l 636 1231 l 597 1171 l 374 415 l 374 38 q 408 -64 374 -12 l 421 -83 l 400 -90 q 351 -117 379 -99 q 290 -171 322 -135 q 240 -222 260 -207 q 213 -244 226 -236 q 209 -247 211 -246 q 205 -249 207 -247 q 201 -250 203 -250 z "},"Z":{"ha":551,"x_min":8,"x_max":538,"o":"m 492 -110 l 14 -110 l 13 13 l 356 1106 l 63 1106 l 8 1069 l 13 1231 l 490 1231 l 490 1118 l 139 -4 l 365 -4 l 365 199 q 354 256 365 233 q 345 273 353 258 q 331 300 338 288 q 324 309 329 303 q 317 318 319 315 l 317 319 l 318 319 l 321 319 q 329 324 322 322 q 334 324 331 324 q 339 326 338 325 q 386 353 346 328 q 447 407 414 369 q 497 458 478 443 q 526 481 518 475 l 535 486 l 538 486 q 518 442 528 476 q 490 311 490 338 l 492 -110 z "},"[":{"ha":422,"x_min":57,"x_max":315,"o":"m 315 -137 l 57 -137 l 57 1246 l 315 1246 l 315 1121 l 182 1121 l 182 -12 l 315 -12 l 315 -137 z "},"\\":{"ha":621,"x_min":106,"x_max":514,"o":"m 514 -137 l 386 -137 l 106 1246 l 233 1246 l 514 -137 z "},"]":{"ha":422,"x_min":106,"x_max":364,"o":"m 364 -137 l 106 -137 l 106 -12 l 239 -12 l 239 1121 l 106 1121 l 106 1246 l 364 1246 l 364 -137 z "},"_":{"ha":564,"x_min":57,"x_max":506,"o":"m 506 -156 l 57 -156 l 57 -31 l 506 -31 l 506 -156 z "},"`":{"ha":269,"x_min":8,"x_max":254,"o":"m 254 829 l 164 829 l 8 1114 l 194 1114 l 254 829 z "},"a":{"ha":551,"x_min":6,"x_max":544,"o":"m 544 0 l 382 0 l 397 40 l 375 183 l 228 183 l 188 272 l 153 44 l 169 0 l 6 0 l 28 54 l 183 1047 l 149 1122 l 356 1108 l 521 54 l 544 0 m 357 308 l 275 901 l 193 308 l 357 308 z "},"b":{"ha":507,"x_min":31,"x_max":456,"o":"m 31 0 l 65 54 l 65 1054 l 31 1108 l 322 1108 q 417 1069 379 1107 q 456 975 454 1032 l 456 685 l 389 589 l 456 494 l 456 133 q 417 39 454 76 q 322 0 379 1 l 31 0 m 190 125 l 296 125 q 321 136 310 125 q 331 160 331 146 l 331 478 l 286 526 l 190 526 l 190 125 m 286 651 l 331 707 l 331 949 q 321 974 331 964 q 296 983 311 983 l 190 983 l 190 651 l 286 651 z "},"c":{"ha":486,"x_min":53,"x_max":443,"o":"m 389 35 q 249 -17 333 -17 q 108 35 164 -17 q 53 163 53 85 l 53 946 q 108 1075 53 1024 q 249 1125 165 1125 q 389 1075 333 1125 q 443 946 443 1022 l 443 757 l 318 707 l 318 946 q 303 983 318 972 q 271 997 288 994 l 249 1000 l 246 1000 l 240 1000 q 235 999 239 999 q 226 997 232 997 q 193 983 208 994 q 178 946 178 972 l 178 163 q 193 126 178 138 q 226 111 206 114 l 249 108 l 253 108 q 257 110 256 108 q 264 111 261 110 l 271 111 q 303 126 290 114 q 318 163 318 138 l 318 426 l 443 469 l 443 163 q 389 35 443 85 z "},"d":{"ha":511,"x_min":31,"x_max":456,"o":"m 31 0 l 65 54 l 65 1054 l 31 1108 l 322 1108 q 417 1069 379 1107 q 456 975 454 1032 l 456 133 q 417 39 454 76 q 322 0 379 1 l 31 0 m 190 125 l 301 125 q 322 133 314 125 q 331 156 331 142 l 331 954 q 322 975 331 967 q 301 983 314 983 l 190 983 l 190 125 z "},"e":{"ha":483,"x_min":31,"x_max":457,"o":"m 457 0 l 31 0 l 65 54 l 65 1054 l 31 1108 l 457 1108 l 457 950 l 413 983 l 190 983 l 190 651 l 357 651 l 399 682 l 399 494 l 353 526 l 190 526 l 190 125 l 414 125 l 457 158 l 457 0 z "},"f":{"ha":465,"x_min":31,"x_max":457,"o":"m 225 0 l 31 0 l 65 54 l 65 1054 l 31 1108 l 457 1108 l 457 950 l 413 983 l 190 983 l 190 651 l 357 651 l 399 682 l 399 494 l 353 526 l 190 526 l 190 53 l 225 0 z "},"g":{"ha":493,"x_min":53,"x_max":443,"o":"m 389 35 q 249 -17 333 -17 q 108 35 164 -17 q 53 163 53 85 l 53 946 q 108 1075 53 1024 q 249 1125 165 1125 q 389 1075 333 1125 q 443 946 443 1022 l 443 800 l 318 742 l 318 946 q 303 983 318 972 q 271 997 288 994 l 249 1000 l 246 1000 l 240 1000 q 235 999 239 999 q 226 997 232 997 q 193 983 208 994 q 178 946 178 972 l 178 163 q 193 126 178 138 q 226 111 206 114 l 249 108 l 253 108 q 257 110 256 108 q 264 111 261 110 l 271 111 q 303 126 290 114 q 318 163 318 138 l 318 563 l 260 651 l 443 651 l 443 163 q 389 35 443 85 z "},"h":{"ha":538,"x_min":31,"x_max":503,"o":"m 503 0 l 307 0 l 343 54 l 343 526 l 190 526 l 190 54 l 226 0 l 31 0 l 65 54 l 65 1054 l 31 1108 l 226 1108 l 190 1054 l 190 651 l 343 651 l 343 1054 l 307 1108 l 503 1108 l 468 1054 l 468 54 l 503 0 z "},"i":{"ha":260,"x_min":31,"x_max":226,"o":"m 226 0 l 31 0 l 65 54 l 65 1054 l 31 1108 l 226 1108 l 190 1054 l 190 54 l 226 0 z "},"j":{"ha":464,"x_min":19,"x_max":410,"o":"m 215 -17 l 199 -17 q 72 36 125 -17 q 19 163 19 89 l 19 426 l 146 469 l 146 163 q 161 125 146 140 q 199 108 175 111 l 215 108 q 265 129 244 111 q 285 179 285 149 l 285 983 l 138 983 l 92 950 l 92 1108 l 410 1108 l 410 179 q 353 42 410 99 q 215 -17 297 -17 z "},"k":{"ha":583,"x_min":31,"x_max":582,"o":"m 582 0 l 400 0 l 413 56 l 218 549 l 190 549 l 190 54 l 226 0 l 31 0 l 65 54 l 65 1054 l 31 1108 l 226 1108 l 190 1054 l 190 632 l 206 640 l 374 1042 l 371 1108 l 557 1108 l 515 1060 l 329 608 l 549 53 l 582 0 z "},"l":{"ha":442,"x_min":31,"x_max":447,"o":"m 447 0 l 32 0 l 65 53 l 65 1054 l 31 1108 l 226 1108 l 190 1054 l 190 125 l 403 125 l 447 158 l 447 0 z "},"m":{"ha":726,"x_min":31,"x_max":693,"o":"m 693 0 l 497 0 l 532 54 l 532 979 q 424 800 424 950 l 424 399 l 299 357 l 299 800 q 190 979 299 950 l 190 54 l 226 0 l 31 0 l 65 54 l 65 1054 l 31 1108 l 158 1108 q 260 1088 203 1108 q 361 1010 321 1064 q 464 1088 406 1064 q 565 1108 519 1108 l 693 1108 l 657 1054 l 657 54 l 693 0 z "},"n":{"ha":553,"x_min":31,"x_max":521,"o":"m 485 0 l 368 0 l 190 663 l 190 54 l 225 0 l 31 0 l 65 54 l 65 1054 l 31 1108 l 179 1108 l 360 435 l 360 1056 l 325 1108 l 521 1108 l 485 1054 l 485 0 z "},"o":{"ha":497,"x_min":53,"x_max":443,"o":"m 389 35 q 249 -17 333 -17 q 108 35 164 -17 q 53 163 53 85 l 53 946 q 108 1075 53 1024 q 249 1125 165 1125 q 389 1075 333 1125 q 443 946 443 1022 l 443 163 q 389 35 443 85 m 264 111 l 271 111 q 303 126 290 114 q 318 163 318 138 l 318 946 q 303 983 318 972 q 271 997 288 994 l 249 1000 l 246 1000 l 240 1000 q 235 999 239 999 q 226 997 232 997 q 193 983 208 994 q 178 946 178 972 l 178 163 q 193 126 178 138 q 226 111 206 114 l 249 108 l 253 108 q 257 110 256 108 q 264 111 261 110 z "},"p":{"ha":479,"x_min":31,"x_max":458,"o":"m 225 0 l 31 0 l 65 54 l 65 1054 l 31 1108 l 306 1108 q 414 1064 369 1108 q 458 956 458 1019 l 458 658 q 414 550 458 594 q 306 506 369 506 l 190 506 l 190 54 l 225 0 m 190 631 l 306 631 q 326 639 318 631 q 333 658 333 646 l 333 956 q 326 976 333 965 q 306 983 315 983 l 190 983 l 190 631 z "},"q":{"ha":497,"x_min":53,"x_max":443,"o":"m 404 -58 l 404 -183 q 272 -133 328 -183 q 204 -12 215 -86 q 96 50 138 3 q 53 163 53 97 l 53 946 q 108 1075 53 1024 q 249 1125 165 1125 q 388 1075 333 1125 q 443 946 442 1024 l 443 163 q 413 64 443 107 q 329 -1 381 19 q 357 -43 336 -29 q 404 -58 376 -58 m 264 111 l 271 111 q 303 126 290 114 q 318 163 318 138 l 318 946 q 303 983 318 972 q 271 997 288 994 l 249 1000 l 246 1000 l 240 1000 q 235 999 239 999 q 226 997 232 997 q 193 983 208 994 q 178 946 178 972 l 178 163 q 193 126 178 138 q 226 111 206 114 l 249 108 l 253 108 q 257 110 256 108 q 264 111 261 110 z "},"r":{"ha":511,"x_min":31,"x_max":511,"o":"m 511 0 l 335 0 l 350 39 l 200 568 l 190 568 l 190 53 l 225 0 l 31 0 l 65 54 l 65 1054 l 31 1108 l 306 1108 q 414 1064 369 1108 q 458 956 458 1019 l 458 719 q 424 622 458 661 q 333 569 388 581 l 482 44 l 511 0 m 283 693 l 306 693 q 326 701 318 693 q 333 719 333 708 l 333 956 q 326 976 333 965 q 306 983 315 983 l 190 983 l 190 693 l 275 693 l 282 696 l 283 693 z "},"s":{"ha":460,"x_min":43,"x_max":414,"o":"m 360 39 q 229 -17 306 -17 q 99 39 153 -17 q 43 169 43 93 l 43 376 l 168 406 l 168 169 q 186 126 171 140 q 229 108 204 110 q 271 126 254 110 q 289 169 286 142 l 289 490 l 43 644 l 43 940 q 99 1071 44 1017 q 229 1125 153 1124 q 360 1071 306 1125 q 414 940 414 1017 l 414 771 l 289 807 l 289 940 q 271 982 288 965 q 229 1000 254 999 q 188 982 204 1000 q 168 940 169 964 l 168 714 l 414 560 l 414 169 q 360 39 414 93 z "},"t":{"ha":424,"x_min":1,"x_max":418,"o":"m 308 0 l 113 0 l 147 54 l 147 983 l 46 983 l 1 950 l 1 1108 l 418 1108 l 418 950 l 374 983 l 272 983 l 272 54 l 308 0 z "},"u":{"ha":517,"x_min":28,"x_max":489,"o":"m 258 -17 q 119 35 171 -17 q 64 163 64 85 l 64 1054 l 28 1108 l 224 1108 l 189 1056 l 189 163 q 204 126 189 138 q 236 111 217 114 l 258 108 q 264 110 261 108 q 272 111 268 110 l 282 111 q 314 126 301 114 q 328 163 328 136 l 328 1056 l 293 1108 l 489 1108 l 453 1054 l 453 163 q 399 35 453 85 q 258 -17 343 -17 z "},"v":{"ha":550,"x_min":4,"x_max":544,"o":"m 356 0 l 193 0 l 28 1054 l 4 1108 l 167 1108 l 153 1068 l 275 263 l 396 1065 l 381 1108 l 544 1108 l 521 1054 l 356 0 z "},"w":{"ha":726,"x_min":31,"x_max":693,"o":"m 693 0 l 568 0 q 467 21 519 0 q 361 99 414 40 q 338 72 357 92 q 156 0 257 0 l 31 0 l 65 54 l 65 1054 l 31 1108 l 226 1108 l 190 1054 l 190 131 q 299 310 299 158 l 299 710 l 300 711 l 424 751 l 424 310 q 532 131 424 158 l 532 1056 l 497 1108 l 693 1108 l 657 1054 l 657 54 l 693 0 z "},"x":{"ha":610,"x_min":1,"x_max":604,"o":"m 604 0 l 424 0 l 444 38 l 304 492 l 165 39 l 188 0 l 1 0 l 38 50 l 210 610 l 65 1056 l 26 1108 l 211 1108 l 192 1074 l 304 724 l 417 1072 l 396 1108 l 578 1108 l 544 1058 l 400 610 l 571 50 l 604 0 z "},"y":{"ha":557,"x_min":-14,"x_max":569,"o":"m 376 0 l 181 0 l 217 54 l 217 407 l 24 1057 l -14 1108 l 174 1108 l 151 1069 l 279 636 l 407 1071 l 385 1108 l 569 1108 l 532 1053 l 342 407 l 342 54 l 376 0 z "},"z":{"ha":454,"x_min":19,"x_max":433,"o":"m 433 0 l 19 0 l 19 128 l 296 983 l 65 983 l 19 950 l 19 1108 l 433 1108 l 433 1003 l 151 125 l 390 125 l 433 158 l 433 0 z "},"{":{"ha":506,"x_min":31,"x_max":397,"o":"m 397 -137 l 317 -137 q 185 -82 239 -137 q 131 49 131 -28 l 131 531 q 57 583 131 581 l 31 583 l 31 708 l 57 708 q 131 760 131 708 l 131 1060 q 185 1192 131 1138 q 317 1246 239 1246 l 397 1246 l 397 1121 l 317 1121 q 274 1104 290 1121 q 256 1060 256 1086 l 256 760 q 214 646 256 694 q 256 531 256 596 l 256 49 q 274 6 256 22 q 317 -12 288 -10 l 397 -12 l 397 -137 z "},"|":{"ha":240,"x_min":57,"x_max":182,"o":"m 182 -137 l 57 -137 l 57 1246 l 182 1246 l 182 -137 z "},"}":{"ha":506,"x_min":106,"x_max":472,"o":"m 106 -137 l 106 -12 l 188 -12 q 231 6 210 -11 q 247 49 247 22 l 247 349 q 289 464 247 414 q 247 578 247 511 l 247 1060 q 231 1104 247 1086 q 188 1121 211 1121 l 106 1121 l 106 1246 l 188 1246 q 318 1192 264 1246 q 372 1060 372 1138 l 372 578 q 446 526 372 526 l 472 526 l 472 401 l 446 401 q 372 349 375 401 l 372 49 q 318 -82 372 -28 q 188 -137 264 -137 l 106 -137 z "},"":{"ha":260,"x_min":0,"x_max":0,"o":""},"":{"ha":483,"x_min":31,"x_max":457,"o":"m 186 1181 l 314 1183 l 394 1344 l 292 1369 l 186 1181 m 457 0 l 31 0 l 65 54 l 65 1054 l 31 1108 l 457 1108 l 457 950 l 413 983 l 190 983 l 190 651 l 357 651 l 399 682 l 399 494 l 353 526 l 190 526 l 190 125 l 414 125 l 457 158 l 457 0 z "}}}
